{
.appVersion = "1349";
DisplayStrings = (
"/uni1B01",
"/uni1B05.02.part/uni1B35/uni1B0C"
);
classes = (
{
code = "uni1B38.3 uni1B38.4 uni1B39.3 uni1B39.4 uni1B0E.conj uni1B26.conj.u uni1B26.conj.uu uni1B2C.conj.u.1 uni1B2C.conj.uu.1 uni1B2C.conj.u.2 uni1B2C.conj.uu.2 uni1B23.conj.ya.u uni1B26.conj.ya.u uni1B2D.conj.ya.u uni1B2D.conj.3.ya.u uni1B2F.conj.ya.u uni1B49.conj.ya.u uni1B23.conj.ya.uu uni1B26.conj.ya.uu uni1B2D.conj.ya.uu uni1B2D.conj.3.ya.uu uni1B2F.conj.ya.uu uni1B49.conj.ya.uu uni1B38.5 uni1B39.5 ";
name = dist;
},
{
code = "uni1B15 uni1B17 uni1B18 uni1B1A uni1B1D uni1B1E uni1B1F uni1B20 uni1B21 uni1B23 uni1B24 uni1B25 uni1B26 uni1B27 uni1B28 uni1B2A uni1B2B uni1B2D uni1B2F uni1B30 uni1B31 uni1B32 uni1B48 uni1B49 uni1B4A uni1B1A.2 uni1B27.conj uni1B28.conj uni1B31.conj uni1B48.conj";
name = dist10;
},
{
code = "uni1B20 uni1B28 uni1B2D uni1B27.conj uni1B28.conj uni1B31.conj uni1B48.conj";
name = dist11;
},
{
code = "uni1B13 uni1B15 uni1B17 uni1B18 uni1B19 uni1B1A uni1B1B uni1B1D uni1B1E uni1B1F uni1B20 uni1B21 uni1B22 uni1B23 uni1B24 uni1B25 uni1B26 uni1B27 uni1B28 uni1B29 uni1B2A uni1B2B uni1B2C uni1B2D uni1B2E uni1B2F uni1B30 uni1B31 uni1B32 uni1B33 uni1B45 uni1B47 uni1B48 uni1B49 uni1B4A uni1B1A.2 uni1B27.conj uni1B28.conj uni1B31.conj uni1B48.conj uni1B1B.2";
name = dist12;
},
{
code = "uni1B1A uni1B20 uni1B23 uni1B27 uni1B28 uni1B2B uni1B2D uni1B2F uni1B48 uni1B49 uni1B27.conj uni1B28.conj uni1B31.conj uni1B48.conj";
name = dist13;
},
{
code = "uni1B18 uni1B1A uni1B20 uni1B23 uni1B24 uni1B25 uni1B26 uni1B27 uni1B28 uni1B2A uni1B2B uni1B2D uni1B2F uni1B31 uni1B32 uni1B48 uni1B49 uni1B4A uni1B1A.2 uni1B27.conj uni1B28.conj uni1B31.conj uni1B48.conj";
name = dist14;
},
{
code = "uni1B18 uni1B1A uni1B20 uni1B23 uni1B24 uni1B27 uni1B28 uni1B2A uni1B2B uni1B2D uni1B2F uni1B31 uni1B48 uni1B49 uni1B1A.2 uni1B27.conj uni1B28.conj uni1B31.conj uni1B48.conj";
name = dist15;
},
{

glyphs = (
{
glyphname = .notdef;
layers = (
{
layerId = "86689E10-1D55-4C8D-99A2-294733391E9C";
paths = (
{
closed = 1;
nodes = (
"505 0 LINE",
"505 714 LINE",
"94 714 LINE",
"94 0 LINE"
);
},
{
closed = 1;
nodes = (
"454 663 LINE",
"454 51 LINE",
"145 51 LINE",
"145 663 LINE"
);
}
);
width = 600;
},
{
layerId = "61CE545B-E6AD-45B5-B051-8D1B01C68A7F";
paths = (
{
closed = 1;
nodes = (
"505 0 LINE",
"505 714 LINE",
"94 714 LINE",
"94 0 LINE"
);
},
{
closed = 1;
nodes = (
"454 663 LINE",
"454 51 LINE",
"145 51 LINE",
"145 663 LINE"
);
}
);
width = 600;
}
);
},
{
glyphname = uni1B00;
layers = (
{
layerId = "86689E10-1D55-4C8D-99A2-294733391E9C";
paths = (
{
closed = 1;
nodes = (
"-599 767 OFFCURVE",
"-582 709 OFFCURVE",
"-548 639 CURVE",
"-494 659 LINE",
"-517 720 OFFCURVE",
"-529 755 OFFCURVE",
"-529 801 CURVE SMOOTH",
"-529 907 OFFCURVE",
"-467 980 OFFCURVE",
"-325 980 CURVE SMOOTH",
"-189 980 OFFCURVE",
"-124 911 OFFCURVE",
"-124 811 CURVE SMOOTH",
"-124 768 OFFCURVE",
"-135 716 OFFCURVE",
"-157 659 CURVE",
"-102 639 LINE",
"-70 708 OFFCURVE",
"-53 766 OFFCURVE",
"-53 822 CURVE SMOOTH",
"-53 967 OFFCURVE",
"-171 1052 OFFCURVE",
"-325 1052 CURVE SMOOTH",
"-480 1052 OFFCURVE",
"-599 972 OFFCURVE",
"-599 824 CURVE SMOOTH"
);
},
{
closed = 1;
nodes = (
"-476 705 OFFCURVE",
"-430 655 OFFCURVE",
"-342 624 CURVE",
"-318 670 LINE",
"-371 692 OFFCURVE",
"-404 726 OFFCURVE",
"-404 772 CURVE SMOOTH",
"-404 815 OFFCURVE",
"-378 845 OFFCURVE",
"-328 845 CURVE SMOOTH",
"-277 845 OFFCURVE",
"-250 811 OFFCURVE",
"-250 750 CURVE SMOOTH",
"-250 719 OFFCURVE",
"-256 690 OFFCURVE",
"-265 660 CURVE",
"-209 651 LINE",
"-194 686 OFFCURVE",
"-178 731 OFFCURVE",
"-178 778 CURVE SMOOTH",
"-178 866 OFFCURVE",
"-237 913 OFFCURVE",
"-324 913 CURVE SMOOTH",
"-417 913 OFFCURVE",
"-476 861 OFFCURVE",
"-476 779 CURVE SMOOTH"
);
}
);
width = 0;
},
{
layerId = "61CE545B-E6AD-45B5-B051-8D1B01C68A7F";
paths = (
{
closed = 1;
nodes = (
"-644 769 OFFCURVE",
"-617 694 OFFCURVE",
"-563 627 CURVE",
"-504 648 LINE",
"-528 713 OFFCURVE",
"-541 763 OFFCURVE",
"-541 810 CURVE SMOOTH",
"-541 922 OFFCURVE",
"-464 998 OFFCURVE",
"-323 998 CURVE SMOOTH",
"-187 998 OFFCURVE",
"-104 928 OFFCURVE",
"-104 809 CURVE SMOOTH",
"-104 756 OFFCURVE",
"-121 706 OFFCURVE",
"-142 648 CURVE",
"-82 627 LINE",
"-28 694 OFFCURVE",
"-1 769 OFFCURVE",
"-1 851 CURVE SMOOTH",
"-1 1035 OFFCURVE",
"-141 1131 OFFCURVE",
"-323 1131 CURVE SMOOTH",
"-497 1131 OFFCURVE",
"-644 1025 OFFCURVE",
"-644 846 CURVE SMOOTH"
);
},
{
closed = 1;
nodes = (
"-491 712 OFFCURVE",
"-450 653 OFFCURVE",
"-323 624 CURVE",
"-306 672 LINE",
"-368 702 OFFCURVE",
"-397 737 OFFCURVE",
"-397 778 CURVE SMOOTH",
"-397 816 OFFCURVE",
"-370 844 OFFCURVE",
"-328 844 CURVE SMOOTH",
"-280 844 OFFCURVE",
"-253 809 OFFCURVE",
"-253 739 CURVE SMOOTH",
"-253 717 OFFCURVE",
"-257 690 OFFCURVE",
"-265 660 CURVE",
"-206 639 LINE",
"-179 696 OFFCURVE",
"-160 743 OFFCURVE",
"-160 792 CURVE SMOOTH",
"-160 886 OFFCURVE",
"-225 946 OFFCURVE",
"-324 946 CURVE SMOOTH",
"-410 946 OFFCURVE",
"-491 901 OFFCURVE",
"-491 789 CURVE SMOOTH"
);
}
);
width = 0;
}
);
unicode = 1B00;
},
{
glyphname = uni1B01;
layers = (
{
layerId = "86689E10-1D55-4C8D-99A2-294733391E9C";
paths = (
{
closed = 1;
nodes = (
"-380 654 OFFCURVE",
"-311 607 OFFCURVE",
"-215 607 CURVE SMOOTH",
"-118 607 OFFCURVE",
"-48 654 OFFCURVE",
"-7 748 CURVE",
"-48 776 LINE",
"-89 716 OFFCURVE",
"-119 686 OFFCURVE",
"-139 685 CURVE",
"-123 644 LINE",
"-125 749 OFFCURVE",
"-153 805 OFFCURVE",
"-215 805 CURVE SMOOTH",
"-276 805 OFFCURVE",
"-306 749 OFFCURVE",
"-306 644 CURVE",
"-291 685 LINE",
"-311 686 OFFCURVE",
"-342 716 OFFCURVE",
"-381 775 CURVE",
"-421 747 LINE"
);
},
{
closed = 1;
nodes = (
"-255 664 LINE",
"-255 730 OFFCURVE",
"-242 756 OFFCURVE",
"-215 756 CURVE SMOOTH",
"-189 756 OFFCURVE",
"-176 731 OFFCURVE",
"-176 664 CURVE",
"-155 686 LINE",
"-166 677 OFFCURVE",
"-187 670 OFFCURVE",
"-215 670 CURVE SMOOTH",
"-244 670 OFFCURVE",
"-264 677 OFFCURVE",
"-276 686 CURVE"
);
},
{
closed = 1;
nodes = (
"-184 778 LINE",
"-194 930 LINE",
"-237 930 LINE",
"-247 778 LINE"
);
}
);
width = 0;
},
{
layerId = "61CE545B-E6AD-45B5-B051-8D1B01C68A7F";
paths = (
{
closed = 1;
nodes = (
"-418 673 OFFCURVE",
"-335 607 OFFCURVE",
"-215 607 CURVE SMOOTH",
"-95 607 OFFCURVE",
"-13 673 OFFCURVE",
"31 804 CURVE",
"-29 838 LINE",
"-74 768 OFFCURVE",
"-100 743 OFFCURVE",
"-122 737 CURVE",
"-98 710 LINE",
"-98 820 OFFCURVE",
"-135 882 OFFCURVE",
"-215 882 CURVE SMOOTH",
"-295 882 OFFCURVE",
"-333 822 OFFCURVE",
"-333 710 CURVE",
"-311 737 LINE",
"-332 743 OFFCURVE",
"-359 769 OFFCURVE",
"-402 838 CURVE",
"-461 805 LINE"
);
},
{
closed = 1;
nodes = (
"-257 700 LINE",
"-257 770 OFFCURVE",
"-243 796 OFFCURVE",
"-215 796 CURVE SMOOTH",
"-188 796 OFFCURVE",
"-174 771 OFFCURVE",
"-174 700 CURVE",
"-155 719 LINE",
"-166 712 OFFCURVE",
"-187 706 OFFCURVE",
"-215 706 CURVE SMOOTH",
"-244 706 OFFCURVE",
"-264 712 OFFCURVE",
"-276 719 CURVE"
);
},
{
closed = 1;
nodes = (
"-165 820 LINE",
"-187 990 LINE",
"-244 990 LINE",
"-266 820 LINE"
);
}
);
width = 0;
}
);
unicode = 1B01;
},
{
glyphname = uni1B02;
layers = (
{
layerId = "86689E10-1D55-4C8D-99A2-294733391E9C";
paths = (
{
closed = 1;
nodes = (
"-155 636 LINE",
"-155 671 OFFCURVE",
"-155 704 OFFCURVE",
"-158 733 CURVE SMOOTH",
"-163 785 OFFCURVE",
"-171 826 OFFCURVE",
"-183 856 CURVE SMOOTH",
"-201 899 OFFCURVE",
"-233 922 OFFCURVE",
"-275 922 CURVE SMOOTH",
"-293 922 OFFCURVE",
"-313 918 OFFCURVE",
"-335 909 CURVE",
"-332 872 LINE",
"-329 873 OFFCURVE",
"-318 875 OFFCURVE",
"-309 875 CURVE SMOOTH",
"-252 875 OFFCURVE",
"-218 795 OFFCURVE",
"-211 636 CURVE"
);
}
);
width = 0;
},
{
layerId = "61CE545B-E6AD-45B5-B051-8D1B01C68A7F";
paths = (
{
closed = 1;
nodes = (
"-122 636 LINE",
"-117 668 OFFCURVE",
"-115 696 OFFCURVE",
"-115 722 CURVE SMOOTH",
"-115 791 OFFCURVE",
"-128 843 OFFCURVE",
"-158 878 CURVE SMOOTH",
"-183 907 OFFCURVE",
"-217 922 OFFCURVE",
"-258 922 CURVE SMOOTH",
"-282 922 OFFCURVE",
"-306 917 OFFCURVE",
"-334 908 CURVE",
"-320 821 LINE",
"-314 822 OFFCURVE",
"-308 823 OFFCURVE",
"-300 823 CURVE SMOOTH",
"-237 823 OFFCURVE",
"-200 761 OFFCURVE",
"-193 636 CURVE"
);
}
);
width = 0;
}
);
unicode = 1B02;
},
{
glyphname = uni1B03;
layers = (
{
layerId = "86689E10-1D55-4C8D-99A2-294733391E9C";
paths = (
{
closed = 1;
nodes = (
"-15 679 LINE",
"-121 679 OFFCURVE",
"-198 700 OFFCURVE",
"-257 742 CURVE SMOOTH",
"-314 783 OFFCURVE",
"-354 845 OFFCURVE",
"-375 925 CURVE",
"-444 895 LINE",
"-422 804 OFFCURVE",
"-375 736 OFFCURVE",
"-304 691 CURVE SMOOTH",
"-232 646 OFFCURVE",
"-137 624 OFFCURVE",
"-15 624 CURVE"
);
}
);
width = 0;
},
{
layerId = "61CE545B-E6AD-45B5-B051-8D1B01C68A7F";
paths = (
{
closed = 1;
nodes = (
"-15 730 LINE",
"-120 732 OFFCURVE",
"-200 753 OFFCURVE",
"-257 794 CURVE SMOOTH",
"-314 835 OFFCURVE",
"-357 887 OFFCURVE",
"-387 950 CURVE",
"-482 895 LINE",
"-451 804 OFFCURVE",
"-395 738 OFFCURVE",
"-316 691 CURVE SMOOTH",
"-238 645 OFFCURVE",
"-137 624 OFFCURVE",
"-15 624 CURVE"
);
}
);
width = 0;
}
);
unicode = 1B03;
},
{
glyphname = uni1B04;
layers = (
{
layerId = "86689E10-1D55-4C8D-99A2-294733391E9C";
paths = (
{
closed = 1;
nodes = (
"83 389 LINE",
"112 445 OFFCURVE",
"146 474 OFFCURVE",
"180 474 CURVE SMOOTH",
"212 474 OFFCURVE",
"240 447 OFFCURVE",
"240 408 CURVE SMOOTH",
"240 355 OFFCURVE",
"188 320 OFFCURVE",
"72 316 CURVE",
"72 265 LINE",
"183 218 OFFCURVE",
"238 172 OFFCURVE",
"238 113 CURVE SMOOTH",
"238 74 OFFCURVE",
"216 17 OFFCURVE",
"181 -53 CURVE SMOOTH",
"145 -124 OFFCURVE",
"108 -201 OFFCURVE",
"108 -313 CURVE SMOOTH",
"108 -458 OFFCURVE",
"167 -585 OFFCURVE",
"250 -674 CURVE",
"286 -642 LINE",
"238 -563 OFFCURVE",
"192 -457 OFFCURVE",
"192 -333 CURVE SMOOTH",
"192 -219 OFFCURVE",
"231 -142 OFFCURVE",
"269 -66 CURVE SMOOTH",
"307 10 OFFCURVE",
"322 79 OFFCURVE",
"322 120 CURVE SMOOTH",
"322 185 OFFCURVE",
"279 239 OFFCURVE",
"201 281 CURVE",
"282 300 OFFCURVE",
"323 335 OFFCURVE",
"323 408 CURVE SMOOTH",
"323 496 OFFCURVE",
"265 546 OFFCURVE",
"185 546 CURVE SMOOTH",
"109 546 OFFCURVE",
"57 503 OFFCURVE",
"37 417 CURVE"
);
}
);
width = 379;
},
{
layerId = "61CE545B-E6AD-45B5-B051-8D1B01C68A7F";
paths = (
{
closed = 1;
nodes = (
"73 375 LINE",
"103 405 OFFCURVE",
"134 423 OFFCURVE",
"176 423 CURVE SMOOTH",
"213 423 OFFCURVE",
"230 409 OFFCURVE",
"230 389 CURVE SMOOTH",
"230 352 OFFCURVE",
"174 328 OFFCURVE",
"62 315 CURVE",
"62 214 LINE",
"150 178 OFFCURVE",
"194 137 OFFCURVE",
"194 79 CURVE SMOOTH",
"194 46 OFFCURVE",
"177 -14 OFFCURVE",
"162 -60 CURVE SMOOTH",
"132 -151 OFFCURVE",
"115 -222 OFFCURVE",
"115 -304 CURVE SMOOTH",
"115 -455 OFFCURVE",
"170 -583 OFFCURVE",
"271 -683 CURVE",
"340 -631 LINE",
"286 -552 OFFCURVE",
"259 -449 OFFCURVE",
"259 -322 CURVE SMOOTH",
"259 -227 OFFCURVE",
"275 -148 OFFCURVE",
"299 -79 CURVE SMOOTH",
"322 -13 OFFCURVE",
"336 41 OFFCURVE",
"336 87 CURVE SMOOTH",
"336 167 OFFCURVE",
"291 220 OFFCURVE",
"201 254 CURVE",
"306 265 OFFCURVE",
"363 326 OFFCURVE",
"363 405 CURVE SMOOTH",
"363 487 OFFCURVE",
"303 546 OFFCURVE",
"205 546 CURVE SMOOTH",
"124 546 OFFCURVE",
"54 505 OFFCURVE",
"15 419 CURVE"
);
}
);
width = 407;
}
);
unicode = 1B04;
script = "";
category = Letter;
subCategory = Spacing;
},
{
glyphname = uni1B0F;
layers = (
{
layerId = "86689E10-1D55-4C8D-99A2-294733391E9C";
paths = (
{
closed = 1;
nodes = (
"57 90 OFFCURVE",
"125 9 OFFCURVE",
"273 -10 CURVE",
"302 214 OFFCURVE",
"367 317 OFFCURVE",
"470 317 CURVE SMOOTH",
"597 317 OFFCURVE",
"643 158 OFFCURVE",
"669 -16 CURVE",
"730 -2 LINE",
"706 266 OFFCURVE",
"616 388 OFFCURVE",
"473 388 CURVE SMOOTH",
"330 388 OFFCURVE",
"235 265 OFFCURVE",
"214 19 CURVE",
"255 79 LINE",
"187 88 OFFCURVE",
"139 127 OFFCURVE",
"139 200 CURVE SMOOTH",
"139 378 OFFCURVE",
"415 488 OFFCURVE",
"639 490 CURVE",
"639 555 LINE",
"380 555 OFFCURVE",
"57 435 OFFCURVE",
"57 197 CURVE SMOOTH"
);
}
);
width = 768;
},
{
layerId = "61CE545B-E6AD-45B5-B051-8D1B01C68A7F";
paths = (
{
closed = 1;
nodes = (
"49 82 OFFCURVE",
"161 -2 OFFCURVE",
"272 -10 CURVE",
"326 90 OFFCURVE",
"384 185 OFFCURVE",
"476 185 CURVE SMOOTH",
"549 185 OFFCURVE",
"611 125 OFFCURVE",
"663 -17 CURVE",
"750 16 LINE",
"704 213 OFFCURVE",
"618 313 OFFCURVE",
"479 313 CURVE SMOOTH",
"358 313 OFFCURVE",
"286 237 OFFCURVE",
"219 109 CURVE",
"256 120 LINE",
"222 132 OFFCURVE",
"189 162 OFFCURVE",
"189 219 CURVE SMOOTH",
"189 354 OFFCURVE",
"377 428 OFFCURVE",
"639 447 CURVE",
"639 556 LINE",
"270 542 OFFCURVE",
"49 417 OFFCURVE",
"49 221 CURVE SMOOTH"
);
}
);
width = 768;
}
);
unicode = 1B0F;
},
{
glyphname = uni1B10;
layers = (
{
components = (
{
alignment = -1;
name = Nga.part;
transform = "{1, 0, 0, 1, -1, 0}";
}
);
layerId = "86689E10-1D55-4C8D-99A2-294733391E9C";
paths = (
{
closed = 1;
nodes = (
"156 -649 OFFCURVE",
"242 -752 OFFCURVE",
"365 -789 CURVE",
"388 -628 OFFCURVE",
"428 -489 OFFCURVE",
"531 -489 CURVE SMOOTH",
"609 -489 OFFCURVE",
"663 -568 OFFCURVE",
"709 -644 CURVE SMOOTH",
"765 -736 OFFCURVE",
"822 -829 OFFCURVE",
"943 -829 CURVE SMOOTH",
"1061 -829 OFFCURVE",
"1122 -737 OFFCURVE",
"1122 -584 CURVE SMOOTH",
"1122 557 LINE SMOOTH",
"1122 771 OFFCURVE",
"1066 846 OFFCURVE",
"979 846 CURVE SMOOTH",
"922 846 OFFCURVE",
"876 811 OFFCURVE",
"876 740 CURVE SMOOTH",
"876 660 OFFCURVE",
"938 600 OFFCURVE",
"1062 558 CURVE",
"1064 618 LINE",
"986 654 OFFCURVE",
"946 693 OFFCURVE",
"946 736 CURVE SMOOTH",
"946 763 OFFCURVE",
"961 774 OFFCURVE",
"978 774 CURVE SMOOTH",
"1016 774 OFFCURVE",
"1040 718 OFFCURVE",
"1044 606 CURVE",
"1041 599 LINE",
"1041 -578 LINE SMOOTH",
"1041 -693 OFFCURVE",
"1014 -753 OFFCURVE",
"940 -753 CURVE SMOOTH",
"899 -753 OFFCURVE",
"867 -733 OFFCURVE",
"822 -677 CURVE SMOOTH",
"806 -657 OFFCURVE",
"788 -632 OFFCURVE",
"770 -603 CURVE SMOOTH",
"741 -557 OFFCURVE",
"712 -512 OFFCURVE",
"680 -480 CURVE SMOOTH",
"639 -438 OFFCURVE",
"592 -413 OFFCURVE",
"531 -413 CURVE SMOOTH",
"411 -413 OFFCURVE",
"341 -514 OFFCURVE",
"306 -725 CURVE",
"329 -694 LINE",
"284 -658 OFFCURVE",
"238 -593 OFFCURVE",
"238 -500 CURVE SMOOTH",
"238 -391 OFFCURVE",
"301 -269 OFFCURVE",
"526 -176 CURVE SMOOTH",
"764 -78 OFFCURVE",
"906 -3 OFFCURVE",
"906 250 CURVE SMOOTH",
"906 312 LINE",
"825 312 LINE",
"825 255 LINE SMOOTH",
"825 87 OFFCURVE",
"779 11 OFFCURVE",
"511 -98 CURVE SMOOTH",
"257 -201 OFFCURVE",
"156 -336 OFFCURVE",
"156 -500 CURVE SMOOTH"
);
}
);
width = 1212;
},
{
components = (
{
alignment = -1;
name = Nga.part;
transform = "{1, 0, 0, 1, 4, 0}";
}
);
layerId = "61CE545B-E6AD-45B5-B051-8D1B01C68A7F";
paths = (
{
closed = 1;
nodes = (
"146 -681 OFFCURVE",
"265 -769 OFFCURVE",
"448 -810 CURVE",
"483 -600 OFFCURVE",
"523 -447 OFFCURVE",
"610 -447 CURVE SMOOTH",
"677 -447 OFFCURVE",
"728 -537 OFFCURVE",
"805 -678 CURVE SMOOTH",
"862 -782 OFFCURVE",
"922 -830 OFFCURVE",
"1006 -830 CURVE SMOOTH",
"1087 -830 OFFCURVE",
"1176 -786 OFFCURVE",
"1176 -613 CURVE SMOOTH",
"1176 586 LINE SMOOTH",
"1176 781 OFFCURVE",
"1088 846 OFFCURVE",
"989 846 CURVE SMOOTH",
"898 846 OFFCURVE",
"831 797 OFFCURVE",
"831 705 CURVE SMOOTH",
"831 604 OFFCURVE",
"913 546 OFFCURVE",
"1061 510 CURVE",
"1072 610 LINE",
"988 633 OFFCURVE",
"954 667 OFFCURVE",
"954 696 CURVE SMOOTH",
"954 714 OFFCURVE",
"967 732 OFFCURVE",
"992 732 CURVE SMOOTH",
"1031 732 OFFCURVE",
"1054 689 OFFCURVE",
"1054 543 CURVE",
"1039 525 LINE",
"1039 -612 LINE SMOOTH",
"1039 -680 OFFCURVE",
"1019 -703 OFFCURVE",
"996 -703 CURVE SMOOTH",
"979 -703 OFFCURVE",
"961 -690 OFFCURVE",
"939 -659 CURVE SMOOTH",
"920 -633 OFFCURVE",
"889 -582 OFFCURVE",
"860 -529 CURVE SMOOTH",
"835 -484 OFFCURVE",
"806 -441 OFFCURVE",
"797 -428 CURVE SMOOTH",
"752 -366 OFFCURVE",
"690 -319 OFFCURVE",
"611 -319 CURVE SMOOTH",
"468 -319 OFFCURVE",
"379 -467 OFFCURVE",
"351 -663 CURVE",
"409 -655 LINE",
"349 -634 OFFCURVE",
"286 -607 OFFCURVE",
"286 -519 CURVE SMOOTH",
"286 -445 OFFCURVE",
"329 -350 OFFCURVE",
"588 -223 CURVE SMOOTH",
"871 -84 OFFCURVE",
"977 -13 OFFCURVE",
"977 231 CURVE SMOOTH",
"977 263 LINE",
"840 263 LINE",
"840 218 LINE SMOOTH",
"840 55 OFFCURVE",
"736 -5 OFFCURVE",
"518 -110 CURVE SMOOTH",
"237 -245 OFFCURVE",
"146 -372 OFFCURVE",
"146 -521 CURVE SMOOTH"
);
}
);
width = 1255;
}
);
unicode = 1B10;
},
{
glyphname = uni1B11;
layers = (
{
components = (
{
alignment = -1;
name = Nga.part;
},
{
alignment = -1;
name = Okara.part;
transform = "{1, 0, 0, 1, 186, 0}";
}
);
layerId = "86689E10-1D55-4C8D-99A2-294733391E9C";
paths = (
{
closed = 1;
nodes = (
"314 -754 LINE",
"365 -803 LINE",
"404 -526 OFFCURVE",
"486 -399 OFFCURVE",
"613 -399 CURVE SMOOTH",
"772 -399 OFFCURVE",
"834 -594 OFFCURVE",
"871 -812 CURVE",
"938 -793 LINE",
"902 -468 OFFCURVE",
"790 -323 OFFCURVE",
"615 -323 CURVE SMOOTH",
"452 -323 OFFCURVE",
"350 -444 OFFCURVE",
"314 -694 CURVE"
);
}
);
width = 966;
},
{
components = (
{
alignment = -1;
name = Nga.part;
transform = "{1, 0, 0, 1, 3, 0}";
},
{
alignment = -1;
name = Okara.part;
transform = "{1, 0, 0, 1, -48, 0}";
}
);
layerId = "61CE545B-E6AD-45B5-B051-8D1B01C68A7F";
paths = (
{
closed = 1;
nodes = (
"356 -706 LINE",
"448 -803 LINE",
"468 -623 OFFCURVE",
"510 -457 OFFCURVE",
"647 -457 CURVE SMOOTH",
"782 -457 OFFCURVE",
"826 -615 OFFCURVE",
"859 -812 CURVE",
"955 -791 LINE",
"940 -508 OFFCURVE",
"855 -323 OFFCURVE",
"651 -323 CURVE SMOOTH",
"482 -323 OFFCURVE",
"387 -452 OFFCURVE",
"356 -618 CURVE"
);
}
);
width = 1039;
}
);
unicode = 1B11;
},
{
glyphname = uni1B13;
layers = (
{
components = (
{
alignment = -1;
name = uni1B13.part;
}
);
layerId = "86689E10-1D55-4C8D-99A2-294733391E9C";
paths = (
{
closed = 1;
nodes = (
"676 474 LINE",
"800 474 OFFCURVE",
"868 384 OFFCURVE",
"868 236 CURVE SMOOTH",
"868 0 LINE",
"949 0 LINE",
"949 466 LINE",
"991 466 LINE SMOOTH",
"1039 466 OFFCURVE",
"1064 440 OFFCURVE",
"1064 387 CURVE SMOOTH",
"1064 0 LINE",
"1145 0 LINE",
"1145 383 LINE SMOOTH",
"1145 485 OFFCURVE",
"1095 536 OFFCURVE",
"993 536 CURVE SMOOTH",
"880 536 LINE",
"880 442 LINE",
"855 502 OFFCURVE",
"785 546 OFFCURVE",
"677 546 CURVE",
"673 513 LINE"
);
}
);
width = 1205;
},
{
components = (
{
alignment = -1;
name = uni1B13.part;
}
);
layerId = "61CE545B-E6AD-45B5-B051-8D1B01C68A7F";
paths = (
{
closed = 1;
nodes = (
"806 418 LINE",
"896 418 OFFCURVE",
"953 357 OFFCURVE",
"953 238 CURVE SMOOTH",
"953 0 LINE",
"1090 0 LINE",
"1090 414 LINE",
"1138 414 LINE SMOOTH",
"1170 414 OFFCURVE",
"1186 395 OFFCURVE",
"1186 357 CURVE SMOOTH",
"1186 0 LINE",
"1323 0 LINE",
"1323 383 LINE SMOOTH",
"1323 485 OFFCURVE",
"1267 536 OFFCURVE",
"1154 536 CURVE SMOOTH",
"996 536 LINE",
"996 459 LINE",
"975 493 OFFCURVE",
"913 546 OFFCURVE",
"805 546 CURVE",
"774 489 LINE"
);
}
);
width = 1383;
}
);
unicode = 1B13;
},
{
glyphname = uni1B14;
layers = (
{
components = (
{
alignment = -1;
name = uni1B13.part;
}
);
layerId = "86689E10-1D55-4C8D-99A2-294733391E9C";
paths = (
{
closed = 1;
nodes = (
"1099 129 OFFCURVE",
"1019 66 OFFCURVE",
"967 66 CURVE SMOOTH",
"945 66 OFFCURVE",
"932 78 OFFCURVE",
"932 126 CURVE SMOOTH",
"932 252 LINE SMOOTH",
"932 446 OFFCURVE",
"847 543 OFFCURVE",
"677 546 CURVE",
"663 516 LINE",
"676 474 LINE",
"788 474 OFFCURVE",
"851 399 OFFCURVE",
"851 247 CURVE SMOOTH",
"851 135 LINE SMOOTH",
"851 34 OFFCURVE",
"888 -10 OFFCURVE",
"953 -10 CURVE SMOOTH",
"1027 -10 OFFCURVE",
"1110 51 OFFCURVE",
"1249 203 CURVE",
"1204 248 LINE"
);
}
);
width = 1252;
},
{
components = (
{
alignment = -1;
name = uni1B13.part;
}
);
layerId = "61CE545B-E6AD-45B5-B051-8D1B01C68A7F";
paths = (
{
closed = 1;
nodes = (
"1205 158 OFFCURVE",
"1147 129 OFFCURVE",
"1121 129 CURVE SMOOTH",
"1102 129 OFFCURVE",
"1092 144 OFFCURVE",
"1092 174 CURVE SMOOTH",
"1092 271 LINE SMOOTH",
"1092 447 OFFCURVE",
"990 546 OFFCURVE",
"805 546 CURVE",
"781 486 LINE",
"806 418 LINE",
"906 418 OFFCURVE",
"955 361 OFFCURVE",
"955 265 CURVE SMOOTH",
"955 156 LINE SMOOTH",
"955 52 OFFCURVE",
"1006 -1 OFFCURVE",
"1089 -1 CURVE SMOOTH",
"1176 -1 OFFCURVE",
"1255 54 OFFCURVE",
"1343 162 CURVE",
"1277 236 LINE"
);
}
);
width = 1334;
}
);
unicode = 1B14;
},
{
glyphname = uni1B15;
layers = (
{
components = (
{
alignment = -1;
name = uni1B15.part;
transform = "{1, 0, 0, 1, 9, 0}";
},
{
alignment = -1;
name = Nga.01.part;
transform = "{1, 0, 0, 1, -23, 0}";
}
);
layerId = "86689E10-1D55-4C8D-99A2-294733391E9C";
paths = (
{
closed = 1;
nodes = (
"275 144 OFFCURVE",
"306 63 OFFCURVE",
"337 0 CURVE",
"397 28 LINE",
"372 97 OFFCURVE",
"357 176 OFFCURVE",
"357 237 CURVE SMOOTH",
"357 363 OFFCURVE",
"414 474 OFFCURVE",
"541 474 CURVE SMOOTH",
"649 474 OFFCURVE",
"726 395 OFFCURVE",
"726 244 CURVE",
"745 277 LINE",
"745 429 LINE",
"707 496 OFFCURVE",
"644 546 OFFCURVE",
"538 546 CURVE SMOOTH",
"355 546 OFFCURVE",
"275 398 OFFCURVE",
"275 244 CURVE SMOOTH"
);
}
);
width = 1064;
},
{
components = (
{
alignment = -1;
name = uni1B15.part;
transform = "{1, 0, 0, 1, 15, 0}";
},
{
alignment = -1;
name = Nga.01.part;
transform = "{1, 0, 0, 1, 6, 0}";
}
);
layerId = "61CE545B-E6AD-45B5-B051-8D1B01C68A7F";
paths = (
{
closed = 1;
nodes = (
"332 175 OFFCURVE",
"350 74 OFFCURVE",
"376 0 CURVE",
"491 56 LINE",
"476 119 OFFCURVE",
"462 180 OFFCURVE",
"462 237 CURVE SMOOTH",
"462 353 OFFCURVE",
"519 418 OFFCURVE",
"616 418 CURVE SMOOTH",
"715 418 OFFCURVE",
"769 352 OFFCURVE",
"769 209 CURVE",
"841 275 LINE",
"841 387 LINE",
"821 491 OFFCURVE",
"723 546 OFFCURVE",
"605 546 CURVE SMOOTH",
"445 546 OFFCURVE",
"332 431 OFFCURVE",
"332 250 CURVE SMOOTH"
);
}
);
width = 1198;
}
);
unicode = 1B15;
},
{
glyphname = uni1B16;
layers = (
{
components = (
{
alignment = -1;
name = Nga.01.part;
transform = "{1, 0, 0, 1, -23, 0}";
},
{
alignment = -1;
name = uni1B25.part;
transform = "{1, 0, 0, 1, 367, 0}";
}
);
layerId = "86689E10-1D55-4C8D-99A2-294733391E9C";
paths = (
{
closed = 1;
nodes = (
"956 33 LINE",
"947 61 LINE",
"899 61 OFFCURVE",
"861 88 OFFCURVE",
"861 179 CURVE SMOOTH",
"861 205 LINE",
"785 205 LINE",
"785 133 LINE SMOOTH",
"785 89 OFFCURVE",
"766 61 OFFCURVE",
"725 61 CURVE SMOOTH",
"687 61 OFFCURVE",
"663 84 OFFCURVE",
"663 152 CURVE SMOOTH",
"663 405 LINE SMOOTH",
"663 501 OFFCURVE",
"593 546 OFFCURVE",
"507 546 CURVE SMOOTH",
"351 546 OFFCURVE",
"274 395 OFFCURVE",
"274 241 CURVE SMOOTH",
"274 142 OFFCURVE",
"306 61 OFFCURVE",
"337 0 CURVE",
"394 28 LINE",
"369 97 OFFCURVE",
"354 174 OFFCURVE",
"354 241 CURVE SMOOTH",
"354 363 OFFCURVE",
"405 474 OFFCURVE",
"504 474 CURVE SMOOTH",
"552 474 OFFCURVE",
"585 448 OFFCURVE",
"585 383 CURVE SMOOTH",
"585 143 LINE SMOOTH",
"585 38 OFFCURVE",
"635 -10 OFFCURVE",
"716 -10 CURVE SMOOTH",
"769 -10 OFFCURVE",
"810 11 OFFCURVE",
"826 67 CURVE",
"844 12 OFFCURVE",
"899 -10 OFFCURVE",
"949 -10 CURVE"
);
}
);
width = 1336;
},
{
components = (
{
alignment = -1;
name = Nga.01.part;
transform = "{1, 0, 0, 1, 6, 0}";
},
{
alignment = -1;
name = uni1B25.part;
transform = "{1, 0, 0, 1, 430, 0}";
}
);
layerId = "61CE545B-E6AD-45B5-B051-8D1B01C68A7F";
paths = (
{
closed = 1;
nodes = (
"1111 57 LINE",
"1087 118 LINE",
"1043 118 OFFCURVE",
"1016 146 OFFCURVE",
"1016 217 CURVE SMOOTH",
"1016 260 LINE",
"879 260 LINE",
"879 202 LINE SMOOTH",
"879 145 OFFCURVE",
"860 118 OFFCURVE",
"820 118 CURVE SMOOTH",
"776 118 OFFCURVE",
"753 149 OFFCURVE",
"753 214 CURVE SMOOTH",
"753 365 LINE SMOOTH",
"753 492 OFFCURVE",
"694.993 546 OFFCURVE",
"586 546 CURVE SMOOTH",
"435 546 OFFCURVE",
"336 438 OFFCURVE",
"336 252 CURVE SMOOTH",
"336 170 OFFCURVE",
"354 90 OFFCURVE",
"376 0 CURVE",
"496 58 LINE",
"478 121 OFFCURVE",
"465 182 OFFCURVE",
"465 240 CURVE SMOOTH",
"465 354 OFFCURVE",
"514 418 OFFCURVE",
"568 418 CURVE SMOOTH",
"601 418 OFFCURVE",
"616 394 OFFCURVE",
"616 334 CURVE SMOOTH",
"616 226 LINE SMOOTH",
"616 69 OFFCURVE",
"691 -10 OFFCURVE",
"808 -10 CURVE SMOOTH",
"881 -10 OFFCURVE",
"924 21 OFFCURVE",
"945 73 CURVE",
"969 19 OFFCURVE",
"1023 -10 OFFCURVE",
"1092 -10 CURVE"
);
}
);
width = 1584;
}
);
unicode = 1B16;
},
{
glyphname = uni1B17;
layers = (
{
components = (
{
alignment = -1;
name = Nga.part;
transform = "{1, 0, 0, 1, -1, 0}";
}
);
layerId = "86689E10-1D55-4C8D-99A2-294733391E9C";
paths = (
{
closed = 1;
nodes = (
"906 0 LINE",
"906 263 LINE",
"825 263 LINE",
"825 0 LINE"
);
}
);
width = 966;
},
{
components = (
{
alignment = -1;
name = Nga.part;
transform = "{1, 0, 0, 1, 4, 0}";
}
);
layerId = "61CE545B-E6AD-45B5-B051-8D1B01C68A7F";
paths = (
{
closed = 1;
nodes = (
"977 0 LINE",
"977 276 LINE",
"840 276 LINE",
"840 0 LINE"
);
}
);
width = 1037;
}
);
unicode = 1B17;
},
{
glyphname = uni1B18;
layers = (
{
components = (
{
alignment = -1;
name = uni1B18.part;
transform = "{1, 0, 0, 1, 3, 0}";
},
{
alignment = -1;
name = uni1B25.part;
transform = "{1, 0, 0, 1, 16, 0}";
}
);
layerId = "86689E10-1D55-4C8D-99A2-294733391E9C";
paths = (
{
closed = 1;
nodes = (
"403 99 LINE SMOOTH",
"474 37 OFFCURVE",
"528 -10 OFFCURVE",
"599 -10 CURVE",
"604 30 LINE",
"593 61 LINE",
"552 61 OFFCURVE",
"518 90 OFFCURVE",
"469 132 CURVE SMOOTH",
"336 244 LINE",
"321 170 LINE"
);
}
);
width = 985;
},
{
components = (
{
alignment = -1;
name = uni1B18.part;
},
{
alignment = -1;
name = uni1B25.part;
transform = "{1, 0, 0, 1, -22, 0}";
}
);
layerId = "61CE545B-E6AD-45B5-B051-8D1B01C68A7F";
paths = (
{
closed = 1;
nodes = (
"460 84 LINE SMOOTH",
"507 26 OFFCURVE",
"570 -10 OFFCURVE",
"640 -10 CURVE",
"667 63 LINE",
"635 118 LINE",
"590 118 OFFCURVE",
"552 141 OFFCURVE",
"486 215 CURVE SMOOTH",
"419 290 LINE",
"391 169 LINE"
);
}
);
width = 1132;
}
);
unicode = 1B18;
},
{
glyphname = uni1B19;
layers = (
{
components = (
{
alignment = -1;
name = uni1B32.part;
transform = "{-1, 0, 0, 1, 1208, 0}";
},
{
alignment = -1;
name = uni1B05.02.part;
transform = "{1, 0, 0, 1, 376, 0}";
}
);
layerId = "86689E10-1D55-4C8D-99A2-294733391E9C";
paths = (
{
closed = 1;
nodes = (
"824 170 LINE SMOOTH",
"824 87 OFFCURVE",
"779 69 OFFCURVE",
"721 69 CURVE SMOOTH",
"661 69 OFFCURVE",
"605 87 OFFCURVE",
"605 170 CURVE SMOOTH",
"605 230 LINE",
"524 230 LINE",
"524 177 LINE SMOOTH",
"524 35 OFFCURVE",
"596 -10 OFFCURVE",
"721 -10 CURVE SMOOTH",
"842 -10 OFFCURVE",
"905 34 OFFCURVE",
"905 168 CURVE SMOOTH",
"905 260 LINE",
"824 260 LINE"
);
}
);
width = 1157;
},
{
components = (
{
alignment = -1;
name = uni1B32.part;
transform = "{-1, 0, 0, 1, 1041, 0}";
},
{
alignment = -1;
name = uni1B05.02.part;
transform = "{1, 0, 0, 1, 376, 0}";
}
);
layerId = "61CE545B-E6AD-45B5-B051-8D1B01C68A7F";
paths = (
{
closed = 1;
nodes = (
"791 202 LINE SMOOTH",
"791 151 OFFCURVE",
"759 118 OFFCURVE",
"694 118 CURVE SMOOTH",
"631 118 OFFCURVE",
"600 151 OFFCURVE",
"600 202 CURVE SMOOTH",
"600 248 LINE",
"463 248 LINE",
"463 208 LINE SMOOTH",
"463 68 OFFCURVE",
"540 -10 OFFCURVE",
"694 -10 CURVE SMOOTH",
"851 -10 OFFCURVE",
"928 69 OFFCURVE",
"928 209 CURVE SMOOTH",
"928 249 LINE",
"791 249 LINE"
);
}
);
width = 1221;
}
);
unicode = 1B19;
},
{
glyphname = uni1B1A;
layers = (
{
components = (
{
alignment = -1;
name = Nga.01.part;
}
);
layerId = "86689E10-1D55-4C8D-99A2-294733391E9C";
paths = (
{
closed = 1;
nodes = (
"305 162 OFFCURVE",
"365 89 OFFCURVE",
"443 60 CURVE",
"467 70 LINE",
"358 70 LINE",
"353 31 LINE",
"359 0 LINE",
"524 0 LINE",
"544 66 LINE",
"442 121 OFFCURVE",
"378 179 OFFCURVE",
"378 293 CURVE SMOOTH",
"378 394 OFFCURVE",
"428 473 OFFCURVE",
"559 473 CURVE SMOOTH",
"621 473 OFFCURVE",
"663 455 OFFCURVE",
"663 411 CURVE SMOOTH",
"663 369 OFFCURVE",
"623 330 OFFCURVE",
"460 301 CURVE",
"460 204 LINE",
"583 204 OFFCURVE",
"676 186 OFFCURVE",
"676 86 CURVE SMOOTH",
"676 0 LINE",
"757 0 LINE",
"757 84 LINE SMOOTH",
"757 203 OFFCURVE",
"681 255 OFFCURVE",
"525 255 CURVE",
"525 258 LINE",
"675 281 OFFCURVE",
"748 335 OFFCURVE",
"748 419 CURVE SMOOTH",
"748 502 OFFCURVE",
"678 545 OFFCURVE",
"565 545 CURVE SMOOTH",
"393 545 OFFCURVE",
"305 444 OFFCURVE",
"305 289 CURVE SMOOTH"
);
}
);
width = 817;
},
{
components = (
{
alignment = -1;
name = Nga.01.part;
transform = "{1, 0, 0, 1, 16, 0}";
}
);
layerId = "61CE545B-E6AD-45B5-B051-8D1B01C68A7F";
paths = (
{
closed = 1;
nodes = (
"359 215 OFFCURVE",
"394 150 OFFCURVE",
"457 78 CURVE",
"463 128 LINE",
"398 128 LINE",
"373 70 LINE",
"386 0 LINE",
"542 0 LINE",
"568 102 LINE",
"532 137 OFFCURVE",
"489 204 OFFCURVE",
"489 277 CURVE SMOOTH",
"489 372 OFFCURVE",
"562 418 OFFCURVE",
"670 418 CURVE SMOOTH",
"726 418 OFFCURVE",
"761 406 OFFCURVE",
"761 382 CURVE SMOOTH",
"761 345 OFFCURVE",
"679 313 OFFCURVE",
"574 298 CURVE",
"574 192 LINE",
"746 178 OFFCURVE",
"777 128 OFFCURVE",
"777 48 CURVE SMOOTH",
"777 0 LINE",
"914 0 LINE",
"914 72 LINE SMOOTH",
"914 205 OFFCURVE",
"832 243 OFFCURVE",
"715 248 CURVE",
"715 255 LINE",
"834 269 OFFCURVE",
"902 317 OFFCURVE",
"902 400 CURVE SMOOTH",
"902 500 OFFCURVE",
"801 546 OFFCURVE",
"673 546 CURVE SMOOTH",
"478 546 OFFCURVE",
"359 442 OFFCURVE",
"359 295 CURVE SMOOTH"
);
}
);
width = 974;
}
);
unicode = 1B1A;
},
{
glyphname = uni1B1B;
layers = (
{
components = (
{
alignment = -1;
name = uni1B10;
}
);
layerId = "86689E10-1D55-4C8D-99A2-294733391E9C";
paths = (
{
closed = 1;
nodes = (
"1078 552 LINE",
"1095 546 OFFCURVE",
"1111 544 OFFCURVE",
"1125 544 CURVE SMOOTH",
"1203 544 OFFCURVE",
"1245 622 OFFCURVE",
"1264 706 CURVE",
"1213 725 LINE",
"1193 654 OFFCURVE",
"1167 606 OFFCURVE",
"1123 606 CURVE SMOOTH",
"1114 606 OFFCURVE",
"1104 608 OFFCURVE",
"1094 612 CURVE"
);
}
);
width = 1213;
},
{
components = (
{
alignment = -1;
name = uni1B10;
}
);
layerId = "61CE545B-E6AD-45B5-B051-8D1B01C68A7F";
paths = (
{
closed = 1;
nodes = (
"1133 499 LINE",
"1147 496 OFFCURVE",
"1161 495 OFFCURVE",
"1173 495 CURVE SMOOTH",
"1280 495 OFFCURVE",
"1332 582 OFFCURVE",
"1356 712 CURVE",
"1286 730 LINE",
"1253 648 OFFCURVE",
"1221 599 OFFCURVE",
"1167 599 CURVE SMOOTH",
"1159 599 OFFCURVE",
"1150 599 OFFCURVE",
"1142 600 CURVE"
);
}
);
width = 1255;
}
);
unicode = 1B1B;
},
{
glyphname = uni1B1D;
layers = (
{
components = (
{
alignment = -1;
name = uni1B1E;
transform = "{1, 0, 0, 1, 3, 0}";
}
);
layerId = "86689E10-1D55-4C8D-99A2-294733391E9C";
paths = (
{
closed = 1;
nodes = (
"335 -87 OFFCURVE",
"372 -140 OFFCURVE",
"444 -140 CURVE SMOOTH",
"483 -140 OFFCURVE",
"531 -125 OFFCURVE",
"583 -93 CURVE",
"559 -37 LINE",
"514 -58 OFFCURVE",
"483 -68 OFFCURVE",
"458 -68 CURVE SMOOTH",
"409 -68 OFFCURVE",
"398 -31 OFFCURVE",
"402 30 CURVE",
"335 14 LINE"
);
}
);
width = 858;
},
{
components = (
{
alignment = -1;
name = uni1B1E;
transform = "{1, 0, 0, 1, -27, 0}";
}
);
layerId = "61CE545B-E6AD-45B5-B051-8D1B01C68A7F";
paths = (
{
closed = 1;
nodes = (
"298 -72 OFFCURVE",
"347 -140 OFFCURVE",
"445 -140 CURVE SMOOTH",
"497 -140 OFFCURVE",
"552 -119 OFFCURVE",
"611 -78 CURVE",
"576 1 LINE",
"531 -20 OFFCURVE",
"491 -33 OFFCURVE",
"459 -33 CURVE SMOOTH",
"422 -33 OFFCURVE",
"406 -16 OFFCURVE",
"414 16 CURVE",
"294 32 LINE"
);
}
);
width = 1013;
}
);
unicode = 1B1D;
},
{
glyphname = uni1B1E;
layers = (
{
components = (
{
alignment = -1;
name = uni1B1D.part;
transform = "{1, 0, 0, 1, 3, 0}";
},
{
alignment = -1;
name = Nga.01.part;
}
);
layerId = "86689E10-1D55-4C8D-99A2-294733391E9C";
paths = (
{
closed = 1;
nodes = (
"417 140 OFFCURVE",
"440 176 OFFCURVE",
"474 176 CURVE SMOOTH",
"491 176 OFFCURVE",
"502 167 OFFCURVE",
"502 149 CURVE SMOOTH",
"502 118 OFFCURVE",
"469 82 OFFCURVE",
"406 66 CURVE"
);
},
{
closed = 1;
nodes = (
"359 0 LINE",
"488 0 OFFCURVE",
"569 67 OFFCURVE",
"569 151 CURVE SMOOTH",
"569 200 OFFCURVE",
"542 241 OFFCURVE",
"482 241 CURVE SMOOTH",
"386 241 OFFCURVE",
"337 135 OFFCURVE",
"337 14 CURVE"
);
}
);
width = 858;
},
{
components = (
{
alignment = -1;
name = uni1B1D.part;
transform = "{1, 0, 0, 1, -26, 0}";
},
{
alignment = -1;
name = Nga.01.part;
transform = "{1, 0, 0, 1, 3, 0}";
}
);
layerId = "61CE545B-E6AD-45B5-B051-8D1B01C68A7F";
paths = (
{
closed = 1;
nodes = (
"450 131 OFFCURVE",
"470 153 OFFCURVE",
"499 153 CURVE SMOOTH",
"516 153 OFFCURVE",
"524 143 OFFCURVE",
"524 134 CURVE SMOOTH",
"524 116 OFFCURVE",
"493 111 OFFCURVE",
"445 114 CURVE"
);
},
{
closed = 1;
nodes = (
"373 0 LINE",
"532 0 OFFCURVE",
"632 42 OFFCURVE",
"632 138 CURVE SMOOTH",
"632 200 OFFCURVE",
"589 241 OFFCURVE",
"513 241 CURVE SMOOTH",
"418 241 OFFCURVE",
"325 175 OFFCURVE",
"325 32 CURVE"
);
}
);
width = 1040;
}
);
unicode = 1B1E;
},
{
glyphname = uni1B1F;
layers = (
{
components = (
{
alignment = -1;
name = uni1B20.part;
transform = "{1, 0, 0, 1, -1, 0}";
},
{
alignment = -1;
name = uni1B05.02.part;
transform = "{1, 0, 0, 1, 191, 0}";
}
);
layerId = "86689E10-1D55-4C8D-99A2-294733391E9C";
paths = (
{
closed = 1;
nodes = (
"324 -10 LINE",
"384 -10 OFFCURVE",
"428 19 OFFCURVE",
"441 72 CURVE",
"457 14 OFFCURVE",
"507 -10 OFFCURVE",
"565 -10 CURVE SMOOTH",
"666 -10 OFFCURVE",
"720 53 OFFCURVE",
"720 180 CURVE SMOOTH",
"720 265 LINE",
"639 265 LINE",
"639 160 LINE SMOOTH",
"639 91 OFFCURVE",
"610 62 OFFCURVE",
"565 62 CURVE SMOOTH",
"519 62 OFFCURVE",
"484 93 OFFCURVE",
"484 170 CURVE SMOOTH",
"484 208 LINE",
"403 208 LINE",
"403 166 LINE SMOOTH",
"403 92 OFFCURVE",
"375 62 OFFCURVE",
"326 62 CURVE",
"313 28 LINE"
);
}
);
width = 972;
},
{
components = (
{
alignment = -1;
name = uni1B20.part;
transform = "{1, 0, 0, 1, -46, 0}";
},
{
alignment = -1;
name = uni1B05.02.part;
transform = "{1, 0, 0, 1, 262, 0}";
}
);
layerId = "61CE545B-E6AD-45B5-B051-8D1B01C68A7F";
paths = (
{
closed = 1;
nodes = (
"335 -10 LINE",
"428 -10 OFFCURVE",
"462 27 OFFCURVE",
"483 72 CURVE",
"511 17 OFFCURVE",
"559 -10 OFFCURVE",
"634 -10 CURVE SMOOTH",
"742 -10 OFFCURVE",
"814 50 OFFCURVE",
"814 170 CURVE SMOOTH",
"814 252 LINE",
"677 252 LINE",
"677 205 LINE SMOOTH",
"677 142 OFFCURVE",
"655 116 OFFCURVE",
"616 116 CURVE SMOOTH",
"576 116 OFFCURVE",
"550 142 OFFCURVE",
"550 204 CURVE SMOOTH",
"550 260 LINE",
"413 260 LINE",
"413 220 LINE SMOOTH",
"413 146 OFFCURVE",
"388 117 OFFCURVE",
"347 117 CURVE",
"328 55 LINE"
);
}
);
width = 1107;
}
);
unicode = 1B1F;
},
{
glyphname = uni1B20;
layers = (
{
components = (
{
alignment = -1;
name = uni1B20.part;
transform = "{1, 0, 0, 1, -6, 0}";
}
);
layerId = "86689E10-1D55-4C8D-99A2-294733391E9C";
paths = (
{
closed = 1;
nodes = (
"319 -10 LINE",
"382 -10 OFFCURVE",
"433 14 OFFCURVE",
"449 66 CURVE",
"463 18 OFFCURVE",
"513 -10 OFFCURVE",
"577 -10 CURVE SMOOTH",
"668 -10 OFFCURVE",
"749 48 OFFCURVE",
"749 172 CURVE SMOOTH",
"749 269 OFFCURVE",
"702 412 OFFCURVE",
"537 549 CURVE",
"473 496 LINE",
"624 381 OFFCURVE",
"667 259 OFFCURVE",
"667 177 CURVE SMOOTH",
"667 90 OFFCURVE",
"621 62 OFFCURVE",
"576 62 CURVE SMOOTH",
"535 62 OFFCURVE",
"488 85 OFFCURVE",
"488 163 CURVE SMOOTH",
"488 196 LINE",
"407 196 LINE",
"407 156 LINE SMOOTH",
"407 89 OFFCURVE",
"373 62 OFFCURVE",
"321 62 CURVE",
"312 27 LINE"
);
}
);
width = 764;
},
{
components = (
{
alignment = -1;
name = uni1B20.part;
transform = "{1, 0, 0, 1, -46, 0}";
}
);
layerId = "61CE545B-E6AD-45B5-B051-8D1B01C68A7F";
paths = (
{
closed = 1;
nodes = (
"335 -10 LINE",
"423 -10 OFFCURVE",
"461 33 OFFCURVE",
"477 73 CURVE",
"502 17 OFFCURVE",
"556 -10 OFFCURVE",
"631 -10 CURVE SMOOTH",
"747 -10 OFFCURVE",
"823 55 OFFCURVE",
"823 186 CURVE SMOOTH",
"823 339 OFFCURVE",
"722 467 OFFCURVE",
"598 557 CURVE",
"492 469 LINE",
"602 392 OFFCURVE",
"683 305 OFFCURVE",
"683 198 CURVE SMOOTH",
"683 141 OFFCURVE",
"659 118 OFFCURVE",
"618 118 CURVE SMOOTH",
"579 118 OFFCURVE",
"546 139 OFFCURVE",
"546 201 CURVE SMOOTH",
"546 250 LINE",
"409 250 LINE",
"409 212 LINE SMOOTH",
"409 148 OFFCURVE",
"388 118 OFFCURVE",
"347 118 CURVE",
"314 54 LINE"
);
}
);
width = 882;
}
);
unicode = 1B20;
},
{
glyphname = uni1B21;
layers = (
{
components = (
{
alignment = -1;
name = uni1B15.part;
transform = "{1, 0, 0, 1, 32, 0}";
}
);
layerId = "86689E10-1D55-4C8D-99A2-294733391E9C";
paths = (
{
closed = 1;
nodes = (
"54 280 OFFCURVE",
"120 209 OFFCURVE",
"254 158 CURVE",
"305 207 LINE",
"281 263 OFFCURVE",
"275 316 OFFCURVE",
"275 355 CURVE SMOOTH",
"275 432 OFFCURVE",
"301 474 OFFCURVE",
"353 474 CURVE SMOOTH",
"408 474 OFFCURVE",
"438 427 OFFCURVE",
"446 330 CURVE",
"520 330 LINE",
"526 425 OFFCURVE",
"568 474 OFFCURVE",
"624 474 CURVE SMOOTH",
"697 474 OFFCURVE",
"749 392 OFFCURVE",
"749 265 CURVE",
"778 390 LINE",
"759 496 OFFCURVE",
"707 546 OFFCURVE",
"621 546 CURVE SMOOTH",
"556 546 OFFCURVE",
"508 516 OFFCURVE",
"485 432 CURVE",
"473 509 OFFCURVE",
"428 546 OFFCURVE",
"358 546 CURVE SMOOTH",
"262 546 OFFCURVE",
"203 478 OFFCURVE",
"203 371 CURVE SMOOTH",
"203 324 OFFCURVE",
"214 283 OFFCURVE",
"232 237 CURVE",
"166 276 OFFCURVE",
"132 323 OFFCURVE",
"132 393 CURVE SMOOTH",
"132 428 OFFCURVE",
"141 475 OFFCURVE",
"155 531 CURVE",
"92 546 LINE",
"68 491 OFFCURVE",
"54 441 OFFCURVE",
"54 391 CURVE SMOOTH"
);
}
);
width = 1087;
},
{
components = (
{
alignment = -1;
name = uni1B15.part;
transform = "{1, 0, 0, 1, -41, 0}";
}
);
layerId = "61CE545B-E6AD-45B5-B051-8D1B01C68A7F";
paths = (
{
closed = 1;
nodes = (
"33 232 OFFCURVE",
"135 119 OFFCURVE",
"324 114 CURVE",
"397 227 LINE",
"360 270 OFFCURVE",
"339 302 OFFCURVE",
"339 348 CURVE SMOOTH",
"339 392 OFFCURVE",
"364 418 OFFCURVE",
"398 418 CURVE SMOOTH",
"435 418 OFFCURVE",
"455 389 OFFCURVE",
"458 336 CURVE",
"558 336 LINE",
"565 390 OFFCURVE",
"587 418 OFFCURVE",
"631 418 CURVE SMOOTH",
"690 418 OFFCURVE",
"712 367 OFFCURVE",
"712 247 CURVE",
"781 311 LINE",
"773 499 OFFCURVE",
"706 546 OFFCURVE",
"631 546 CURVE SMOOTH",
"576 546 OFFCURVE",
"525 522 OFFCURVE",
"510 460 CURVE",
"484 510 OFFCURVE",
"446 546 OFFCURVE",
"369 546 CURVE SMOOTH",
"273 546 OFFCURVE",
"211 489 OFFCURVE",
"211 382 CURVE SMOOTH",
"211 323 OFFCURVE",
"228 275 OFFCURVE",
"263 240 CURVE",
"197 265 OFFCURVE",
"165 322 OFFCURVE",
"165 401 CURVE SMOOTH",
"165 437 OFFCURVE",
"172 478 OFFCURVE",
"188 521 CURVE",
"68 546 LINE",
"44 488 OFFCURVE",
"33 434 OFFCURVE",
"33 385 CURVE SMOOTH"
);
}
);
width = 1142;
}
);
unicode = 1B21;
},
{
glyphname = uni1B24;
layers = (
{
components = (
{
alignment = -1;
name = uni1B24.01.part;
transform = "{1, 0, 0, 1, 3, 0}";
}
);
layerId = "86689E10-1D55-4C8D-99A2-294733391E9C";
paths = (
{
closed = 1;
nodes = (
"626 474 LINE",
"755 474 OFFCURVE",
"820 396 OFFCURVE",
"820 247 CURVE SMOOTH",
"820 0 LINE",
"901 0 LINE",
"901 253 LINE SMOOTH",
"901 444 OFFCURVE",
"805 546 OFFCURVE",
"631 546 CURVE",
"620 516 LINE"
);
}
);
width = 961;
},
{
components = (
{
alignment = -1;
name = uni1B24.01.part;
transform = "{1, 0, 0, 1, -28, 0}";
}
);
layerId = "61CE545B-E6AD-45B5-B051-8D1B01C68A7F";
paths = (
{
closed = 1;
nodes = (
"660 418 LINE",
"736 418 OFFCURVE",
"812 385 OFFCURVE",
"812 266 CURVE SMOOTH",
"812 0 LINE",
"949 0 LINE",
"949 265 LINE SMOOTH",
"949 461 OFFCURVE",
"834 546 OFFCURVE",
"662 546 CURVE",
"648 474 LINE"
);
}
);
width = 1009;
}
);
unicode = 1B24;
},
{
glyphname = uni1B25;
layers = (
{
components = (
{
alignment = -1;
name = uni1B20.part;
transform = "{1, 0, 0, 1, -13, 0}";
},
{
alignment = -1;
name = uni1B25.part;
transform = "{1, 0, 0, 1, -13, 0}";
}
);
layerId = "86689E10-1D55-4C8D-99A2-294733391E9C";
paths = (
{
closed = 1;
nodes = (
"312 -10 LINE",
"375 -10 OFFCURVE",
"430 12 OFFCURVE",
"446 67 CURVE",
"469 12 OFFCURVE",
"512 -10 OFFCURVE",
"568 -10 CURVE",
"574 32 LINE",
"564 61 LINE",
"518 61 OFFCURVE",
"480 86 OFFCURVE",
"480 166 CURVE SMOOTH",
"480 208 LINE",
"404 208 LINE",
"404 156 LINE SMOOTH",
"404 85 OFFCURVE",
"371 62 OFFCURVE",
"313 62 CURVE",
"302 37 LINE"
);
}
);
width = 956;
},
{
components = (
{
alignment = -1;
name = uni1B20.part;
transform = "{1, 0, 0, 1, -36, 0}";
},
{
alignment = -1;
name = uni1B25.part;
transform = "{1, 0, 0, 1, -47, 0}";
}
);
layerId = "61CE545B-E6AD-45B5-B051-8D1B01C68A7F";
paths = (
{
closed = 1;
nodes = (
"345 -10 LINE",
"430 -10 OFFCURVE",
"467 33 OFFCURVE",
"480 73 CURVE",
"497 20 OFFCURVE",
"553 -10 OFFCURVE",
"615 -10 CURVE",
"642 57 LINE",
"610 118 LINE",
"579 118 OFFCURVE",
"548 133 OFFCURVE",
"548 213 CURVE SMOOTH",
"548 260 LINE",
"411 260 LINE",
"411 214 LINE SMOOTH",
"411 136 OFFCURVE",
"394 118 OFFCURVE",
"357 118 CURVE",
"324 52 LINE"
);
}
);
width = 1107;
}
);
unicode = 1B25;
},
{
glyphname = uni1B27;
layers = (
{
components = (
{
alignment = -1;
name = Nga.01.part;
},
{
alignment = -1;
name = uni1B05.02.part;
transform = "{1, 0, 0, 1, 81, 0}";
}
);
layerId = "86689E10-1D55-4C8D-99A2-294733391E9C";
paths = (
{
closed = 1;
nodes = (
"359 0 LINE",
"423 0 LINE SMOOTH",
"547 0 OFFCURVE",
"610 70 OFFCURVE",
"610 210 CURVE SMOOTH",
"610 275 LINE",
"529 275 LINE",
"529 219 LINE SMOOTH",
"529 119 OFFCURVE",
"496 70 OFFCURVE",
"427 70 CURVE SMOOTH",
"357 70 LINE",
"348 36 LINE"
);
}
);
width = 862;
},
{
components = (
{
alignment = -1;
name = Nga.01.part;
transform = "{1, 0, 0, 1, 3, 0}";
},
{
alignment = -1;
name = uni1B05.02.part;
transform = "{1, 0, 0, 1, 84, 0}";
}
);
layerId = "61CE545B-E6AD-45B5-B051-8D1B01C68A7F";
paths = (
{
closed = 1;
nodes = (
"373 0 LINE",
"377 0 LINE SMOOTH",
"553 0 OFFCURVE",
"636 78 OFFCURVE",
"636 229 CURVE SMOOTH",
"636 256 LINE",
"499 256 LINE",
"499 231 LINE SMOOTH",
"499 163 OFFCURVE",
"460 128 OFFCURVE",
"390 128 CURVE SMOOTH",
"385 128 LINE",
"366 66 LINE"
);
}
);
width = 929;
}
);
unicode = 1B27;
},
{
glyphname = uni1B28;
layers = (
{
components = (
{
alignment = -1;
name = uni1B20.part;
transform = "{1, 0, 0, 1, 6, 0}";
}
);
layerId = "86689E10-1D55-4C8D-99A2-294733391E9C";
paths = (
{
closed = 1;
nodes = (
"331 -10 LINE",
"392 -10 OFFCURVE",
"446 13 OFFCURVE",
"459 67 CURVE",
"480 11 OFFCURVE",
"537 -10 OFFCURVE",
"591 -10 CURVE SMOOTH",
"706 -10 OFFCURVE",
"770 83 OFFCURVE",
"770 229 CURVE SMOOTH",
"770 420 OFFCURVE",
"669 546 OFFCURVE",
"558 546 CURVE SMOOTH",
"497 546 OFFCURVE",
"448 505 OFFCURVE",
"448 433 CURVE SMOOTH",
"448 334 OFFCURVE",
"552 268 OFFCURVE",
"693 268 CURVE",
"683 335 LINE",
"576 341 OFFCURVE",
"520 380 OFFCURVE",
"520 428 CURVE SMOOTH",
"520 457 OFFCURVE",
"540 473 OFFCURVE",
"563 473 CURVE SMOOTH",
"605 473 OFFCURVE",
"688 419 OFFCURVE",
"688 246 CURVE SMOOTH",
"688 162 OFFCURVE",
"674 62 OFFCURVE",
"587 62 CURVE SMOOTH",
"543 62 OFFCURVE",
"493 90 OFFCURVE",
"493 168 CURVE SMOOTH",
"493 208 LINE",
"417 208 LINE",
"417 155 LINE SMOOTH",
"417 85 OFFCURVE",
"387 62 OFFCURVE",
"332 62 CURVE",
"321 37 LINE"
);
}
);
width = 830;
},
{
components = (
{
alignment = -1;
name = uni1B20.part;
transform = "{1, 0, 0, 1, -47, 0}";
}
);
layerId = "61CE545B-E6AD-45B5-B051-8D1B01C68A7F";
paths = (
{
closed = 1;
nodes = (
"334 -10 LINE",
"421 -10 OFFCURVE",
"457 33 OFFCURVE",
"477 73 CURVE",
"502 21 OFFCURVE",
"556 -10 OFFCURVE",
"627 -10 CURVE SMOOTH",
"744 -10 OFFCURVE",
"834 74 OFFCURVE",
"834 250 CURVE SMOOTH",
"834 438 OFFCURVE",
"729 552 OFFCURVE",
"609 552 CURVE SMOOTH",
"524 552 OFFCURVE",
"465 496 OFFCURVE",
"465 430 CURVE SMOOTH",
"465 345 OFFCURVE",
"563 281 OFFCURVE",
"722 272 CURVE",
"722 362 LINE",
"598 371 OFFCURVE",
"575 404 OFFCURVE",
"575 426 CURVE SMOOTH",
"575 439 OFFCURVE",
"583 449 OFFCURVE",
"604 449 CURVE SMOOTH",
"643 449 OFFCURVE",
"703 415 OFFCURVE",
"703 266 CURVE SMOOTH",
"703 155 OFFCURVE",
"666 117 OFFCURVE",
"620 117 CURVE SMOOTH",
"591 117 OFFCURVE",
"546 132 OFFCURVE",
"546 199 CURVE SMOOTH",
"546 260 LINE",
"409 260 LINE",
"409 216 LINE SMOOTH",
"409 137 OFFCURVE",
"384 118 OFFCURVE",
"346 118 CURVE",
"313 52 LINE"
);
}
);
width = 896;
}
);
unicode = 1B28;
},
{
glyphname = uni1B29;
layers = (
{
components = (
{
alignment = -1;
name = uni1B15.part;
transform = "{1, 0, 0, 1, 150, 0}";
},
{
alignment = -1;
name = Nga.01.part;
}
);
layerId = "86689E10-1D55-4C8D-99A2-294733391E9C";
paths = (
{
closed = 1;
nodes = (
"305 195 OFFCURVE",
"362 119 OFFCURVE",
"425 50 CURVE",
"452 70 LINE",
"358 70 LINE",
"349 40 LINE",
"359 0 LINE",
"508 0 LINE",
"528 50 LINE",
"446 121 OFFCURVE",
"388 210 OFFCURVE",
"388 313 CURVE SMOOTH",
"388 391 OFFCURVE",
"419 474 OFFCURVE",
"488 474 CURVE SMOOTH",
"537 474 OFFCURVE",
"570 432 OFFCURVE",
"577 349 CURVE",
"647 349 LINE",
"658 432 OFFCURVE",
"688 474 OFFCURVE",
"745 474 CURVE SMOOTH",
"825 474 OFFCURVE",
"867 388 OFFCURVE",
"867 243 CURVE",
"908 313 LINE",
"903 431 OFFCURVE",
"856 546 OFFCURVE",
"742 546 CURVE SMOOTH",
"686 546 OFFCURVE",
"633 518 OFFCURVE",
"617 456 CURVE",
"599 515 OFFCURVE",
"550 546 OFFCURVE",
"481 546 CURVE SMOOTH",
"368 546 OFFCURVE",
"305 459 OFFCURVE",
"305 323 CURVE SMOOTH"
);
}
);
width = 1205;
},
{
components = (
{
alignment = -1;
name = uni1B15.part;
transform = "{1, 0, 0, 1, 124, 0}";
},
{
alignment = -1;
name = Nga.01.part;
transform = "{1, 0, 0, 1, 6, 0}";
}
);
layerId = "61CE545B-E6AD-45B5-B051-8D1B01C68A7F";
paths = (
{
closed = 1;
nodes = (
"359 233 OFFCURVE",
"392 157 OFFCURVE",
"448 108 CURVE",
"470 128 LINE",
"389 128 LINE",
"367 67 LINE",
"376 0 LINE",
"567 0 LINE",
"587 88 LINE",
"533 148 OFFCURVE",
"486 227 OFFCURVE",
"486 316 CURVE SMOOTH",
"486 379 OFFCURVE",
"509 418 OFFCURVE",
"552 418 CURVE SMOOTH",
"590 418 OFFCURVE",
"614 387 OFFCURVE",
"621 311 CURVE",
"715 311 LINE",
"722 389 OFFCURVE",
"751 418 OFFCURVE",
"793 418 CURVE SMOOTH",
"851 418 OFFCURVE",
"878 365 OFFCURVE",
"878 210 CURVE",
"939 303 LINE",
"939 468 OFFCURVE",
"897 546 OFFCURVE",
"793 546 CURVE SMOOTH",
"736 546 OFFCURVE",
"696 521 OFFCURVE",
"670 478 CURVE",
"641 524 OFFCURVE",
"598 546 OFFCURVE",
"537 546 CURVE SMOOTH",
"412 546 OFFCURVE",
"359 449 OFFCURVE",
"359 327 CURVE SMOOTH"
);
}
);
width = 1307;
}
);
unicode = 1B29;
},
{
glyphname = uni1B2A;
layers = (
{
components = (
{
alignment = -1;
name = uni1B64;
transform = "{0.95106, 0.30902, -0.30902, 0.95106, 36, 45}";
}
);
layerId = "86689E10-1D55-4C8D-99A2-294733391E9C";
paths = (
{
closed = 1;
nodes = (
"79 27 OFFCURVE",
"121 -10 OFFCURVE",
"173 -10 CURVE SMOOTH",
"212 -10 OFFCURVE",
"257 10 OFFCURVE",
"367 111 CURVE",
"348 175 LINE",
"233 78 OFFCURVE",
"212 63 OFFCURVE",
"188 63 CURVE SMOOTH",
"158 63 OFFCURVE",
"145 86 OFFCURVE",
"145 132 CURVE SMOOTH",
"145 163 OFFCURVE",
"150 201 OFFCURVE",
"161 244 CURVE",
"108 249 LINE",
"92 209 OFFCURVE",
"79 162 OFFCURVE",
"79 112 CURVE SMOOTH"
);
},
{
closed = 1;
nodes = (
"329 115 OFFCURVE",
"388 -10 OFFCURVE",
"495 -10 CURVE SMOOTH",
"559 -10 OFFCURVE",
"600 34 OFFCURVE",
"600 103 CURVE SMOOTH",
"600 176 OFFCURVE",
"555 221 OFFCURVE",
"479 221 CURVE SMOOTH",
"444 221 OFFCURVE",
"416 210 OFFCURVE",
"395 198 CURVE",
"406 134 LINE",
"424 146 OFFCURVE",
"452 156 OFFCURVE",
"475 156 CURVE SMOOTH",
"509 156 OFFCURVE",
"527 134 OFFCURVE",
"527 105 CURVE SMOOTH",
"527 79 OFFCURVE",
"513 62 OFFCURVE",
"490 62 CURVE SMOOTH",
"443 62 OFFCURVE",
"404 136 OFFCURVE",
"404 245 CURVE SMOOTH",
"404 373 OFFCURVE",
"460 474 OFFCURVE",
"598 474 CURVE SMOOTH",
"720 474 OFFCURVE",
"784 396 OFFCURVE",
"784 247 CURVE SMOOTH",
"784 0 LINE",
"865 0 LINE",
"865 253 LINE SMOOTH",
"865 444 OFFCURVE",
"770 546 OFFCURVE",
"600 546 CURVE SMOOTH",
"414 546 OFFCURVE",
"329 426 OFFCURVE",
"329 255 CURVE SMOOTH"
);
}
);
width = 925;
},
{
components = (
{
alignment = -1;
name = uni1B64;
transform = "{0.95106, 0.30902, -0.30902, 0.95106, -6, 35}";
}
);
layerId = "61CE545B-E6AD-45B5-B051-8D1B01C68A7F";
paths = (
{
closed = 1;
nodes = (
"51 35 OFFCURVE",
"120 -10 OFFCURVE",
"198 -10 CURVE SMOOTH",
"300 -10 OFFCURVE",
"425 64 OFFCURVE",
"504 152 CURVE",
"440 216 LINE",
"358 144 OFFCURVE",
"292 112 OFFCURVE",
"236 112 CURVE SMOOTH",
"203 112 OFFCURVE",
"176 123 OFFCURVE",
"176 160 CURVE SMOOTH",
"176 184 OFFCURVE",
"188 215 OFFCURVE",
"206 246 CURVE",
"121 303 LINE",
"78 252 OFFCURVE",
"51 184 OFFCURVE",
"51 126 CURVE SMOOTH"
);
},
{
closed = 1;
nodes = (
"357 121 OFFCURVE",
"432 -10 OFFCURVE",
"576 -10 CURVE SMOOTH",
"666 -10 OFFCURVE",
"724 43 OFFCURVE",
"724 126 CURVE SMOOTH",
"724 209 OFFCURVE",
"664 274 OFFCURVE",
"588 274 CURVE SMOOTH",
"549 274 OFFCURVE",
"512 257 OFFCURVE",
"465 221 CURVE",
"507 137 LINE",
"525 155 OFFCURVE",
"547 168 OFFCURVE",
"570 168 CURVE SMOOTH",
"596 168 OFFCURVE",
"612 151 OFFCURVE",
"612 129 CURVE SMOOTH",
"612 108 OFFCURVE",
"598 98 OFFCURVE",
"581 98 CURVE SMOOTH",
"542 98 OFFCURVE",
"491 150 OFFCURVE",
"491 253 CURVE SMOOTH",
"491 367 OFFCURVE",
"559 418 OFFCURVE",
"651 418 CURVE SMOOTH",
"726 418 OFFCURVE",
"804 385 OFFCURVE",
"804 266 CURVE SMOOTH",
"804 0 LINE",
"940 0 LINE",
"940 265 LINE SMOOTH",
"940 461 OFFCURVE",
"818 546 OFFCURVE",
"656 546 CURVE SMOOTH",
"474 546 OFFCURVE",
"357 431 OFFCURVE",
"357 259 CURVE SMOOTH"
);
}
);
width = 1000;
}
);
unicode = 1B2A;
},
{
glyphname = uni1B2D;
layers = (
{
components = (
{
alignment = -1;
name = uni1B26.part;
transform = "{1, 0, 0, 1, -134, 0}";
}
);
layerId = "86689E10-1D55-4C8D-99A2-294733391E9C";
paths = (
{
closed = 1;
nodes = (
"377 273 OFFCURVE",
"404 203 OFFCURVE",
"404 152 CURVE SMOOTH",
"404 92 OFFCURVE",
"367 61 OFFCURVE",
"303 61 CURVE SMOOTH",
"258 61 OFFCURVE",
"205 76 OFFCURVE",
"135 114 CURVE",
"144 76 LINE",
"262 160 OFFCURVE",
"346 259 OFFCURVE",
"346 394 CURVE SMOOTH",
"346 491 OFFCURVE",
"287 546 OFFCURVE",
"211 546 CURVE SMOOTH",
"152 546 OFFCURVE",
"97 513 OFFCURVE",
"63 441 CURVE",
"107 406 LINE",
"140 451 OFFCURVE",
"174 474 OFFCURVE",
"208 474 CURVE SMOOTH",
"247 474 OFFCURVE",
"274 444 OFFCURVE",
"274 386 CURVE SMOOTH",
"274 294 OFFCURVE",
"208 201 OFFCURVE",
"76 100 CURVE",
"76 67 LINE",
"154 14 OFFCURVE",
"243 -10 OFFCURVE",
"317 -10 CURVE SMOOTH",
"431 -10 OFFCURVE",
"485 47 OFFCURVE",
"485 139 CURVE SMOOTH",
"485 207 OFFCURVE",
"455 308 OFFCURVE",
"377 426 CURVE",
"368 380 LINE",
"411 437 OFFCURVE",
"477 474 OFFCURVE",
"558 474 CURVE",
"567 511 LINE",
"559 546 LINE",
"442 546 OFFCURVE",
"361 488 OFFCURVE",
"313 424 CURVE",
"327 363 LINE"
);
}
);
width = 882;
},
{
components = (
{
alignment = -1;
name = uni1B26.part;
transform = "{1, 0, 0, 1, -100, 0}";
}
);
layerId = "61CE545B-E6AD-45B5-B051-8D1B01C68A7F";
paths = (
{
closed = 1;
nodes = (
"357 284 OFFCURVE",
"398 229 OFFCURVE",
"398 174 CURVE SMOOTH",
"398 129 OFFCURVE",
"371 115 OFFCURVE",
"323 115 CURVE SMOOTH",
"273 115 OFFCURVE",
"223 130 OFFCURVE",
"183 149 CURVE",
"210 110 LINE",
"317 187 OFFCURVE",
"362 278 OFFCURVE",
"362 377 CURVE SMOOTH",
"362 491 OFFCURVE",
"299 546 OFFCURVE",
"212 546 CURVE SMOOTH",
"129 546 OFFCURVE",
"70 494 OFFCURVE",
"30 421 CURVE",
"98 360 LINE",
"126 402 OFFCURVE",
"153 423 OFFCURVE",
"188 423 CURVE SMOOTH",
"228 423 OFFCURVE",
"251 400 OFFCURVE",
"251 355 CURVE SMOOTH",
"251 276 OFFCURVE",
"181 189 OFFCURVE",
"64 141 CURVE",
"64 56 LINE",
"134 18 OFFCURVE",
"236 -10 OFFCURVE",
"336 -10 CURVE SMOOTH",
"452 -10 OFFCURVE",
"531 28 OFFCURVE",
"531 148 CURVE SMOOTH",
"531 250 OFFCURVE",
"473 339 OFFCURVE",
"428 384 CURVE",
"412 342 LINE",
"447 389 OFFCURVE",
"509 418 OFFCURVE",
"583 418 CURVE",
"600 477 LINE",
"583 546 LINE",
"444 546 OFFCURVE",
"364 479 OFFCURVE",
"301 427 CURVE",
"307 328 LINE"
);
}
);
width = 930;
}
);
unicode = 1B2D;
},
{
glyphname = uni1B2E;
layers = (
{
components = (
{
alignment = -1;
name = Nga.01.part;
transform = "{1, 0, 0, 1, -23, 0}";
},
{
alignment = -1;
name = uni1B05.02.part;
transform = "{1, 0, 0, 1, 433, 0}";
}
);
layerId = "86689E10-1D55-4C8D-99A2-294733391E9C";
paths = (
{
closed = 1;
nodes = (
"881 143 LINE SMOOTH",
"881 89 OFFCURVE",
"847 62 OFFCURVE",
"779 62 CURVE SMOOTH",
"710 62 OFFCURVE",
"676 89 OFFCURVE",
"676 143 CURVE SMOOTH",
"676 364 LINE SMOOTH",
"676 469 OFFCURVE",
"626 546 OFFCURVE",
"508 546 CURVE SMOOTH",
"347 546 OFFCURVE",
"273 399 OFFCURVE",
"273 244 CURVE SMOOTH",
"273 139 OFFCURVE",
"306 53 OFFCURVE",
"337 0 CURVE",
"393 29 LINE",
"367 98 OFFCURVE",
"352 178 OFFCURVE",
"352 238 CURVE SMOOTH",
"352 363 OFFCURVE",
"419 474 OFFCURVE",
"509 474 CURVE SMOOTH",
"569 474 OFFCURVE",
"595 422 OFFCURVE",
"595 368 CURVE SMOOTH",
"595 156 LINE SMOOTH",
"595 46 OFFCURVE",
"656 -10 OFFCURVE",
"779 -10 CURVE SMOOTH",
"901 -10 OFFCURVE",
"962 42 OFFCURVE",
"962 144 CURVE SMOOTH",
"962 259 LINE",
"881 259 LINE"
);
}
);
width = 1214;
},
{
components = (
{
alignment = -1;
name = Nga.01.part;
transform = "{1, 0, 0, 1, 6, 0}";
},
{
alignment = -1;
name = uni1B05.02.part;
transform = "{1, 0, 0, 1, 527, 0}";
}
);
layerId = "61CE545B-E6AD-45B5-B051-8D1B01C68A7F";
paths = (
{
closed = 1;
nodes = (
"942 217 LINE SMOOTH",
"942 151 OFFCURVE",
"910 118 OFFCURVE",
"845 118 CURVE SMOOTH",
"782 118 OFFCURVE",
"750 151 OFFCURVE",
"750 217 CURVE SMOOTH",
"750 352 LINE SMOOTH",
"750 494 OFFCURVE",
"692 546 OFFCURVE",
"588 546 CURVE SMOOTH",
"432 546 OFFCURVE",
"347 429 OFFCURVE",
"347 259 CURVE SMOOTH",
"347 212 OFFCURVE",
"353 152 OFFCURVE",
"376 0 CURVE",
"503 51 LINE",
"485 113 OFFCURVE",
"473 181 OFFCURVE",
"473 246 CURVE SMOOTH",
"473 339 OFFCURVE",
"499 418 OFFCURVE",
"561 418 CURVE SMOOTH",
"596 418 OFFCURVE",
"613 393 OFFCURVE",
"613 333 CURVE SMOOTH",
"613 222 LINE SMOOTH",
"613 67 OFFCURVE",
"690 -10 OFFCURVE",
"845 -10 CURVE SMOOTH",
"1002 -10 OFFCURVE",
"1079 67 OFFCURVE",
"1079 224 CURVE SMOOTH",
"1079 259 LINE",
"942 259 LINE"
);
}
);
width = 1372;
}
);
unicode = 1B2E;
},
{
glyphname = uni1B2F;
layers = (
{
layerId = "86689E10-1D55-4C8D-99A2-294733391E9C";
paths = (
{
closed = 1;
nodes = (
"106 332 LINE",
"120 420 OFFCURVE",
"147 473 OFFCURVE",
"194 473 CURVE SMOOTH",
"205 473 OFFCURVE",
"216 471 OFFCURVE",
"229 465 CURVE",
"218 503 LINE",
"165 395 OFFCURVE",
"139 265 OFFCURVE",
"139 188 CURVE SMOOTH",
"139 43 OFFCURVE",
"241 -10 OFFCURVE",
"392 -10 CURVE SMOOTH",
"602 -10 OFFCURVE",
"649 101 OFFCURVE",
"649 189 CURVE SMOOTH",
"649 320 OFFCURVE",
"545 406 OFFCURVE",
"406 408 CURVE",
"399 389 LINE",
"451 440 OFFCURVE",
"517 474 OFFCURVE",
"583 474 CURVE SMOOTH",
"675 474 OFFCURVE",
"730 406 OFFCURVE",
"730 297 CURVE SMOOTH",
"730 0 LINE",
"811 0 LINE",
"811 301 LINE SMOOTH",
"811 472 OFFCURVE",
"713 546 OFFCURVE",
"588 546 CURVE SMOOTH",
"471 546 OFFCURVE",
"380 479 OFFCURVE",
"322 406 CURVE",
"319 359 LINE",
"518 349 OFFCURVE",
"571 270 OFFCURVE",
"571 191 CURVE SMOOTH",
"571 140 OFFCURVE",
"549 62 OFFCURVE",
"398 62 CURVE SMOOTH",
"294 62 OFFCURVE",
"220 93 OFFCURVE",
"220 201 CURVE SMOOTH",
"220 264 OFFCURVE",
"245 383 OFFCURVE",
"296 504 CURVE",
"283 529 OFFCURVE",
"245 546 OFFCURVE",
"197 546 CURVE SMOOTH",
"107 546 OFFCURVE",
"49 480 OFFCURVE",
"49 337 CURVE"
);
}
);
width = 871;
},
{
layerId = "61CE545B-E6AD-45B5-B051-8D1B01C68A7F";
paths = (
{
closed = 1;
nodes = (
"114 281 LINE",
"131 393 OFFCURVE",
"157 447 OFFCURVE",
"197 447 CURVE SMOOTH",
"209 447 OFFCURVE",
"228 441 OFFCURVE",
"244 433 CURVE",
"223 461 LINE",
"174 367 OFFCURVE",
"141 277 OFFCURVE",
"141 191 CURVE SMOOTH",
"141 53 OFFCURVE",
"223 -10 OFFCURVE",
"385 -10 CURVE SMOOTH",
"533 -10 OFFCURVE",
"682 42 OFFCURVE",
"682 177 CURVE SMOOTH",
"682 288 OFFCURVE",
"582 341 OFFCURVE",
"446 379 CURVE",
"471 315 LINE",
"503 370 OFFCURVE",
"553 418 OFFCURVE",
"631 418 CURVE SMOOTH",
"697 418 OFFCURVE",
"768 384 OFFCURVE",
"768 268 CURVE SMOOTH",
"768 0 LINE",
"905 0 LINE",
"905 281 LINE SMOOTH",
"905 459 OFFCURVE",
"790 546 OFFCURVE",
"639 546 CURVE SMOOTH",
"482 546 OFFCURVE",
"399 451 OFFCURVE",
"357 366 CURVE",
"357 302 LINE",
"447 269 OFFCURVE",
"541 233 OFFCURVE",
"541 182 CURVE SMOOTH",
"541 139 OFFCURVE",
"479 118 OFFCURVE",
"392 118 CURVE SMOOTH",
"302 118 OFFCURVE",
"275 143 OFFCURVE",
"275 213 CURVE SMOOTH",
"275 281 OFFCURVE",
"300 384 OFFCURVE",
"347 492 CURVE",
"316 518 OFFCURVE",
"275 546 OFFCURVE",
"207 546 CURVE SMOOTH",
"74 546 OFFCURVE",
"34 447 OFFCURVE",
"34 286 CURVE"
);
}
);
width = 965;
}
);
unicode = 1B2F;
},
{
glyphname = uni1B31;
layers = (
{
components = (
{
alignment = -1;
name = uni1B0B.part;
transform = "{1, 0, 0, 1, -6, 0}";
},
{
alignment = -1;
name = uni1B05.02.part;
transform = "{1, 0, 0, 1, 71, 0}";
}
);
layerId = "86689E10-1D55-4C8D-99A2-294733391E9C";
paths = (
{
closed = 1;
nodes = (
"292 152 LINE",
"303 159 OFFCURVE",
"317 166 OFFCURVE",
"333 166 CURVE SMOOTH",
"384 166 OFFCURVE",
"441 98 OFFCURVE",
"503 -40 CURVE",
"555 -19 LINE",
"505 105 OFFCURVE",
"437 233 OFFCURVE",
"355 233 CURVE SMOOTH",
"325 233 OFFCURVE",
"301 216 OFFCURVE",
"273 191 CURVE"
);
}
);
width = 852;
},
{
components = (
{
alignment = -1;
name = uni1B0B.part;
transform = "{1, 0, 0, 1, -27, 0}";
},
{
alignment = -1;
name = uni1B05.02.part;
transform = "{1, 0, 0, 1, 119, 0}";
}
);
layerId = "61CE545B-E6AD-45B5-B051-8D1B01C68A7F";
paths = (
{
closed = 1;
nodes = (
"354 179 LINE",
"361 183 OFFCURVE",
"375 190 OFFCURVE",
"391 190 CURVE SMOOTH",
"439 190 OFFCURVE",
"486 127 OFFCURVE",
"544 -44 CURVE",
"604 -19 LINE",
"558 141 OFFCURVE",
"500 281 OFFCURVE",
"410 281 CURVE SMOOTH",
"377 281 OFFCURVE",
"346 262 OFFCURVE",
"319 241 CURVE"
);
}
);
width = 964;
}
);
unicode = 1B31;
},
{
glyphname = uni1B32;
layers = (
{
components = (
{
alignment = -1;
name = uni1B05.02.part;
transform = "{1, 0, 0, 1, 201, 0}";
},
{
alignment = -1;
name = uni1B18.part;
}
);
layerId = "86689E10-1D55-4C8D-99A2-294733391E9C";
paths = (
{
closed = 1;
nodes = (
"406 85 LINE SMOOTH",
"465 37 OFFCURVE",
"523 -10 OFFCURVE",
"600 -10 CURVE SMOOTH",
"674 -10 OFFCURVE",
"730 33 OFFCURVE",
"730 150 CURVE SMOOTH",
"730 257 LINE",
"649 257 LINE",
"649 147 LINE SMOOTH",
"649 87 OFFCURVE",
"627 63 OFFCURVE",
"589 63 CURVE SMOOTH",
"545 63 OFFCURVE",
"504 96 OFFCURVE",
"421 163 CURVE SMOOTH",
"311 251 LINE",
"315 159 LINE"
);
}
);
width = 982;
},
{
components = (
{
alignment = -1;
name = uni1B05.02.part;
transform = "{1, 0, 0, 1, 201, 0}";
},
{
alignment = -1;
name = uni1B18.part;
}
);
layerId = "61CE545B-E6AD-45B5-B051-8D1B01C68A7F";
paths = (
{
closed = 1;
nodes = (
"456 79 LINE SMOOTH",
"498 36 OFFCURVE",
"543 -10 OFFCURVE",
"619 -10 CURVE SMOOTH",
"696 -10 OFFCURVE",
"753 36 OFFCURVE",
"753 170 CURVE SMOOTH",
"753 285 LINE",
"616 285 LINE",
"616 190 LINE SMOOTH",
"616 129 OFFCURVE",
"610 118 OFFCURVE",
"595 118 CURVE SMOOTH",
"568 118 OFFCURVE",
"538 150 OFFCURVE",
"485 207 CURVE SMOOTH",
"387 312 LINE",
"355 183 LINE"
);
}
);
width = 1046;
}
);
unicode = 1B32;
},
{
glyphname = uni1B33;
layers = (
{
components = (
{
alignment = -1;
name = uni1B15.part;
transform = "{1, 0, 0, 1, 43, 0}";
},
{
alignment = -1;
name = uni1B20.part;
transform = "{1, 0, 0, 1, 6, 0}";
}
);
layerId = "86689E10-1D55-4C8D-99A2-294733391E9C";
paths = (
{
closed = 1;
nodes = (
"331 -10 LINE",
"466 -10 OFFCURVE",
"537 68 OFFCURVE",
"537 212 CURVE SMOOTH",
"537 387 LINE SMOOTH",
"537 447 OFFCURVE",
"570 474 OFFCURVE",
"617 474 CURVE SMOOTH",
"705 474 OFFCURVE",
"760 378 OFFCURVE",
"760 282 CURVE",
"777 433 LINE",
"751 505 OFFCURVE",
"692 546 OFFCURVE",
"610 546 CURVE SMOOTH",
"521 546 OFFCURVE",
"458 498 OFFCURVE",
"458 385 CURVE SMOOTH",
"458 222 LINE SMOOTH",
"458 116 OFFCURVE",
"424 62 OFFCURVE",
"332 62 CURVE",
"301 34 LINE"
);
}
);
width = 1098;
},
{
components = (
{
alignment = -1;
name = uni1B15.part;
transform = "{1, 0, 0, 1, -10, 0}";
},
{
alignment = -1;
name = uni1B20.part;
transform = "{1, 0, 0, 1, -47, 0}";
}
);
layerId = "61CE545B-E6AD-45B5-B051-8D1B01C68A7F";
paths = (
{
closed = 1;
nodes = (
"334 -10 LINE",
"483 -10 OFFCURVE",
"580 35 OFFCURVE",
"580 210 CURVE SMOOTH",
"580 335 LINE SMOOTH",
"580 396 OFFCURVE",
"612 418 OFFCURVE",
"644 418 CURVE SMOOTH",
"698 418 OFFCURVE",
"743 356 OFFCURVE",
"743 240 CURVE",
"828 379 LINE",
"788 495 OFFCURVE",
"706 546 OFFCURVE",
"621 546 CURVE SMOOTH",
"532 546 OFFCURVE",
"444 490 OFFCURVE",
"444 323 CURVE SMOOTH",
"444 210 LINE SMOOTH",
"444 136 OFFCURVE",
"405 118 OFFCURVE",
"346 118 CURVE",
"326 58 LINE"
);
}
);
width = 1173;
}
);
unicode = 1B33;
},
{
glyphname = uni1B35;
layers = (
{
layerId = "86689E10-1D55-4C8D-99A2-294733391E9C";
paths = (
{
closed = 1;
nodes = (
"60 364 LINE",
"133 429 OFFCURVE",
"206 474 OFFCURVE",
"291 474 CURVE SMOOTH",
"416 474 OFFCURVE",
"481 385 OFFCURVE",
"481 256 CURVE SMOOTH",
"481 140 OFFCURVE",
"430 62 OFFCURVE",
"334 62 CURVE SMOOTH",
"267 62 OFFCURVE",
"225 99 OFFCURVE",
"199 156 CURVE",
"137 133 LINE",
"164 46 OFFCURVE",
"231 -10 OFFCURVE",
"336 -10 CURVE SMOOTH",
"475 -10 OFFCURVE",
"563 94 OFFCURVE",
"563 256 CURVE SMOOTH",
"563 425 OFFCURVE",
"464 546 OFFCURVE",
"300 546 CURVE SMOOTH",
"199 546 OFFCURVE",
"114 500 OFFCURVE",
"28 418 CURVE"
);
}
);
width = 590;
},
{
layerId = "61CE545B-E6AD-45B5-B051-8D1B01C68A7F";
paths = (
{
closed = 1;
nodes = (
"90 345 LINE",
"163 390 OFFCURVE",
"236 421 OFFCURVE",
"298 421 CURVE SMOOTH",
"386 421 OFFCURVE",
"442 359 OFFCURVE",
"442 257 CURVE SMOOTH",
"442 160 OFFCURVE",
"389 116 OFFCURVE",
"332 116 CURVE SMOOTH",
"301 116 OFFCURVE",
"259 129 OFFCURVE",
"224 181 CURVE",
"130 114 LINE",
"181 20 OFFCURVE",
"264 -10 OFFCURVE",
"339 -10 CURVE SMOOTH",
"472 -10 OFFCURVE",
"582 80 OFFCURVE",
"582 256 CURVE SMOOTH",
"582 442 OFFCURVE",
"465 546 OFFCURVE",
"304 546 CURVE SMOOTH",
"209 546 OFFCURVE",
"123 510 OFFCURVE",
"36 439 CURVE"
);
}
);
width = 623;
}
);
unicode = 1B35;
category = Letter;
subCategory = Spacing;
},
{
glyphname = uni1B36;
layers = (
{
layerId = "86689E10-1D55-4C8D-99A2-294733391E9C";
paths = (
{
closed = 1;
nodes = (
"-478 646 OFFCURVE",
"-416 623 OFFCURVE",
"-348 620 CURVE",
"-326 670 LINE",
"-379 700 OFFCURVE",
"-408 735 OFFCURVE",
"-408 784 CURVE SMOOTH",
"-408 829 OFFCURVE",
"-383 857 OFFCURVE",
"-337 857 CURVE SMOOTH",
"-283 857 OFFCURVE",
"-253 819 OFFCURVE",
"-253 739 CURVE SMOOTH",
"-253 717 OFFCURVE",
"-255 687 OFFCURVE",
"-260 641 CURVE",
"-208 631 LINE",
"-195 690 OFFCURVE",
"-189 736 OFFCURVE",
"-189 771 CURVE SMOOTH",
"-189 875 OFFCURVE",
"-243 926 OFFCURVE",
"-334 926 CURVE SMOOTH",
"-421 926 OFFCURVE",
"-477 878 OFFCURVE",
"-477 801 CURVE SMOOTH",
"-477 757 OFFCURVE",
"-457 712 OFFCURVE",
"-398 674 CURVE",
"-399 671 LINE",
"-435 683 OFFCURVE",
"-468 702 OFFCURVE",
"-496 726 CURVE",
"-524 689 LINE"
);
}
);
width = 0;
},
{
layerId = "61CE545B-E6AD-45B5-B051-8D1B01C68A7F";
paths = (
{
closed = 1;
nodes = (
"-534 644 OFFCURVE",
"-467 624 OFFCURVE",
"-411 611 CURVE",
"-378 687 LINE",
"-406 707 OFFCURVE",
"-425 738 OFFCURVE",
"-425 767 CURVE SMOOTH",
"-425 804 OFFCURVE",
"-395 827 OFFCURVE",
"-357 827 CURVE SMOOTH",
"-309 827 OFFCURVE",
"-284 791 OFFCURVE",
"-284 726 CURVE SMOOTH",
"-284 702 OFFCURVE",
"-287 674 OFFCURVE",
"-291 639 CURVE",
"-210 630 LINE",
"-195 684 OFFCURVE",
"-188 728 OFFCURVE",
"-188 762 CURVE SMOOTH",
"-188 867 OFFCURVE",
"-253 929 OFFCURVE",
"-358 929 CURVE SMOOTH",
"-451 929 OFFCURVE",
"-515 883 OFFCURVE",
"-515 802 CURVE SMOOTH",
"-515 762 OFFCURVE",
"-491 724 OFFCURVE",
"-459 700 CURVE",
"-462 696 LINE",
"-498 715 OFFCURVE",
"-525 735 OFFCURVE",
"-541 750 CURVE",
"-580 682 LINE"
);
}
);
width = 0;
}
);
unicode = 1B36;
},
{
glyphname = uni1B37;
layers = (
{
components = (
{
alignment = -1;
name = uni1B36;
transform = "{1, 0, 0, 1, -34, 0}";
}
);
layerId = "86689E10-1D55-4C8D-99A2-294733391E9C";
paths = (
{
closed = 1;
nodes = (
"-410 785 LINE",
"-387 768 OFFCURVE",
"-370 739 OFFCURVE",
"-355 698 CURVE",
"-310 715 LINE",
"-321 753 OFFCURVE",
"-341 801 OFFCURVE",
"-367 820 CURVE"
);
}
);
width = 0;
},
{
components = (
{
alignment = -1;
name = uni1B36;
transform = "{1, 0, 0, 1, 4, 0}";
}
);
layerId = "61CE545B-E6AD-45B5-B051-8D1B01C68A7F";
paths = (
{
closed = 1;
nodes = (
"-392 753 LINE",
"-374 737 OFFCURVE",
"-352 705 OFFCURVE",
"-339 668 CURVE",
"-300 682 LINE",
"-308 719 OFFCURVE",
"-322 759 OFFCURVE",
"-354 788 CURVE"
);
}
);
width = 0;
}
);
unicode = 1B37;
},
{
glyphname = uni1B38;
layers = (
{
layerId = "86689E10-1D55-4C8D-99A2-294733391E9C";
paths = (
{
closed = 1;
nodes = (
"-134 -723 OFFCURVE",
"-147 -757 OFFCURVE",
"-184 -757 CURVE SMOOTH",
"-203 -757 OFFCURVE",
"-241 -748 OFFCURVE",
"-241 -677 CURVE SMOOTH",
"-241 -631 OFFCURVE",
"-225 -569 OFFCURVE",
"-173 -411 CURVE SMOOTH",
"-118 -244 LINE",
"-118 -97 LINE",
"-241 -404 LINE SMOOTH",
"-287 -519 OFFCURVE",
"-316 -609 OFFCURVE",
"-316 -686 CURVE SMOOTH",
"-316 -794 OFFCURVE",
"-255 -829 OFFCURVE",
"-184 -829 CURVE SMOOTH",
"-98 -829 OFFCURVE",
"-60 -775 OFFCURVE",
"-60 -676 CURVE SMOOTH",
"-60 16 LINE",
"-141 16 LINE",
"-141 -269 LINE",
"-123 -269 LINE",
"-128 -296 OFFCURVE",
"-134 -334 OFFCURVE",
"-134 -388 CURVE SMOOTH",
"-134 -666 LINE SMOOTH"
);
}
);
width = 0;
},
{
layerId = "61CE545B-E6AD-45B5-B051-8D1B01C68A7F";
paths = (
{
closed = 1;
nodes = (
"-186 -689 OFFCURVE",
"-211 -706 OFFCURVE",
"-239 -706 CURVE SMOOTH",
"-268 -706 OFFCURVE",
"-293 -688 OFFCURVE",
"-293 -621 CURVE SMOOTH",
"-293 -561 OFFCURVE",
"-272 -476 OFFCURVE",
"-203 -333 CURVE SMOOTH",
"-131 -185 LINE",
"-145 -36 LINE",
"-256 -209 LINE SMOOTH",
"-395 -426 OFFCURVE",
"-425 -542 OFFCURVE",
"-425 -625 CURVE SMOOTH",
"-425 -759 OFFCURVE",
"-343 -829 OFFCURVE",
"-234 -829 CURVE SMOOTH",
"-145 -829 OFFCURVE",
"-60 -782 OFFCURVE",
"-60 -600 CURVE SMOOTH",
"-60 16 LINE",
"-197 16 LINE",
"-197 -264 LINE",
"-161 -264 LINE",
"-176 -319 OFFCURVE",
"-186 -367 OFFCURVE",
"-186 -432 CURVE SMOOTH",
"-186 -593 LINE SMOOTH"
);
}
);
width = 0;
}
);
unicode = 1B38;
},
{
glyphname = uni1B39;
layers = (
{
layerId = "86689E10-1D55-4C8D-99A2-294733391E9C";
paths = (
{
closed = 1;
nodes = (
"-294 -829 LINE",
"-194 -753 OFFCURVE",
"-84 -643 OFFCURVE",
"-84 -528 CURVE SMOOTH",
"-84 -462 OFFCURVE",
"-112 -415 OFFCURVE",
"-190 -391 CURVE SMOOTH",
"-293 -360 LINE SMOOTH",
"-335 -347 OFFCURVE",
"-355 -325 OFFCURVE",
"-355 -290 CURVE SMOOTH",
"-355 -247 OFFCURVE",
"-325 -196 OFFCURVE",
"-260 -135 CURVE",
"-313 -92 LINE",
"-395 -177 OFFCURVE",
"-436 -241 OFFCURVE",
"-436 -305 CURVE SMOOTH",
"-436 -372 OFFCURVE",
"-399 -403 OFFCURVE",
"-314 -428 CURVE SMOOTH",
"-259 -444 LINE SMOOTH",
"-202 -461 OFFCURVE",
"-160 -476 OFFCURVE",
"-160 -532 CURVE SMOOTH",
"-160 -603 OFFCURVE",
"-252 -708 OFFCURVE",
"-335 -779 CURVE"
);
}
);
width = 0;
},
{
layerId = "61CE545B-E6AD-45B5-B051-8D1B01C68A7F";
paths = (
{
closed = 1;
nodes = (
"-304 -829 LINE",
"-185 -755 OFFCURVE",
"-66 -651 OFFCURVE",
"-66 -530 CURVE SMOOTH",
"-66 -465 OFFCURVE",
"-99 -416 OFFCURVE",
"-184 -380 CURVE SMOOTH",
"-250 -352 LINE SMOOTH",
"-300 -331 OFFCURVE",
"-321 -322 OFFCURVE",
"-321 -294 CURVE SMOOTH",
"-321 -250 OFFCURVE",
"-265 -195 OFFCURVE",
"-229 -160 CURVE",
"-328 -92 LINE",
"-410 -156 OFFCURVE",
"-466 -230 OFFCURVE",
"-466 -319 CURVE SMOOTH",
"-466 -380 OFFCURVE",
"-439 -439 OFFCURVE",
"-333 -475 CURVE SMOOTH",
"-292 -489 LINE SMOOTH",
"-239 -507 OFFCURVE",
"-218 -530 OFFCURVE",
"-218 -559 CURVE SMOOTH",
"-218 -618 OFFCURVE",
"-313 -696 OFFCURVE",
"-380 -744 CURVE"
);
}
);
width = 0;
}
);
unicode = 1B39;
},
{
glyphname = uni1B3A;
layers = (
{
components = (
{
alignment = -1;
name = uni1B05.01.part;
transform = "{1, 0, 0, 1, -774, -687}";
}
);
layerId = "86689E10-1D55-4C8D-99A2-294733391E9C";
paths = (
{
closed = 1;
nodes = (
"-880 -663 OFFCURVE",
"-707 -829 OFFCURVE",
"-415 -829 CURVE SMOOTH",
"-124 -829 OFFCURVE",
"46 -664 OFFCURVE",
"46 -381 CURVE SMOOTH",
"46 -285 OFFCURVE",
"27 -180 OFFCURVE",
"-11 -71 CURVE",
"-81 -92 LINE",
"-52 -193 OFFCURVE",
"-39 -275 OFFCURVE",
"-39 -353 CURVE SMOOTH",
"-39 -604 OFFCURVE",
"-174 -743 OFFCURVE",
"-417 -743 CURVE SMOOTH",
"-659 -743 OFFCURVE",
"-793 -604 OFFCURVE",
"-793 -353 CURVE SMOOTH",
"-793 -275 OFFCURVE",
"-780 -196 OFFCURVE",
"-751 -92 CURVE",
"-823 -71 LINE",
"-860 -176 OFFCURVE",
"-880 -285 OFFCURVE",
"-880 -381 CURVE SMOOTH"
);
}
);
width = 0;
},
{
components = (
{
alignment = -1;
name = uni1B05.01.part;
transform = "{1, 0, 0, 1, -765, -673}";
}
);
layerId = "61CE545B-E6AD-45B5-B051-8D1B01C68A7F";
paths = (
{
closed = 1;
nodes = (
"-1006 -677 OFFCURVE",
"-805 -830 OFFCURVE",
"-455 -830 CURVE SMOOTH",
"-137 -830 OFFCURVE",
"97 -701 OFFCURVE",
"97 -412 CURVE SMOOTH",
"97 -304 OFFCURVE",
"66 -194 OFFCURVE",
"-1 -65 CURVE",
"-101 -100 LINE",
"-59 -220 OFFCURVE",
"-42 -303 OFFCURVE",
"-42 -376 CURVE SMOOTH",
"-42 -584 OFFCURVE",
"-178 -684 OFFCURVE",
"-455 -684 CURVE SMOOTH",
"-729 -684 OFFCURVE",
"-867 -582 OFFCURVE",
"-867 -379 CURVE SMOOTH",
"-867 -304 OFFCURVE",
"-849 -215 OFFCURVE",
"-809 -100 CURVE",
"-908 -65 LINE",
"-975 -192 OFFCURVE",
"-1006 -302 OFFCURVE",
"-1006 -408 CURVE SMOOTH"
);
}
);
width = 0;
}
);
unicode = 1B3A;
},
{
glyphname = uni1B3E;
layers = (
{
layerId = "86689E10-1D55-4C8D-99A2-294733391E9C";
paths = (
{
closed = 1;
nodes = (
"439 -631 LINE",
"397 -552 OFFCURVE",
"360 -448 OFFCURVE",
"360 -301 CURVE SMOOTH",
"360 -220 OFFCURVE",
"371 -107 OFFCURVE",
"400 16 CURVE SMOOTH",
"455 246 LINE SMOOTH",
"467 295 OFFCURVE",
"472 332 OFFCURVE",
"472 365 CURVE SMOOTH",
"472 474 OFFCURVE",
"409 546 OFFCURVE",
"302 546 CURVE SMOOTH",
"211 546 OFFCURVE",
"151 494 OFFCURVE",
"128 398 CURVE",
"150 392 LINE",
"55 533 LINE",
"1 495 LINE",
"133 288 LINE",
"172 311 LINE",
"172 327 LINE SMOOTH",
"172 401 OFFCURVE",
"204 467 OFFCURVE",
"285 467 CURVE SMOOTH",
"351 467 OFFCURVE",
"386 422 OFFCURVE",
"386 351 CURVE SMOOTH",
"386 323 OFFCURVE",
"381 288 OFFCURVE",
"368 235 CURVE SMOOTH",
"314 11 LINE SMOOTH",
"288 -96 OFFCURVE",
"277 -195 OFFCURVE",
"277 -279 CURVE SMOOTH",
"277 -448 OFFCURVE",
"321 -574 OFFCURVE",
"404 -663 CURVE"
);
}
);
width = 523;
},
{
layerId = "61CE545B-E6AD-45B5-B051-8D1B01C68A7F";
paths = (
{
closed = 1;
nodes = (
"501 -631 LINE",
"445 -552 OFFCURVE",
"414 -442 OFFCURVE",
"414 -300 CURVE SMOOTH",
"414 -214 OFFCURVE",
"425 -108 OFFCURVE",
"456 16 CURVE SMOOTH",
"489 146 LINE SMOOTH",
"516 251 OFFCURVE",
"527 321 OFFCURVE",
"527 366 CURVE SMOOTH",
"527 501 OFFCURVE",
"430 546 OFFCURVE",
"347 546 CURVE SMOOTH",
"265 546 OFFCURVE",
"180 501 OFFCURVE",
"167 370 CURVE",
"205 377 LINE",
"92 550 LINE",
"-11 478 LINE",
"160 223 LINE",
"243 276 LINE",
"243 292 LINE SMOOTH",
"243 371 OFFCURVE",
"274 419 OFFCURVE",
"323 419 CURVE SMOOTH",
"358 419 OFFCURVE",
"386 394 OFFCURVE",
"386 342 CURVE SMOOTH",
"386 316 OFFCURVE",
"381 259 OFFCURVE",
"359 179 CURVE SMOOTH",
"320 35 LINE SMOOTH",
"284 -97 OFFCURVE",
"276 -195 OFFCURVE",
"276 -273 CURVE SMOOTH",
"276 -448 OFFCURVE",
"328 -581 OFFCURVE",
"432 -683 CURVE"
);
}
);
width = 566;
}
);
unicode = 1B3E;
category = Letter;
subCategory = Spacing;
},
{
glyphname = uni1B44;
layers = (
{
layerId = "86689E10-1D55-4C8D-99A2-294733391E9C";
paths = (
{
closed = 1;
nodes = (
"175 -801 LINE",
"127 -718 OFFCURVE",
"92 -608 OFFCURVE",
"92 -431 CURVE SMOOTH",
"92 -275 OFFCURVE",
"120 -7 OFFCURVE",
"207 337 CURVE SMOOTH",
"241 471 OFFCURVE",
"257 568 OFFCURVE",
"257 633 CURVE SMOOTH",
"257 774 OFFCURVE",
"178 868 OFFCURVE",
"50 868 CURVE SMOOTH",
"-87 868 OFFCURVE",
"-160 762 OFFCURVE",
"-193 621 CURVE",
"-138 606 LINE",
"-86 737 OFFCURVE",
"-41 786 OFFCURVE",
"39 786 CURVE SMOOTH",
"126 786 OFFCURVE",
"168 728 OFFCURVE",
"168 617 CURVE SMOOTH",
"168 571 OFFCURVE",
"162 494 OFFCURVE",
"130 366 CURVE SMOOTH",
"43 15 OFFCURVE",
"10 -243 OFFCURVE",
"10 -416 CURVE SMOOTH",
"10 -612 OFFCURVE",
"54 -747 OFFCURVE",
"146 -829 CURVE"
);
}
);
width = 288;
},
{
layerId = "61CE545B-E6AD-45B5-B051-8D1B01C68A7F";
paths = (
{
closed = 1;
nodes = (
"230 -763 LINE",
"160 -671 OFFCURVE",
"118 -543 OFFCURVE",
"118 -380 CURVE SMOOTH",
"118 -241 OFFCURVE",
"150 -12 OFFCURVE",
"228 256 CURVE SMOOTH",
"284 449 OFFCURVE",
"308 558 OFFCURVE",
"308 635 CURVE SMOOTH",
"308 808 OFFCURVE",
"193 877 OFFCURVE",
"74 877 CURVE SMOOTH",
"-73 877 OFFCURVE",
"-175 770 OFFCURVE",
"-193 621 CURVE",
"-105 594 LINE",
"-67 693 OFFCURVE",
"-10 749 OFFCURVE",
"57 749 CURVE SMOOTH",
"117 749 OFFCURVE",
"167 705 OFFCURVE",
"167 622 CURVE SMOOTH",
"167 572 OFFCURVE",
"149 483 OFFCURVE",
"99 304 CURVE SMOOTH",
"31 61 OFFCURVE",
"-20 -177 OFFCURVE",
"-20 -375 CURVE SMOOTH",
"-20 -596 OFFCURVE",
"44 -747 OFFCURVE",
"166 -829 CURVE"
);
}
);
width = 339;
}
);
unicode = 1B44;
category = Letter;
subCategory = Spacing;
},
{
glyphname = uni1B46;
layers = (
{
components = (
{
alignment = -1;
name = uni1B13.part;
},
{
alignment = -1;
name = uni1B15.part;
transform = "{1, 0, 0, 1, 734, 0}";
}
);
layerId = "86689E10-1D55-4C8D-99A2-294733391E9C";
paths = (
{
closed = 1;
nodes = (
"676 474 LINE",
"803 474 OFFCURVE",
"870 396 OFFCURVE",
"870 244 CURVE SMOOTH",
"870 156 LINE SMOOTH",
"870 46 OFFCURVE",
"933 -10 OFFCURVE",
"1058 -10 CURVE SMOOTH",
"1183 -10 OFFCURVE",
"1246 42 OFFCURVE",
"1246 144 CURVE SMOOTH",
"1246 395 LINE SMOOTH",
"1246 444 OFFCURVE",
"1271 472 OFFCURVE",
"1313 472 CURVE SMOOTH",
"1394 472 OFFCURVE",
"1451 370 OFFCURVE",
"1451 231 CURVE",
"1479 400 LINE",
"1448 498 OFFCURVE",
"1391 544 OFFCURVE",
"1307 544 CURVE SMOOTH",
"1218 544 OFFCURVE",
"1166 489 OFFCURVE",
"1166 389 CURVE SMOOTH",
"1166 143 LINE SMOOTH",
"1166 89 OFFCURVE",
"1130 62 OFFCURVE",
"1058 62 CURVE SMOOTH",
"987 62 OFFCURVE",
"951 89 OFFCURVE",
"951 143 CURVE SMOOTH",
"951 249 LINE SMOOTH",
"951 439 OFFCURVE",
"867 546 OFFCURVE",
"677 546 CURVE",
"669 509 LINE"
);
}
);
width = 1789;
},
{
components = (
{
alignment = -1;
name = uni1B13.part;
},
{
alignment = -1;
name = uni1B15.part;
transform = "{1, 0, 0, 1, 714, 0}";
}
);
layerId = "61CE545B-E6AD-45B5-B051-8D1B01C68A7F";
paths = (
{
closed = 1;
nodes = (
"806 418 LINE",
"874 418 OFFCURVE",
"925 377 OFFCURVE",
"925 286 CURVE SMOOTH",
"925 222 LINE SMOOTH",
"925 67 OFFCURVE",
"999 -10 OFFCURVE",
"1137 -10 CURVE SMOOTH",
"1277 -10 OFFCURVE",
"1348 67 OFFCURVE",
"1348 224 CURVE SMOOTH",
"1348 345 LINE SMOOTH",
"1348 396 OFFCURVE",
"1368 417 OFFCURVE",
"1396 417 CURVE SMOOTH",
"1440 417 OFFCURVE",
"1468 367 OFFCURVE",
"1468 236 CURVE",
"1543 320 LINE",
"1538 475 OFFCURVE",
"1465 545 OFFCURVE",
"1371 545 CURVE SMOOTH",
"1288 545 OFFCURVE",
"1211 490 OFFCURVE",
"1211 362 CURVE SMOOTH",
"1211 217 LINE SMOOTH",
"1211 151 OFFCURVE",
"1186 118 OFFCURVE",
"1138 118 CURVE SMOOTH",
"1090 118 OFFCURVE",
"1062 151 OFFCURVE",
"1062 217 CURVE SMOOTH",
"1062 298 LINE SMOOTH",
"1062 502 OFFCURVE",
"920 546 OFFCURVE",
"805 546 CURVE",
"781 489 LINE"
);
}
);
width = 1897;
}
);
unicode = 1B46;
},
{
glyphname = uni1B4B;
layers = (
{
components = (
{
alignment = -1;
name = uni1B05.02.part;
transform = "{1, 0, 0, 1, 1024, 0}";
},
{
alignment = -1;
name = uni1B18.part;
transform = "{1, 0, 0, 1, 3, 0}";
}
);
layerId = "86689E10-1D55-4C8D-99A2-294733391E9C";
paths = (
{
closed = 1;
nodes = (
"1472 86 OFFCURVE",
"1439 65 OFFCURVE",
"1405 65 CURVE SMOOTH",
"1332 65 OFFCURVE",
"1278 153 OFFCURVE",
"1257 536 CURVE",
"1170 536 LINE",
"1137 196 OFFCURVE",
"1080 68 OFFCURVE",
"995 68 CURVE SMOOTH",
"967 68 OFFCURVE",
"932 80 OFFCURVE",
"932 141 CURVE SMOOTH",
"932 383 LINE SMOOTH",
"932 485 OFFCURVE",
"881 536 OFFCURVE",
"780 536 CURVE SMOOTH",
"650 536 LINE",
"650 147 LINE SMOOTH",
"650 87 OFFCURVE",
"626 63 OFFCURVE",
"590 63 CURVE SMOOTH",
"549 63 OFFCURVE",
"508 95 OFFCURVE",
"422 163 CURVE SMOOTH",
"312 251 LINE",
"316 159 LINE",
"408 85 LINE SMOOTH",
"467 37 OFFCURVE",
"526 -10 OFFCURVE",
"603 -10 CURVE SMOOTH",
"677 -10 OFFCURVE",
"731 33 OFFCURVE",
"731 150 CURVE SMOOTH",
"731 466 LINE",
"777 466 LINE SMOOTH",
"826 466 OFFCURVE",
"851 440 OFFCURVE",
"851 387 CURVE SMOOTH",
"851 144 LINE SMOOTH",
"851 42 OFFCURVE",
"909 -10 OFFCURVE",
"992 -10 CURVE SMOOTH",
"1112 -10 OFFCURVE",
"1199 101 OFFCURVE",
"1208 371 CURVE",
"1213 371 LINE",
"1220 87 OFFCURVE",
"1301 -10 OFFCURVE",
"1410 -10 CURVE SMOOTH",
"1488 -10 OFFCURVE",
"1553 39 OFFCURVE",
"1553 163 CURVE SMOOTH",
"1553 259 LINE",
"1472 259 LINE",
"1472 159 LINE SMOOTH"
);
}
);
width = 1805;
},
{
components = (
{
alignment = -1;
name = uni1B05.02.part;
transform = "{1, 0, 0, 1, 1058, 0}";
},
{
alignment = -1;
name = uni1B18.part;
transform = "{1, 0, 0, 1, -12, 0}";
}
);
layerId = "61CE545B-E6AD-45B5-B051-8D1B01C68A7F";
paths = (
{
closed = 1;
nodes = (
"1473 138 OFFCURVE",
"1457 118 OFFCURVE",
"1435 118 CURVE SMOOTH",
"1362 118 OFFCURVE",
"1318 340 OFFCURVE",
"1300 536 CURVE",
"1151 536 LINE",
"1119 280 OFFCURVE",
"1096 118 OFFCURVE",
"1024 118 CURVE SMOOTH",
"992 118 OFFCURVE",
"973 149 OFFCURVE",
"973 220 CURVE SMOOTH",
"973 383 LINE SMOOTH",
"973 485 OFFCURVE",
"916 536 OFFCURVE",
"802 536 CURVE SMOOTH",
"602 536 LINE",
"602 194 LINE SMOOTH",
"602 133 OFFCURVE",
"596 122 OFFCURVE",
"579 122 CURVE SMOOTH",
"553 122 OFFCURVE",
"527 149 OFFCURVE",
"474 205 CURVE SMOOTH",
"374 312 LINE",
"341 183 LINE",
"443 78 LINE SMOOTH",
"485 34 OFFCURVE",
"529 -10 OFFCURVE",
"606 -10 CURVE SMOOTH",
"683 -10 OFFCURVE",
"739 34 OFFCURVE",
"739 168 CURVE SMOOTH",
"739 414 LINE",
"787 414 LINE SMOOTH",
"819 414 OFFCURVE",
"836 395 OFFCURVE",
"836 360 CURVE SMOOTH",
"836 202 LINE SMOOTH",
"836 63 OFFCURVE",
"899 -10 OFFCURVE",
"1008 -10 CURVE SMOOTH",
"1141 -10 OFFCURVE",
"1213 83 OFFCURVE",
"1223 337 CURVE",
"1230 337 LINE",
"1242 102 OFFCURVE",
"1306 -10 OFFCURVE",
"1441 -10 CURVE SMOOTH",
"1549 -10 OFFCURVE",
"1610 61 OFFCURVE",
"1610 194 CURVE SMOOTH",
"1610 267 LINE",
"1473 267 LINE",
"1473 197 LINE SMOOTH"
);
}
);
width = 1903;
}
);
unicode = 1B4B;
},
{
glyphname = uni1B50;
layers = (
{
layerId = "86689E10-1D55-4C8D-99A2-294733391E9C";
paths = (
{
closed = 1;
nodes = (
"56 95 OFFCURVE",
"149 -10 OFFCURVE",
"299 -10 CURVE SMOOTH",
"451 -10 OFFCURVE",
"547 97 OFFCURVE",
"547 269 CURVE SMOOTH",
"547 443 OFFCURVE",
"457 546 OFFCURVE",
"303 546 CURVE SMOOTH",
"151 546 OFFCURVE",
"56 441 OFFCURVE",
"56 269 CURVE SMOOTH"
);
},
{
closed = 1;
nodes = (
"141 407 OFFCURVE",
"194 478 OFFCURVE",
"300 478 CURVE SMOOTH",
"406 478 OFFCURVE",
"462 405 OFFCURVE",
"462 269 CURVE SMOOTH",
"462 130 OFFCURVE",
"406 56 OFFCURVE",
"302 56 CURVE SMOOTH",
"198 56 OFFCURVE",
"141 131 OFFCURVE",
"141 269 CURVE SMOOTH"
);
}
);
width = 603;
},
{
layerId = "61CE545B-E6AD-45B5-B051-8D1B01C68A7F";
paths = (
{
closed = 1;
nodes = (
"44 95 OFFCURVE",
"143 -10 OFFCURVE",
"309 -10 CURVE SMOOTH",
"475 -10 OFFCURVE",
"577 96 OFFCURVE",
"577 269 CURVE SMOOTH",
"577 441 OFFCURVE",
"477 546 OFFCURVE",
"312 546 CURVE SMOOTH",
"145 546 OFFCURVE",
"44 440 OFFCURVE",
"44 269 CURVE SMOOTH"
);
},
{
closed = 1;
nodes = (
"190 373 OFFCURVE",
"227 420 OFFCURVE",
"311 420 CURVE SMOOTH",
"394 420 OFFCURVE",
"431 374 OFFCURVE",
"431 269 CURVE SMOOTH",
"431 164 OFFCURVE",
"394 116 OFFCURVE",
"311 116 CURVE SMOOTH",
"228 116 OFFCURVE",
"190 164 OFFCURVE",
"190 269 CURVE SMOOTH"
);
}
);
width = 621;
}
);
unicode = 1B50;
},
{
glyphname = uni1B51;
layers = (
{
components = (
{
alignment = -1;
name = Nga.part;
transform = "{1, 0, 0, 1, -1, 0}";
}
);
layerId = "86689E10-1D55-4C8D-99A2-294733391E9C";
paths = (
{
closed = 1;
nodes = (
"825 34 OFFCURVE",
"879 -10 OFFCURVE",
"952 -10 CURVE SMOOTH",
"1084 -10 OFFCURVE",
"1140 138 OFFCURVE",
"1140 339 CURVE SMOOTH",
"1140 544 OFFCURVE",
"1079 783 OFFCURVE",
"938 783 CURVE SMOOTH",
"884 783 OFFCURVE",
"837 749 OFFCURVE",
"837 680 CURVE SMOOTH",
"837 608 OFFCURVE",
"880 534 OFFCURVE",
"1085 490 CURVE",
"1042 518 LINE",
"1054 469 OFFCURVE",
"1062 411 OFFCURVE",
"1062 345 CURVE SMOOTH",
"1062 233 OFFCURVE",
"1039 60 OFFCURVE",
"953 60 CURVE SMOOTH",
"925 60 OFFCURVE",
"906 79 OFFCURVE",
"906 117 CURVE SMOOTH",
"906 279 LINE",
"825 279 LINE",
"825 119 LINE SMOOTH"
);
},
{
closed = 1;
nodes = (
"911 698 OFFCURVE",
"923 713 OFFCURVE",
"944 713 CURVE SMOOTH",
"990 713 OFFCURVE",
"1021 649 OFFCURVE",
"1040 536 CURVE",
"1066 561 LINE",
"968 587 OFFCURVE",
"911 623 OFFCURVE",
"911 675 CURVE SMOOTH"
);
}
);
width = 1202;
},
{
components = (
{
alignment = -1;
name = Nga.part;
transform = "{1, 0, 0, 1, 4, 0}";
}
);
layerId = "61CE545B-E6AD-45B5-B051-8D1B01C68A7F";
paths = (
{
closed = 1;
nodes = (
"840 48 OFFCURVE",
"922 -10 OFFCURVE",
"1023 -10 CURVE SMOOTH",
"1151 -10 OFFCURVE",
"1241 85 OFFCURVE",
"1241 328 CURVE SMOOTH",
"1241 525 OFFCURVE",
"1183 819 OFFCURVE",
"992 819 CURVE SMOOTH",
"912 819 OFFCURVE",
"854 766 OFFCURVE",
"854 683 CURVE SMOOTH",
"854 579 OFFCURVE",
"945 528 OFFCURVE",
"1119 524 CURVE",
"1071 553 LINE",
"1092 460 OFFCURVE",
"1102 377 OFFCURVE",
"1102 300 CURVE SMOOTH",
"1102 171 OFFCURVE",
"1076 116 OFFCURVE",
"1027 116 CURVE SMOOTH",
"996 116 OFFCURVE",
"977 140 OFFCURVE",
"977 188 CURVE SMOOTH",
"977 272 LINE",
"840 272 LINE",
"840 201 LINE SMOOTH"
);
},
{
closed = 1;
nodes = (
"958 704 OFFCURVE",
"971 713 OFFCURVE",
"987 713 CURVE SMOOTH",
"1023 713 OFFCURVE",
"1050 668 OFFCURVE",
"1064 596 CURVE",
"1105 624 LINE",
"1008 624 OFFCURVE",
"958 644 OFFCURVE",
"958 684 CURVE SMOOTH"
);
}
);
width = 1285;
}
);
unicode = 1B51;
},
{
glyphname = uni1B54;
layers = (
{
layerId = "86689E10-1D55-4C8D-99A2-294733391E9C";
paths = (
{
closed = 1;
nodes = (
"90 33 OFFCURVE",
"156 -10 OFFCURVE",
"240 -10 CURVE SMOOTH",
"341 -10 OFFCURVE",
"409 52 OFFCURVE",
"409 145 CURVE SMOOTH",
"409 214 OFFCURVE",
"373 265 OFFCURVE",
"294 284 CURVE",
"294 289 LINE",
"361 313 OFFCURVE",
"390 350 OFFCURVE",
"390 407 CURVE SMOOTH",
"390 489 OFFCURVE",
"331 546 OFFCURVE",
"239 546 CURVE SMOOTH",
"192 546 OFFCURVE",
"148 531 OFFCURVE",
"101 504 CURVE",
"135 438 LINE",
"165 459 OFFCURVE",
"205 473 OFFCURVE",
"237 473 CURVE SMOOTH",
"282 473 OFFCURVE",
"310 444 OFFCURVE",
"310 401 CURVE SMOOTH",
"310 346 OFFCURVE",
"264 318 OFFCURVE",
"180 318 CURVE SMOOTH",
"158 318 LINE",
"158 247 LINE",
"196 247 LINE SMOOTH",
"280 247 OFFCURVE",
"330 207 OFFCURVE",
"330 148 CURVE SMOOTH",
"330 95 OFFCURVE",
"290 62 OFFCURVE",
"238 62 CURVE SMOOTH",
"185 62 OFFCURVE",
"141 92 OFFCURVE",
"116 145 CURVE",
"56 109 LINE"
);
}
);
width = 471;
},
{
layerId = "61CE545B-E6AD-45B5-B051-8D1B01C68A7F";
paths = (
{
closed = 1;
nodes = (
"98 19 OFFCURVE",
"171 -10 OFFCURVE",
"247 -10 CURVE SMOOTH",
"349 -10 OFFCURVE",
"429 42 OFFCURVE",
"429 140 CURVE SMOOTH",
"429 227 OFFCURVE",
"365 275 OFFCURVE",
"297 282 CURVE",
"297 287 LINE",
"371 305 OFFCURVE",
"410 344 OFFCURVE",
"410 410 CURVE SMOOTH",
"410 498 OFFCURVE",
"339 546 OFFCURVE",
"246 546 CURVE SMOOTH",
"189 546 OFFCURVE",
"133 528 OFFCURVE",
"81 493 CURVE",
"111 379 LINE",
"158 405 OFFCURVE",
"196 418 OFFCURVE",
"229 418 CURVE SMOOTH",
"262 418 OFFCURVE",
"280 405 OFFCURVE",
"280 383 CURVE SMOOTH",
"280 351 OFFCURVE",
"244 334 OFFCURVE",
"181 334 CURVE SMOOTH",
"159 334 LINE",
"159 220 LINE",
"198 220 LINE SMOOTH",
"262 220 OFFCURVE",
"292 205 OFFCURVE",
"292 167 CURVE SMOOTH",
"292 126 OFFCURVE",
"255 118 OFFCURVE",
"227 118 CURVE SMOOTH",
"184 118 OFFCURVE",
"137 137 OFFCURVE",
"99 169 CURVE",
"45 63 LINE"
);
}
);
width = 477;
}
);
unicode = 1B54;
},
{
glyphname = uni1B55;
layers = (
{
layerId = "86689E10-1D55-4C8D-99A2-294733391E9C";
paths = (
{
closed = 1;
nodes = (
"44 120 OFFCURVE",
"167 -10 OFFCURVE",
"337 -10 CURVE SMOOTH",
"457 -10 OFFCURVE",
"528 55 OFFCURVE",
"528 148 CURVE SMOOTH",
"528 218 OFFCURVE",
"491 266 OFFCURVE",
"413 286 CURVE",
"413 291 LINE",
"481 315 OFFCURVE",
"509 351 OFFCURVE",
"509 408 CURVE SMOOTH",
"509 492 OFFCURVE",
"450 549 OFFCURVE",
"358 549 CURVE SMOOTH",
"312 549 OFFCURVE",
"267 535 OFFCURVE",
"220 510 CURVE",
"253 443 LINE",
"285 464 OFFCURVE",
"323 477 OFFCURVE",
"355 477 CURVE SMOOTH",
"402 477 OFFCURVE",
"430 447 OFFCURVE",
"430 403 CURVE SMOOTH",
"430 348 OFFCURVE",
"384 319 OFFCURVE",
"298 319 CURVE SMOOTH",
"264 319 LINE",
"264 248 LINE",
"314 248 LINE SMOOTH",
"399 248 OFFCURVE",
"450 207 OFFCURVE",
"450 148 CURVE SMOOTH",
"450 93 OFFCURVE",
"401 62 OFFCURVE",
"334 62 CURVE SMOOTH",
"215 62 OFFCURVE",
"122 161 OFFCURVE",
"122 341 CURVE SMOOTH",
"122 506 OFFCURVE",
"212 635 OFFCURVE",
"374 635 CURVE SMOOTH",
"515 635 OFFCURVE",
"613 540 OFFCURVE",
"613 347 CURVE SMOOTH",
"613 262 OFFCURVE",
"592 163 OFFCURVE",
"561 30 CURVE SMOOTH",
"525 -125 OFFCURVE",
"508 -274 OFFCURVE",
"508 -391 CURVE SMOOTH",
"508 -612 OFFCURVE",
"558 -747 OFFCURVE",
"646 -829 CURVE",
"674 -801 LINE",
"625 -704 OFFCURVE",
"586 -598 OFFCURVE",
"586 -433 CURVE SMOOTH",
"586 -294 OFFCURVE",
"610 -115 OFFCURVE",
"643 24 CURVE SMOOTH",
"678 172 OFFCURVE",
"698 272 OFFCURVE",
"698 353 CURVE SMOOTH",
"698 578 OFFCURVE",
"567 710 OFFCURVE",
"375 710 CURVE SMOOTH",
"173 710 OFFCURVE",
"44 568 OFFCURVE",
"44 344 CURVE SMOOTH"
);
}
);
width = 761;
},
{
layerId = "61CE545B-E6AD-45B5-B051-8D1B01C68A7F";
paths = (
{
closed = 1;
nodes = (
"34 137 OFFCURVE",
"153 -10 OFFCURVE",
"357 -10 CURVE SMOOTH",
"480 -10 OFFCURVE",
"567 43 OFFCURVE",
"567 140 CURVE SMOOTH",
"567 218 OFFCURVE",
"513 265 OFFCURVE",
"440 271 CURVE",
"440 276 LINE",
"505 284 OFFCURVE",
"548 332 OFFCURVE",
"548 396 CURVE SMOOTH",
"548 473 OFFCURVE",
"480 520 OFFCURVE",
"393 520 CURVE SMOOTH",
"348 520 OFFCURVE",
"304 507 OFFCURVE",
"264 482 CURVE",
"293 378 LINE",
"329 390 OFFCURVE",
"353 394 OFFCURVE",
"371 394 CURVE SMOOTH",
"401 394 OFFCURVE",
"416 383 OFFCURVE",
"416 365 CURVE SMOOTH",
"416 339 OFFCURVE",
"384 325 OFFCURVE",
"328 325 CURVE SMOOTH",
"319 325 LINE",
"319 210 LINE",
"345 210 LINE SMOOTH",
"402 210 OFFCURVE",
"428 198 OFFCURVE",
"428 165 CURVE SMOOTH",
"428 124 OFFCURVE",
"390 116 OFFCURVE",
"352 116 CURVE SMOOTH",
"236 116 OFFCURVE",
"172 190 OFFCURVE",
"172 329 CURVE SMOOTH",
"172 497 OFFCURVE",
"263 585 OFFCURVE",
"399 585 CURVE SMOOTH",
"554 585 OFFCURVE",
"640 468 OFFCURVE",
"640 275 CURVE SMOOTH",
"640 188 OFFCURVE",
"619 88 OFFCURVE",
"591 -12 CURVE SMOOTH",
"554 -146 OFFCURVE",
"517 -288 OFFCURVE",
"517 -424 CURVE SMOOTH",
"517 -612 OFFCURVE",
"588 -747 OFFCURVE",
"710 -829 CURVE",
"775 -763 LINE",
"707 -673 OFFCURVE",
"658 -569 OFFCURVE",
"658 -418 CURVE SMOOTH",
"658 -287 OFFCURVE",
"695 -140 OFFCURVE",
"732 3 CURVE SMOOTH",
"759 106 OFFCURVE",
"777 210 OFFCURVE",
"777 308 CURVE SMOOTH",
"777 567 OFFCURVE",
"623 709 OFFCURVE",
"404 709 CURVE SMOOTH",
"173 709 OFFCURVE",
"34 550 OFFCURVE",
"34 335 CURVE SMOOTH"
);
}
);
width = 814;
}
);
unicode = 1B55;
},
{
glyphname = uni1B57;
layers = (
{
components = (
{
alignment = -1;
name = Nga.01.part;
transform = "{1, 0, 0, 1, -23, 0}";
}
);
layerId = "86689E10-1D55-4C8D-99A2-294733391E9C";
paths = (
{
closed = 1;
nodes = (
"273 139 OFFCURVE",
"306 53 OFFCURVE",
"337 0 CURVE",
"393 29 LINE",
"367 98 OFFCURVE",
"352 178 OFFCURVE",
"352 238 CURVE SMOOTH",
"352 363 OFFCURVE",
"417 474 OFFCURVE",
"506 474 CURVE SMOOTH",
"567 474 OFFCURVE",
"595 422 OFFCURVE",
"595 311 CURVE SMOOTH",
"595 207 LINE SMOOTH",
"595 62 OFFCURVE",
"661 -10 OFFCURVE",
"764 -10 CURVE SMOOTH",
"923 -10 OFFCURVE",
"966 161 OFFCURVE",
"966 339 CURVE SMOOTH",
"966 529 OFFCURVE",
"914 786 OFFCURVE",
"758 786 CURVE SMOOTH",
"704 786 OFFCURVE",
"657 756 OFFCURVE",
"657 683 CURVE SMOOTH",
"657 573 OFFCURVE",
"764 524 OFFCURVE",
"911 493 CURVE",
"870 516 LINE",
"878 471 OFFCURVE",
"886 410 OFFCURVE",
"886 339 CURVE SMOOTH",
"886 223 OFFCURVE",
"866 62 OFFCURVE",
"764 62 CURVE SMOOTH",
"711 62 OFFCURVE",
"676 105 OFFCURVE",
"676 204 CURVE SMOOTH",
"676 307 LINE SMOOTH",
"676 469 OFFCURVE",
"624 546 OFFCURVE",
"506 546 CURVE SMOOTH",
"344 546 OFFCURVE",
"273 399 OFFCURVE",
"273 244 CURVE SMOOTH"
);
},
{
closed = 1;
nodes = (
"731 700 OFFCURVE",
"744 714 OFFCURVE",
"764 714 CURVE SMOOTH",
"807 714 OFFCURVE",
"842 650 OFFCURVE",
"865 532 CURVE",
"905 557 LINE",
"787 587 OFFCURVE",
"731 627 OFFCURVE",
"731 676 CURVE SMOOTH"
);
}
);
width = 1027;
},
{
components = (
{
alignment = -1;
name = Nga.01.part;
transform = "{1, 0, 0, 1, 6, 0}";
}
);
layerId = "61CE545B-E6AD-45B5-B051-8D1B01C68A7F";
paths = (
{
closed = 1;
nodes = (
"347 212 OFFCURVE",
"353 152 OFFCURVE",
"376 0 CURVE",
"500 60 LINE",
"484 119 OFFCURVE",
"473 184 OFFCURVE",
"473 246 CURVE SMOOTH",
"473 339 OFFCURVE",
"499 418 OFFCURVE",
"561 418 CURVE SMOOTH",
"596 418 OFFCURVE",
"613 393 OFFCURVE",
"613 339 CURVE SMOOTH",
"613 217 LINE SMOOTH",
"613 65 OFFCURVE",
"690 -10 OFFCURVE",
"822 -10 CURVE SMOOTH",
"955 -10 OFFCURVE",
"1061 69 OFFCURVE",
"1061 306 CURVE SMOOTH",
"1061 522 OFFCURVE",
"970 819 OFFCURVE",
"795 819 CURVE SMOOTH",
"721 819 OFFCURVE",
"663 766 OFFCURVE",
"663 681 CURVE SMOOTH",
"663 583 OFFCURVE",
"748 530 OFFCURVE",
"928 524 CURVE",
"882 543 LINE",
"912 452 OFFCURVE",
"923 376 OFFCURVE",
"923 300 CURVE SMOOTH",
"923 177 OFFCURVE",
"895 119 OFFCURVE",
"830 119 CURVE SMOOTH",
"782 119 OFFCURVE",
"750 150 OFFCURVE",
"750 211 CURVE SMOOTH",
"750 343 LINE SMOOTH",
"750 494 OFFCURVE",
"692 546 OFFCURVE",
"587 546 CURVE SMOOTH",
"432 546 OFFCURVE",
"347 429 OFFCURVE",
"347 259 CURVE SMOOTH"
);
},
{
closed = 1;
nodes = (
"767 703 OFFCURVE",
"780 713 OFFCURVE",
"797 713 CURVE SMOOTH",
"833 713 OFFCURVE",
"857 668 OFFCURVE",
"874 596 CURVE",
"912 622 LINE",
"817 626 OFFCURVE",
"767 645 OFFCURVE",
"767 684 CURVE SMOOTH"
);
}
);
width = 1107;
}
);
unicode = 1B57;
},
{
glyphname = uni1B58;
layers = (
{
layerId = "86689E10-1D55-4C8D-99A2-294733391E9C";
paths = (
{
closed = 1;
nodes = (
"119 332 LINE",
"136 428 OFFCURVE",
"166 477 OFFCURVE",
"203 477 CURVE SMOOTH",
"217 477 OFFCURVE",
"241 468 OFFCURVE",
"257 457 CURVE",
"232 509 LINE",
"174 368 OFFCURVE",
"129 253 OFFCURVE",
"129 161 CURVE SMOOTH",
"129 48 OFFCURVE",
"203 -10 OFFCURVE",
"317 -10 CURVE SMOOTH",
"522 -10 OFFCURVE",
"552 182 OFFCURVE",
"552 331 CURVE SMOOTH",
"552 541 OFFCURVE",
"499 786 OFFCURVE",
"343 786 CURVE SMOOTH",
"289 786 OFFCURVE",
"242 756 OFFCURVE",
"242 683 CURVE SMOOTH",
"242 573 OFFCURVE",
"350 524 OFFCURVE",
"496 493 CURVE",
"453 519 LINE",
"465 472 OFFCURVE",
"472 405 OFFCURVE",
"472 335 CURVE SMOOTH",
"472 231 OFFCURVE",
"454 62 OFFCURVE",
"318 62 CURVE SMOOTH",
"273 62 OFFCURVE",
"209 81 OFFCURVE",
"209 162 CURVE SMOOTH",
"209 232 OFFCURVE",
"261 383 OFFCURVE",
"310 504 CURVE",
"297 530 OFFCURVE",
"266 546 OFFCURVE",
"217 546 CURVE SMOOTH",
"116 546 OFFCURVE",
"63 477 OFFCURVE",
"63 337 CURVE"
);
},
{
closed = 1;
nodes = (
"316 700 OFFCURVE",
"329 714 OFFCURVE",
"349 714 CURVE SMOOTH",
"392 714 OFFCURVE",
"427 650 OFFCURVE",
"451 534 CURVE",
"490 557 LINE",
"373 587 OFFCURVE",
"316 627 OFFCURVE",
"316 676 CURVE SMOOTH"
);
}
);
width = 612;
},
{
layerId = "61CE545B-E6AD-45B5-B051-8D1B01C68A7F";
paths = (
{
closed = 1;
nodes = (
"112 281 LINE",
"130 382 OFFCURVE",
"157 432 OFFCURVE",
"195 432 CURVE SMOOTH",
"219 432 OFFCURVE",
"239 422 OFFCURVE",
"260 410 CURVE",
"226 449 LINE",
"172 376 OFFCURVE",
"149 274 OFFCURVE",
"149 206 CURVE SMOOTH",
"149 62 OFFCURVE",
"248 -10 OFFCURVE",
"397 -10 CURVE SMOOTH",
"568 -10 OFFCURVE",
"662 76 OFFCURVE",
"662 316 CURVE SMOOTH",
"662 518 OFFCURVE",
"590 819 OFFCURVE",
"403 819 CURVE SMOOTH",
"324 819 OFFCURVE",
"266 766 OFFCURVE",
"266 681 CURVE SMOOTH",
"266 585 OFFCURVE",
"351 534 OFFCURVE",
"531 528 CURVE",
"485 553 LINE",
"515 460 OFFCURVE",
"523 367 OFFCURVE",
"523 308 CURVE SMOOTH",
"523 170 OFFCURVE",
"474 128 OFFCURVE",
"398 128 CURVE SMOOTH",
"322 128 OFFCURVE",
"282 172 OFFCURVE",
"282 240 CURVE SMOOTH",
"282 292 OFFCURVE",
"304 372 OFFCURVE",
"354 492 CURVE",
"327 512 OFFCURVE",
"278 546 OFFCURVE",
"210 546 CURVE SMOOTH",
"74 546 OFFCURVE",
"32 447 OFFCURVE",
"32 286 CURVE"
);
},
{
closed = 1;
nodes = (
"370 703 OFFCURVE",
"383 713 OFFCURVE",
"400 713 CURVE SMOOTH",
"436 713 OFFCURVE",
"460 668 OFFCURVE",
"472 596 CURVE",
"515 623 LINE",
"420 626 OFFCURVE",
"370 645 OFFCURVE",
"370 684 CURVE SMOOTH"
);
}
);
width = 711;
}
);
unicode = 1B58;
},
{
glyphname = uni1B59;
layers = (
{
layerId = "86689E10-1D55-4C8D-99A2-294733391E9C";
paths = (
{
closed = 1;
nodes = (
"118 332 LINE",
"135 428 OFFCURVE",
"166 477 OFFCURVE",
"203 477 CURVE SMOOTH",
"229 477 OFFCURVE",
"250 468 OFFCURVE",
"263 458 CURVE",
"230 507 LINE",
"173 367 OFFCURVE",
"130 248 OFFCURVE",
"130 152 CURVE SMOOTH",
"130 46 OFFCURVE",
"185 -10 OFFCURVE",
"269 -10 CURVE SMOOTH",
"389 -10 OFFCURVE",
"474 101 OFFCURVE",
"483 371 CURVE",
"488 371 LINE",
"495 87 OFFCURVE",
"573 -10 OFFCURVE",
"691 -10 CURVE SMOOTH",
"848 -10 OFFCURVE",
"894 161 OFFCURVE",
"894 339 CURVE SMOOTH",
"894 529 OFFCURVE",
"842 786 OFFCURVE",
"686 786 CURVE SMOOTH",
"632 786 OFFCURVE",
"585 756 OFFCURVE",
"585 683 CURVE SMOOTH",
"585 573 OFFCURVE",
"693 524 OFFCURVE",
"839 493 CURVE",
"799 515 LINE",
"808 470 OFFCURVE",
"816 410 OFFCURVE",
"816 339 CURVE SMOOTH",
"816 225 OFFCURVE",
"791 65 OFFCURVE",
"687 65 CURVE SMOOTH",
"607 65 OFFCURVE",
"558 154 OFFCURVE",
"531 536 CURVE",
"447 536 LINE",
"409 191 OFFCURVE",
"356 62 OFFCURVE",
"273 62 CURVE SMOOTH",
"244 62 OFFCURVE",
"209 77 OFFCURVE",
"209 148 CURVE SMOOTH",
"209 234 OFFCURVE",
"261 383 OFFCURVE",
"310 504 CURVE",
"294 525 OFFCURVE",
"260 546 OFFCURVE",
"209 546 CURVE SMOOTH",
"116 546 OFFCURVE",
"63 477 OFFCURVE",
"63 337 CURVE"
);
},
{
closed = 1;
nodes = (
"659 700 OFFCURVE",
"672 714 OFFCURVE",
"692 714 CURVE SMOOTH",
"735 714 OFFCURVE",
"770 650 OFFCURVE",
"794 534 CURVE",
"833 557 LINE",
"716 587 OFFCURVE",
"659 627 OFFCURVE",
"659 676 CURVE SMOOTH"
);
}
);
width = 949;
},
{
layerId = "61CE545B-E6AD-45B5-B051-8D1B01C68A7F";
paths = (
{
closed = 1;
nodes = (
"115 281 LINE",
"133 382 OFFCURVE",
"158 432 OFFCURVE",
"195 432 CURVE SMOOTH",
"212 432 OFFCURVE",
"238 422 OFFCURVE",
"260 409 CURVE",
"227 449 LINE",
"182 378 OFFCURVE",
"148 296 OFFCURVE",
"148 200 CURVE SMOOTH",
"148 54 OFFCURVE",
"225 -10 OFFCURVE",
"327 -10 CURVE SMOOTH",
"460 -10 OFFCURVE",
"548 99 OFFCURVE",
"559 377 CURVE",
"563 377 LINE",
"588 102 OFFCURVE",
"663 -10 OFFCURVE",
"795 -10 CURVE SMOOTH",
"915 -10 OFFCURVE",
"1003 82 OFFCURVE",
"1003 318 CURVE SMOOTH",
"1003 532 OFFCURVE",
"922 819 OFFCURVE",
"743 819 CURVE SMOOTH",
"666 819 OFFCURVE",
"608 766 OFFCURVE",
"608 683 CURVE SMOOTH",
"608 583 OFFCURVE",
"693 530 OFFCURVE",
"873 524 CURVE",
"826 554 LINE",
"853 460 OFFCURVE",
"864 377 OFFCURVE",
"864 296 CURVE SMOOTH",
"864 173 OFFCURVE",
"836 118 OFFCURVE",
"793 118 CURVE SMOOTH",
"706 118 OFFCURVE",
"669 339 OFFCURVE",
"646 536 CURVE",
"470 536 LINE",
"454 280 OFFCURVE",
"413 118 OFFCURVE",
"339 118 CURVE SMOOTH",
"307 118 OFFCURVE",
"284 148 OFFCURVE",
"284 217 CURVE SMOOTH",
"284 284 OFFCURVE",
"306 372 OFFCURVE",
"357 492 CURVE",
"329 513 OFFCURVE",
"280 546 OFFCURVE",
"203 546 CURVE SMOOTH",
"74 546 OFFCURVE",
"32 447 OFFCURVE",
"32 286 CURVE"
);
},
{
closed = 1;
nodes = (
"712 703 OFFCURVE",
"725 713 OFFCURVE",
"742 713 CURVE SMOOTH",
"778 713 OFFCURVE",
"802 668 OFFCURVE",
"814 596 CURVE",
"857 622 LINE",
"762 626 OFFCURVE",
"712 645 OFFCURVE",
"712 684 CURVE SMOOTH"
);
}
);
width = 1050;
}
);
unicode = 1B59;
},
{
glyphname = uni1B5A;
layers = (
{
layerId = "86689E10-1D55-4C8D-99A2-294733391E9C";
paths = (
{
closed = 1;
nodes = (
"125 -2 OFFCURVE",
"173 -10 OFFCURVE",
"209 -10 CURVE SMOOTH",
"294 -10 OFFCURVE",
"338 38 OFFCURVE",
"338 131 CURVE SMOOTH",
"338 399 LINE SMOOTH",
"338 451 OFFCURVE",
"365 476 OFFCURVE",
"409 476 CURVE SMOOTH",
"459 476 OFFCURVE",
"483 446 OFFCURVE",
"483 402 CURVE SMOOTH",
"483 0 LINE",
"564 0 LINE",
"564 340 LINE SMOOTH",
"564 500 OFFCURVE",
"628 588 OFFCURVE",
"725 588 CURVE SMOOTH",
"809 588 OFFCURVE",
"859 524 OFFCURVE",
"859 421 CURVE SMOOTH",
"859 367 OFFCURVE",
"846 277 OFFCURVE",
"814 144 CURVE SMOOTH",
"764 -65 OFFCURVE",
"735 -272 OFFCURVE",
"735 -421 CURVE SMOOTH",
"735 -614 OFFCURVE",
"779 -749 OFFCURVE",
"871 -829 CURVE",
"902 -802 LINE",
"852 -720 OFFCURVE",
"815 -603 OFFCURVE",
"815 -435 CURVE SMOOTH",
"815 -300 OFFCURVE",
"840 -86 OFFCURVE",
"886 109 CURVE SMOOTH",
"921 259 OFFCURVE",
"942 355 OFFCURVE",
"942 426 CURVE SMOOTH",
"942 574 OFFCURVE",
"849 660 OFFCURVE",
"729 660 CURVE SMOOTH",
"625 660 OFFCURVE",
"556 595 OFFCURVE",
"521 493 CURVE",
"495 526 OFFCURVE",
"459 546 OFFCURVE",
"409 546 CURVE SMOOTH",
"328 546 OFFCURVE",
"257 495 OFFCURVE",
"257 395 CURVE SMOOTH",
"257 130 LINE SMOOTH",
"257 86 OFFCURVE",
"236 62 OFFCURVE",
"194 62 CURVE SMOOTH",
"171 62 OFFCURVE",
"135 70 OFFCURVE",
"88 82 CURVE",
"67 15 LINE"
);
}
);
width = 1002;
},
{
layerId = "61CE545B-E6AD-45B5-B051-8D1B01C68A7F";
paths = (
{
closed = 1;
nodes = (
"76 20 OFFCURVE",
"142 -10 OFFCURVE",
"218 -10 CURVE SMOOTH",
"322 -10 OFFCURVE",
"382 46 OFFCURVE",
"382 193 CURVE SMOOTH",
"382 329 LINE SMOOTH",
"382 388 OFFCURVE",
"405 418 OFFCURVE",
"452 418 CURVE SMOOTH",
"498 418 OFFCURVE",
"521 389 OFFCURVE",
"521 329 CURVE SMOOTH",
"521 0 LINE",
"658 0 LINE",
"658 355 LINE SMOOTH",
"658 491 OFFCURVE",
"700 584 OFFCURVE",
"789 584 CURVE SMOOTH",
"852 584 OFFCURVE",
"894 536 OFFCURVE",
"894 448 CURVE SMOOTH",
"894 393 OFFCURVE",
"879 320 OFFCURVE",
"857 228 CURVE SMOOTH",
"813 43 OFFCURVE",
"752 -217 OFFCURVE",
"752 -409 CURVE SMOOTH",
"752 -600 OFFCURVE",
"812 -735 OFFCURVE",
"931 -829 CURVE",
"995 -763 LINE",
"926 -659 OFFCURVE",
"893 -555 OFFCURVE",
"893 -424 CURVE SMOOTH",
"893 -257 OFFCURVE",
"933 -25 OFFCURVE",
"1011 266 CURVE SMOOTH",
"1030 335 OFFCURVE",
"1038 398 OFFCURVE",
"1038 448 CURVE SMOOTH",
"1038 608 OFFCURVE",
"952 712 OFFCURVE",
"800 712 CURVE SMOOTH",
"672 712 OFFCURVE",
"591 635 OFFCURVE",
"566 521 CURVE",
"535 538 OFFCURVE",
"497 546 OFFCURVE",
"450 546 CURVE SMOOTH",
"313 546 OFFCURVE",
"246 475 OFFCURVE",
"246 334 CURVE SMOOTH",
"246 196 LINE SMOOTH",
"246 144 OFFCURVE",
"226 118 OFFCURVE",
"183 118 CURVE SMOOTH",
"146 118 OFFCURVE",
"100 138 OFFCURVE",
"45 172 CURVE",
"5 68 LINE"
);
}
);
width = 1098;
}
);
unicode = 1B5A;
},
{
glyphname = uni1B5B;
layers = (
{
components = (
{
alignment = -1;
name = uni1B17;
transform = "{1, 0, 0, 1, 105, 0}";
},
{
alignment = -1;
name = uni1B05.02.part;
transform = "{1, 0, 0, 1, 636, 0}";
}
);
layerId = "86689E10-1D55-4C8D-99A2-294733391E9C";
paths = (
{
closed = 1;
nodes = (
"13 -720 OFFCURVE",
"137 -829 OFFCURVE",
"308 -829 CURVE SMOOTH",
"473 -829 OFFCURVE",
"608 -724 OFFCURVE",
"702 -628 CURVE",
"746 -756 OFFCURVE",
"816 -829 OFFCURVE",
"937 -829 CURVE SMOOTH",
"1125 -829 OFFCURVE",
"1165 -660 OFFCURVE",
"1165 -444 CURVE SMOOTH",
"1165 293 LINE",
"1084 293 LINE",
"1084 -441 LINE SMOOTH",
"1084 -603 OFFCURVE",
"1063 -743 OFFCURVE",
"937 -743 CURVE SMOOTH",
"833 -743 OFFCURVE",
"780 -647 OFFCURVE",
"765 -518 CURVE",
"706 -506 LINE",
"540 -670 OFFCURVE",
"437 -743 OFFCURVE",
"315 -743 CURVE SMOOTH",
"182 -743 OFFCURVE",
"101 -657 OFFCURVE",
"101 -483 CURVE SMOOTH",
"101 -380 OFFCURVE",
"129 -251 OFFCURVE",
"187 -53 CURVE",
"118 -33 LINE",
"45 -244 OFFCURVE",
"13 -386 OFFCURVE",
"13 -500 CURVE SMOOTH"
);
},
{
closed = 1;
nodes = (
"1357 -819 LINE",
"1357 94 LINE",
"1276 94 LINE",
"1276 -819 LINE"
);
},
{
closed = 1;
nodes = (
"605 -365 OFFCURVE",
"730 -443 OFFCURVE",
"832 -443 CURVE SMOOTH",
"903 -443 OFFCURVE",
"959 -409 OFFCURVE",
"959 -339 CURVE SMOOTH",
"959 -294 OFFCURVE",
"934 -256 OFFCURVE",
"910 -226 CURVE SMOOTH",
"890 -201 OFFCURVE",
"876 -180 OFFCURVE",
"876 -160 CURVE SMOOTH",
"876 -138 OFFCURVE",
"896 -133 OFFCURVE",
"914 -133 CURVE SMOOTH",
"955 -133 OFFCURVE",
"1017 -156 OFFCURVE",
"1093 -221 CURVE SMOOTH",
"1172 -289 OFFCURVE",
"1330 -452 OFFCURVE",
"1491 -691 CURVE",
"1538 -653 LINE",
"1300 -323 OFFCURVE",
"1106 -57 OFFCURVE",
"902 -57 CURVE SMOOTH",
"822 -57 OFFCURVE",
"790 -100 OFFCURVE",
"790 -147 CURVE SMOOTH",
"790 -187 OFFCURVE",
"813 -221 OFFCURVE",
"839 -252 CURVE SMOOTH",
"863 -281 OFFCURVE",
"880 -306 OFFCURVE",
"880 -333 CURVE SMOOTH",
"880 -367 OFFCURVE",
"851 -370 OFFCURVE",
"835 -370 CURVE SMOOTH",
"758 -370 OFFCURVE",
"662 -311 OFFCURVE",
"607 -198 CURVE",
"549 -227 LINE"
);
}
);
width = 1461;
},
{
components = (
{
alignment = -1;
name = uni1B17;
transform = "{1, 0, 0, 1, 54, 0}";
},
{
alignment = -1;
name = uni1B05.02.part;
transform = "{1, 0, 0, 1, 718, 0}";
}
);
layerId = "61CE545B-E6AD-45B5-B051-8D1B01C68A7F";
paths = (
{
closed = 1;
nodes = (
"-1 -685 OFFCURVE",
"117 -829 OFFCURVE",
"352 -829 CURVE SMOOTH",
"506 -829 OFFCURVE",
"635 -771 OFFCURVE",
"750 -658 CURVE",
"793 -766 OFFCURVE",
"882 -829 OFFCURVE",
"997 -829 CURVE SMOOTH",
"1164 -829 OFFCURVE",
"1270 -699 OFFCURVE",
"1270 -502 CURVE SMOOTH",
"1270 262 LINE",
"1133 262 LINE",
"1133 -480 LINE SMOOTH",
"1133 -595 OFFCURVE",
"1094 -685 OFFCURVE",
"991 -685 CURVE SMOOTH",
"909 -685 OFFCURVE",
"853 -628 OFFCURVE",
"826 -548 CURVE",
"733 -534 LINE",
"634 -612 OFFCURVE",
"517 -685 OFFCURVE",
"371 -685 CURVE SMOOTH",
"221 -685 OFFCURVE",
"145 -609 OFFCURVE",
"145 -472 CURVE SMOOTH",
"145 -374 OFFCURVE",
"181 -214 OFFCURVE",
"242 -56 CURVE",
"135 -23 LINE",
"42 -215 OFFCURVE",
"-1 -369 OFFCURVE",
"-1 -490 CURVE SMOOTH"
);
},
{
closed = 1;
nodes = (
"1503 -819 LINE",
"1503 1 LINE",
"1366 1 LINE",
"1366 -819 LINE"
);
},
{
closed = 1;
nodes = (
"546 -407 OFFCURVE",
"681 -487 OFFCURVE",
"793 -487 CURVE SMOOTH",
"880 -487 OFFCURVE",
"948 -439 OFFCURVE",
"948 -353 CURVE SMOOTH",
"948 -301 OFFCURVE",
"921 -267 OFFCURVE",
"891 -229 CURVE SMOOTH",
"873 -207 OFFCURVE",
"859 -187 OFFCURVE",
"859 -175 CURVE SMOOTH",
"859 -166 OFFCURVE",
"871 -162 OFFCURVE",
"885 -162 CURVE SMOOTH",
"926 -162 OFFCURVE",
"1022 -194 OFFCURVE",
"1122 -266 CURVE SMOOTH",
"1264 -368 OFFCURVE",
"1439 -569 OFFCURVE",
"1612 -792 CURVE",
"1693 -726 LINE",
"1339 -303 OFFCURVE",
"1112 -42 OFFCURVE",
"880 -42 CURVE SMOOTH",
"775 -42 OFFCURVE",
"728 -97 OFFCURVE",
"728 -158 CURVE SMOOTH",
"728 -204 OFFCURVE",
"755 -246 OFFCURVE",
"785 -279 CURVE SMOOTH",
"809 -305 OFFCURVE",
"826 -328 OFFCURVE",
"826 -345 CURVE SMOOTH",
"826 -365 OFFCURVE",
"804 -368 OFFCURVE",
"789 -368 CURVE SMOOTH",
"720 -368 OFFCURVE",
"628 -309 OFFCURVE",
"568 -181 CURVE",
"474 -229 LINE"
);
}
);
width = 1591;
}
);
unicode = 1B5B;
},
{
glyphname = uni1B5C;
layers = (
{
layerId = "86689E10-1D55-4C8D-99A2-294733391E9C";
paths = (
{
closed = 1;
nodes = (
"408 402 OFFCURVE",
"343 474 OFFCURVE",
"235 474 CURVE SMOOTH",
"126 474 OFFCURVE",
"59 400 OFFCURVE",
"59 278 CURVE SMOOTH",
"59 153 OFFCURVE",
"123 81 OFFCURVE",
"231 81 CURVE SMOOTH",
"341 81 OFFCURVE",
"408 155 OFFCURVE",
"408 278 CURVE SMOOTH"
);
},
{
closed = 1;
nodes = (
"135 367 OFFCURVE",
"167 407 OFFCURVE",
"233 407 CURVE SMOOTH",
"300 407 OFFCURVE",
"330 368 OFFCURVE",
"330 278 CURVE SMOOTH",
"330 187 OFFCURVE",
"299 146 OFFCURVE",
"233 146 CURVE SMOOTH",
"167 146 OFFCURVE",
"135 187 OFFCURVE",
"135 278 CURVE SMOOTH"
);
}
);
width = 466;
},
{
layerId = "61CE545B-E6AD-45B5-B051-8D1B01C68A7F";
paths = (
{
closed = 1;
nodes = (
"446 420 OFFCURVE",
"372 517 OFFCURVE",
"235 517 CURVE SMOOTH",
"97 517 OFFCURVE",
"21 428 OFFCURVE",
"21 278 CURVE SMOOTH",
"21 138 OFFCURVE",
"95 38 OFFCURVE",
"231 38 CURVE SMOOTH",
"370 38 OFFCURVE",
"446 130 OFFCURVE",
"446 278 CURVE SMOOTH"
);
},
{
closed = 1;
nodes = (
"153 338 OFFCURVE",
"168 383 OFFCURVE",
"233 383 CURVE SMOOTH",
"294 383 OFFCURVE",
"312 343 OFFCURVE",
"312 278 CURVE SMOOTH",
"312 214 OFFCURVE",
"294 170 OFFCURVE",
"233 170 CURVE SMOOTH",
"176 170 OFFCURVE",
"153 209 OFFCURVE",
"153 278 CURVE SMOOTH"
);
}
);
width = 466;
}
);
unicode = 1B5C;
},
{
glyphname = uni1B5E;
layers = (
{
layerId = "86689E10-1D55-4C8D-99A2-294733391E9C";
paths = (
{
closed = 1;
nodes = (
"333 -284 LINE",
"316 177 OFFCURVE",
"255 458 OFFCURVE",
"150 557 CURVE",
"2 429 LINE",
"45 376 LINE",
"126 442 LINE",
"201 348 OFFCURVE",
"251 105 OFFCURVE",
"276 -288 CURVE"
);
}
);
width = 377;
},
{
layerId = "61CE545B-E6AD-45B5-B051-8D1B01C68A7F";
paths = (
{
closed = 1;
nodes = (
"434 -284 LINE",
"428 177 OFFCURVE",
"337 450 OFFCURVE",
"191 582 CURVE",
"7 429 LINE",
"81 328 LINE",
"164 393 LINE",
"225 316 OFFCURVE",
"293 118 OFFCURVE",
"327 -288 CURVE"
);
}
);
width = 468;
}
);
unicode = 1B5E;
category = Letter;
subCategory = Spacing;
},
{
glyphname = uni1B67;
layers = (
{
layerId = "86689E10-1D55-4C8D-99A2-294733391E9C";
paths = (
{
closed = 1;
nodes = (
"31 158 OFFCURVE",
"77 90 OFFCURVE",
"214 57 CURVE",
"239 97 LINE",
"217 122 OFFCURVE",
"206 163 OFFCURVE",
"206 199 CURVE SMOOTH",
"206 313 OFFCURVE",
"316 373 OFFCURVE",
"446 373 CURVE SMOOTH",
"519 373 OFFCURVE",
"548 353 OFFCURVE",
"548 329 CURVE SMOOTH",
"548 307 OFFCURVE",
"523 289 OFFCURVE",
"455 289 CURVE SMOOTH",
"418 289 OFFCURVE",
"372 294 OFFCURVE",
"319 302 CURVE",
"315 249 LINE",
"371 235 OFFCURVE",
"425 228 OFFCURVE",
"470 228 CURVE SMOOTH",
"569 228 OFFCURVE",
"631 262 OFFCURVE",
"631 330 CURVE SMOOTH",
"631 403 OFFCURVE",
"568 443 OFFCURVE",
"453 443 CURVE SMOOTH",
"281 443 OFFCURVE",
"139 354 OFFCURVE",
"139 222 CURVE SMOOTH",
"139 184 OFFCURVE",
"150 150 OFFCURVE",
"166 120 CURVE",
"184 131 LINE",
"114 157 OFFCURVE",
"95 200 OFFCURVE",
"95 294 CURVE",
"31 294 LINE"
);
}
);
width = 605;
},
{
layerId = "61CE545B-E6AD-45B5-B051-8D1B01C68A7F";
paths = (
{
closed = 1;
nodes = (
"-43 183 OFFCURVE",
"8 109 OFFCURVE",
"165 57 CURVE",
"219 114 LINE",
"205 146 OFFCURVE",
"195 181 OFFCURVE",
"195 219 CURVE SMOOTH",
"195 324 OFFCURVE",
"268 404 OFFCURVE",
"400 404 CURVE SMOOTH",
"458 404 OFFCURVE",
"503 388 OFFCURVE",
"503 354 CURVE SMOOTH",
"503 329 OFFCURVE",
"478 312 OFFCURVE",
"414 312 CURVE SMOOTH",
"383 312 OFFCURVE",
"341 316 OFFCURVE",
"288 323 CURVE",
"284 235 LINE",
"347 218 OFFCURVE",
"396 210 OFFCURVE",
"440 210 CURVE SMOOTH",
"558 210 OFFCURVE",
"632 268 OFFCURVE",
"632 357 CURVE SMOOTH",
"632 463 OFFCURVE",
"526 518 OFFCURVE",
"399 518 CURVE SMOOTH",
"220 518 OFFCURVE",
"90 409 OFFCURVE",
"90 257 CURVE SMOOTH",
"90 217 OFFCURVE",
"101 189 OFFCURVE",
"111 169 CURVE",
"119 180 LINE",
"69 215 OFFCURVE",
"58 243 OFFCURVE",
"58 319 CURVE",
"-43 319 LINE"
);
}
);
width = 605;
}
);
unicode = 1B67;
},
{
glyphname = uni1B69;
layers = (
{
components = (
{
alignment = -1;
name = Nga.part;
transform = "{1, 0, 0, 1, -4, 0}";
},
{
alignment = -1;
name = uni1B05.03.part;
transform = "{1, 0, 0, 1, 948, 0}";
}
);
layerId = "86689E10-1D55-4C8D-99A2-294733391E9C";
paths = (
{
closed = 1;
nodes = (
"323 -724 OFFCURVE",
"461 -829 OFFCURVE",
"690 -829 CURVE SMOOTH",
"914 -829 OFFCURVE",
"1077 -726 OFFCURVE",
"1077 -534 CURVE SMOOTH",
"1077 9 LINE",
"996 9 LINE",
"996 -524 LINE SMOOTH",
"996 -669 OFFCURVE",
"860 -745 OFFCURVE",
"694 -745 CURVE SMOOTH",
"511 -745 OFFCURVE",
"410 -654 OFFCURVE",
"410 -513 CURVE SMOOTH",
"410 -378 OFFCURVE",
"502 -297 OFFCURVE",
"652 -225 CURVE SMOOTH",
"821 -144 OFFCURVE",
"903 -64 OFFCURVE",
"903 106 CURVE SMOOTH",
"903 259 LINE",
"822 263 LINE",
"822 96 LINE SMOOTH",
"822 -31 OFFCURVE",
"755 -84 OFFCURVE",
"627 -149 CURVE SMOOTH",
"422 -253 OFFCURVE",
"323 -343 OFFCURVE",
"323 -518 CURVE SMOOTH"
);
},
{
closed = 1;
nodes = (
"1274 -819 LINE",
"1274 9 LINE",
"1193 9 LINE",
"1193 -819 LINE"
);
}
);
width = 1334;
},
{
components = (
{
alignment = -1;
name = Nga.part;
transform = "{1, 0, 0, 1, 33, 0}";
},
{
alignment = -1;
name = uni1B05.03.part;
transform = "{1, 0, 0, 1, 1076, 0}";
}
);
layerId = "61CE545B-E6AD-45B5-B051-8D1B01C68A7F";
paths = (
{
closed = 1;
nodes = (
"360 -675 OFFCURVE",
"513 -829 OFFCURVE",
"821 -829 CURVE SMOOTH",
"1098 -829 OFFCURVE",
"1261 -702 OFFCURVE",
"1261 -406 CURVE SMOOTH",
"1261 7 LINE",
"1124 7 LINE",
"1124 -410 LINE SMOOTH",
"1124 -618 OFFCURVE",
"1010 -685 OFFCURVE",
"814 -685 CURVE SMOOTH",
"628 -685 OFFCURVE",
"508 -626 OFFCURVE",
"508 -495 CURVE SMOOTH",
"508 -407 OFFCURVE",
"563 -341 OFFCURVE",
"717 -274 CURVE SMOOTH",
"900 -195 OFFCURVE",
"1006 -105 OFFCURVE",
"1006 174 CURVE SMOOTH",
"1006 267 LINE",
"869 267 LINE",
"869 161 LINE SMOOTH",
"869 -37 OFFCURVE",
"798 -97 OFFCURVE",
"635 -163 CURVE SMOOTH",
"450 -238 OFFCURVE",
"360 -373 OFFCURVE",
"360 -504 CURVE SMOOTH"
);
},
{
closed = 1;
nodes = (
"1494 -819 LINE",
"1494 7 LINE",
"1357 7 LINE",
"1357 -819 LINE"
);
}
);
width = 1554;
}
);
unicode = 1B69;
},
{
glyphname = uni1B6B;
layers = (
{
layerId = "86689E10-1D55-4C8D-99A2-294733391E9C";
paths = (
{
closed = 1;
nodes = (
"-324 727 LINE",
"-300 786 OFFCURVE",
"-265 814 OFFCURVE",
"-226 814 CURVE SMOOTH",
"-191 814 OFFCURVE",
"-165 791 OFFCURVE",
"-165 748 CURVE SMOOTH",
"-165 691 OFFCURVE",
"-211 659 OFFCURVE",
"-301 655 CURVE",
"-301 598 LINE",
"-165 598 OFFCURVE",
"-85 655 OFFCURVE",
"-85 757 CURVE SMOOTH",
"-85 837 OFFCURVE",
"-136 886 OFFCURVE",
"-218 886 CURVE SMOOTH",
"-296 886 OFFCURVE",
"-350 842 OFFCURVE",
"-370 755 CURVE"
);
}
);
width = 0;
},
{
layerId = "61CE545B-E6AD-45B5-B051-8D1B01C68A7F";
paths = (
{
closed = 1;
nodes = (
"-342 727 LINE",
"-311 758 OFFCURVE",
"-275 776 OFFCURVE",
"-236 776 CURVE SMOOTH",
"-202 776 OFFCURVE",
"-185 761 OFFCURVE",
"-185 741 CURVE SMOOTH",
"-185 705 OFFCURVE",
"-240 680 OFFCURVE",
"-356 667 CURVE",
"-356 573 LINE",
"-138 588 OFFCURVE",
"-52 655 OFFCURVE",
"-52 763 CURVE SMOOTH",
"-52 848 OFFCURVE",
"-106 898 OFFCURVE",
"-208 898 CURVE SMOOTH",
"-299 898 OFFCURVE",
"-361 856 OFFCURVE",
"-400 772 CURVE"
);
}
);
width = 0;
}
);
unicode = 1B6B;
},
{
glyphname = uni1B6D;
layers = (
{
layerId = "86689E10-1D55-4C8D-99A2-294733391E9C";
paths = (
{
closed = 1;
nodes = (
"-246 917 LINE",
"-304 917 LINE",
"-304 773 LINE",
"-453 773 LINE",
"-453 725 LINE",
"-304 725 LINE",
"-304 576 LINE",
"-246 576 LINE",
"-246 725 LINE",
"-102 725 LINE",
"-102 773 LINE",
"-246 773 LINE"
);
}
);
width = 0;
},
{
layerId = "61CE545B-E6AD-45B5-B051-8D1B01C68A7F";
paths = (
{
closed = 1;
nodes = (
"-234 917 LINE",
"-316 917 LINE",
"-316 785 LINE",
"-453 785 LINE",
"-453 713 LINE",
"-316 713 LINE",
"-316 576 LINE",
"-234 576 LINE",
"-234 713 LINE",
"-102 713 LINE",
"-102 785 LINE",
"-234 785 LINE"
);
}
);
width = 0;
}
);
unicode = 1B6D;
},
{
glyphname = uni1B6E;
layers = (
{
layerId = "86689E10-1D55-4C8D-99A2-294733391E9C";
paths = (
{
closed = 1;
nodes = (
"-404 771 LINE",
"-404 724 LINE",
"-102 724 LINE",
"-102 771 LINE"
);
}
);
width = 0;
},
{
layerId = "61CE545B-E6AD-45B5-B051-8D1B01C68A7F";
paths = (
{
closed = 1;
nodes = (
"-404 796 LINE",
"-404 724 LINE",
"-102 724 LINE",
"-102 796 LINE"
);
}
);
width = 0;
}
);
unicode = 1B6E;
},
{
glyphname = uni1B6F;
layers = (
{
layerId = "86689E10-1D55-4C8D-99A2-294733391E9C";
paths = (
{
closed = 1;
nodes = (
"-273 800 LINE",
"-178 587 LINE",
"-129 587 LINE",
"-256 870 LINE",
"-292 870 LINE",
"-419 587 LINE",
"-370 587 LINE",
"-275 800 LINE"
);
}
);
width = 0;
},
{
layerId = "61CE545B-E6AD-45B5-B051-8D1B01C68A7F";
paths = (
{
closed = 1;
nodes = (
"-273 749 LINE",
"-190 587 LINE",
"-91 587 LINE",
"-256 870 LINE",
"-292 870 LINE",
"-457 587 LINE",
"-358 587 LINE",
"-275 749 LINE"
);
}
);
width = 0;
}
);
unicode = 1B6F;
},
{
glyphname = uni1B70;
layers = (
{
layerId = "86689E10-1D55-4C8D-99A2-294733391E9C";
paths = (
{
closed = 1;
nodes = (
"-394 587 LINE",
"-299 741 LINE",
"-299 576 LINE",
"-253 576 LINE",
"-253 741 LINE",
"-158 587 LINE",
"-102 587 LINE",
"-231 776 LINE",
"-108 776 LINE",
"-108 817 LINE",
"-253 817 LINE",
"-253 917 LINE",
"-299 917 LINE",
"-299 817 LINE",
"-443 817 LINE",
"-443 776 LINE",
"-322 776 LINE",
"-449 587 LINE"
);
}
);
width = 0;
},
{
layerId = "61CE545B-E6AD-45B5-B051-8D1B01C68A7F";
paths = (
{
closed = 1;
nodes = (
"-388 587 LINE",
"-317 694 LINE",
"-317 576 LINE",
"-233 576 LINE",
"-233 692 LINE",
"-170 587 LINE",
"-72 587 LINE",
"-187 751 LINE",
"-102 751 LINE",
"-102 824 LINE",
"-233 824 LINE",
"-233 917 LINE",
"-317 917 LINE",
"-317 824 LINE",
"-454 824 LINE",
"-454 751 LINE",
"-361 751 LINE",
"-476 587 LINE"
);
}
);
width = 0;
}
);
unicode = 1B70;
},
{
glyphname = uni1B71;
layers = (
{
layerId = "86689E10-1D55-4C8D-99A2-294733391E9C";
paths = (
{
closed = 1;
nodes = (
"-312 773 LINE",
"-430 587 LINE",
"-369 587 LINE",
"-271 754 LINE",
"-269 754 LINE",
"-172 587 LINE",
"-112 587 LINE",
"-231 773 LINE",
"-95 773 LINE",
"-95 820 LINE",
"-446 820 LINE",
"-446 773 LINE"
);
}
);
width = 0;
},
{
layerId = "61CE545B-E6AD-45B5-B051-8D1B01C68A7F";
paths = (
{
closed = 1;
nodes = (
"-351 773 LINE",
"-455 587 LINE",
"-358 587 LINE",
"-276 754 LINE",
"-273 754 LINE",
"-191 587 LINE",
"-93 587 LINE",
"-198 773 LINE",
"-104 773 LINE",
"-104 845 LINE",
"-454 845 LINE",
"-454 773 LINE"
);
}
);
width = 0;
}
);
unicode = 1B71;
},
{
glyphname = uni1B72;
layers = (
{
layerId = "86689E10-1D55-4C8D-99A2-294733391E9C";
paths = (
{
closed = 1;
nodes = (
"-275 657 LINE",
"-370 870 LINE",
"-419 870 LINE",
"-292 587 LINE",
"-256 587 LINE",
"-129 870 LINE",
"-178 870 LINE",
"-273 657 LINE"
);
}
);
width = 0;
},
{
layerId = "61CE545B-E6AD-45B5-B051-8D1B01C68A7F";
paths = (
{
closed = 1;
nodes = (
"-275 708 LINE",
"-358 870 LINE",
"-457 870 LINE",
"-292 587 LINE",
"-256 587 LINE",
"-91 870 LINE",
"-190 870 LINE",
"-273 708 LINE"
);
}
);
width = 0;
}
);
unicode = 1B72;
},
{
glyphname = uni1B73;
layers = (
{
layerId = "86689E10-1D55-4C8D-99A2-294733391E9C";
paths = (
{
closed = 1;
nodes = (
"-185 588 OFFCURVE",
"-135 639 OFFCURVE",
"-135 707 CURVE SMOOTH",
"-135 777 OFFCURVE",
"-184 827 OFFCURVE",
"-251 827 CURVE SMOOTH",
"-318 827 OFFCURVE",
"-367 777 OFFCURVE",
"-367 707 CURVE SMOOTH",
"-367 639 OFFCURVE",
"-317 588 OFFCURVE",
"-251 588 CURVE SMOOTH"
);
},
{
closed = 1;
nodes = (
"-192 667 OFFCURVE",
"-217 638 OFFCURVE",
"-251 638 CURVE SMOOTH",
"-285 638 OFFCURVE",
"-310 667 OFFCURVE",
"-310 707 CURVE SMOOTH",
"-310 749 OFFCURVE",
"-284 778 OFFCURVE",
"-251 778 CURVE SMOOTH",
"-218 778 OFFCURVE",
"-192 749 OFFCURVE",
"-192 707 CURVE SMOOTH"
);
}
);
width = 0;
},
{
layerId = "61CE545B-E6AD-45B5-B051-8D1B01C68A7F";
paths = (
{
closed = 1;
nodes = (
"-173 588 OFFCURVE",
"-121 647 OFFCURVE",
"-121 721 CURVE SMOOTH",
"-121 795 OFFCURVE",
"-170 855 OFFCURVE",
"-250 855 CURVE SMOOTH",
"-328 855 OFFCURVE",
"-380 796 OFFCURVE",
"-380 721 CURVE SMOOTH",
"-380 650 OFFCURVE",
"-330 588 OFFCURVE",
"-250 588 CURVE SMOOTH"
);
},
{
closed = 1;
nodes = (
"-202 691 OFFCURVE",
"-222 665 OFFCURVE",
"-250 665 CURVE SMOOTH",
"-280 665 OFFCURVE",
"-299 691 OFFCURVE",
"-299 721 CURVE SMOOTH",
"-299 752 OFFCURVE",
"-281 779 OFFCURVE",
"-250 779 CURVE SMOOTH",
"-220 779 OFFCURVE",
"-202 752 OFFCURVE",
"-202 721 CURVE SMOOTH"
);
}
);
width = 0;
}
);
unicode = 1B73;
},
{
glyphname = uni1B74;
layers = (
{
layerId = "86689E10-1D55-4C8D-99A2-294733391E9C";
paths = (
{
closed = 1;
nodes = (
"161 0 LINE",
"304 428 LINE",
"446 0 LINE",
"533 0 LINE",
"332 557 LINE",
"282 557 LINE",
"81 0 LINE"
);
}
);
width = 606;
},
{
layerId = "61CE545B-E6AD-45B5-B051-8D1B01C68A7F";
paths = (
{
closed = 1;
nodes = (
"175 0 LINE",
"305 312 LINE",
"435 0 LINE",
"597 0 LINE",
"346 557 LINE",
"258 557 LINE",
"7 0 LINE"
);
}
);
width = 606;
}
);
unicode = 1B74;
},
{
glyphname = uni1B76;
layers = (
{
layerId = "86689E10-1D55-4C8D-99A2-294733391E9C";
paths = (
{
closed = 1;
nodes = (
"446 0 LINE",
"533 0 LINE",
"332 557 LINE",
"282 557 LINE",
"81 0 LINE",
"161 0 LINE",
"304 428 LINE"
);
},
{
closed = 1;
nodes = (
"279 92 LINE",
"331 132 LINE",
"115 415 LINE",
"61 372 LINE"
);
}
);
width = 606;
},
{
layerId = "61CE545B-E6AD-45B5-B051-8D1B01C68A7F";
paths = (
{
closed = 1;
nodes = (
"435 0 LINE",
"597 0 LINE",
"346 557 LINE",
"258 557 LINE",
"7 0 LINE",
"175 0 LINE",
"305 318 LINE"
);
},
{
closed = 1;
nodes = (
"281 34 LINE",
"361 95 LINE",
"115 415 LINE",
"33 351 LINE"
);
}
);
width = 606;
}
);
unicode = 1B76;
},
{
glyphname = uni1B77;
layers = (
{
components = (
{
alignment = -1;
name = uni1B50;
}
);
layerId = "86689E10-1D55-4C8D-99A2-294733391E9C";
paths = (
{
closed = 1;
nodes = (
"256 213 LINE",
"308 252 LINE",
"92 535 LINE",
"38 493 LINE"
);
}
);
width = 605;
},
{
components = (
{
alignment = -1;
name = uni1B50;
}
);
layerId = "61CE545B-E6AD-45B5-B051-8D1B01C68A7F";
paths = (
{
closed = 1;
nodes = (
"284 243 LINE",
"363 304 LINE",
"117 624 LINE",
"36 559 LINE"
);
}
);
width = 606;
}
);
unicode = 1B77;
},
{
glyphname = uni1B78;
layers = (
{
layerId = "86689E10-1D55-4C8D-99A2-294733391E9C";
paths = (
{
closed = 1;
nodes = (
"520 232 LINE",
"520 301 LINE",
"100 301 LINE",
"100 232 LINE"
);
}
);
width = 605;
},
{
layerId = "61CE545B-E6AD-45B5-B051-8D1B01C68A7F";
paths = (
{
closed = 1;
nodes = (
"520 207 LINE",
"520 352 LINE",
"100 352 LINE",
"100 207 LINE"
);
}
);
width = 605;
}
);
unicode = 1B78;
},
{
glyphname = uni1B79;
layers = (
{
layerId = "86689E10-1D55-4C8D-99A2-294733391E9C";
paths = (
{
closed = 1;
nodes = (
"180 67 LINE",
"515 539 LINE",
"416 539 LINE",
"72 54 LINE",
"88 0 LINE",
"558 0 LINE",
"558 67 LINE"
);
}
);
width = 605;
},
{
layerId = "61CE545B-E6AD-45B5-B051-8D1B01C68A7F";
paths = (
{
closed = 1;
nodes = (
"243 118 LINE",
"540 539 LINE",
"391 539 LINE",
"47 54 LINE",
"63 0 LINE",
"558 0 LINE",
"558 118 LINE"
);
}
);
width = 605;
}
);
unicode = 1B79;
},
{
glyphname = uni1B7A;
layers = (
{
layerId = "86689E10-1D55-4C8D-99A2-294733391E9C";
paths = (
{
closed = 1;
nodes = (
"520 232 LINE",
"520 301 LINE",
"100 301 LINE",
"100 232 LINE"
);
},
{
closed = 1;
nodes = (
"389 107 LINE",
"441 146 LINE",
"225 429 LINE",
"171 387 LINE"
);
}
);
width = 605;
},
{
layerId = "61CE545B-E6AD-45B5-B051-8D1B01C68A7F";
paths = (
{
closed = 1;
nodes = (
"520 207 LINE",
"520 352 LINE",
"100 352 LINE",
"100 207 LINE"
);
},
{
closed = 1;
nodes = (
"398 90 LINE",
"478 151 LINE",
"225 480 LINE",
"143 416 LINE"
);
}
);
width = 605;
}
);
unicode = 1B7A;
},
{
glyphname = uni1B7B;
layers = (
{
layerId = "86689E10-1D55-4C8D-99A2-294733391E9C";
paths = (
{
closed = 1;
nodes = (
"180 67 LINE",
"515 539 LINE",
"416 539 LINE",
"72 54 LINE",
"88 0 LINE",
"558 0 LINE",
"558 67 LINE"
);
},
{
closed = 1;
nodes = (
"355 97 LINE",
"407 137 LINE",
"191 420 LINE",
"137 377 LINE"
);
}
);
width = 605;
},
{
layerId = "61CE545B-E6AD-45B5-B051-8D1B01C68A7F";
paths = (
{
closed = 1;
nodes = (
"243 118 LINE",
"540 539 LINE",
"391 539 LINE",
"47 54 LINE",
"63 0 LINE",
"558 0 LINE",
"558 118 LINE"
);
},
{
closed = 1;
nodes = (
"395 178 LINE",
"475 239 LINE",
"229 558 LINE",
"147 494 LINE"
);
}
);
width = 605;
}
);
unicode = 1B7B;
},
{
glyphname = uni1B7C;
layers = (
{
layerId = "86689E10-1D55-4C8D-99A2-294733391E9C";
paths = (
{
closed = 1;
nodes = (
"249 173 OFFCURVE",
"271 150 OFFCURVE",
"298 150 CURVE SMOOTH",
"327 150 OFFCURVE",
"348 173 OFFCURVE",
"348 200 CURVE SMOOTH",
"348 228 OFFCURVE",
"327 250 OFFCURVE",
"298 250 CURVE SMOOTH",
"271 250 OFFCURVE",
"249 228 OFFCURVE",
"249 200 CURVE SMOOTH"
);
}
);
width = 605;
},
{
layerId = "61CE545B-E6AD-45B5-B051-8D1B01C68A7F";
paths = (
{
closed = 1;
nodes = (
"207 185 OFFCURVE",
"246 148 OFFCURVE",
"297 148 CURVE SMOOTH",
"348 148 OFFCURVE",
"386 185 OFFCURVE",
"386 234 CURVE SMOOTH",
"386 283 OFFCURVE",
"348 321 OFFCURVE",
"297 321 CURVE SMOOTH",
"246 321 OFFCURVE",
"207 283 OFFCURVE",
"207 234 CURVE SMOOTH"
);
}
);
width = 605;
}
);
unicode = 1B7C;
},
{
glyphname = uni1B7D;
layers = (
{
layerId = "86689E10-1D55-4C8D-99A2-294733391E9C";
paths = (
{
closed = 1;
nodes = (
"807 -547 OFFCURVE",
"868 -628 OFFCURVE",
"994 -628 CURVE SMOOTH",
"1106 -628 OFFCURVE",
"1165 -564 OFFCURVE",
"1165 -436 CURVE SMOOTH",
"1165 466 LINE",
"1196 466 LINE SMOOTH",
"1246 466 OFFCURVE",
"1271 440 OFFCURVE",
"1271 387 CURVE SMOOTH",
"1271 -259 LINE SMOOTH",
"1271 -358 OFFCURVE",
"1315 -408 OFFCURVE",
"1404 -408 CURVE SMOOTH",
"1493 -408 OFFCURVE",
"1539 -356 OFFCURVE",
"1539 -253 CURVE SMOOTH",
"1539 466 LINE",
"1569 466 LINE SMOOTH",
"1619 466 OFFCURVE",
"1644 440 OFFCURVE",
"1644 387 CURVE SMOOTH",
"1644 -59 LINE SMOOTH",
"1644 -158 OFFCURVE",
"1688 -208 OFFCURVE",
"1778 -208 CURVE SMOOTH",
"1867 -208 OFFCURVE",
"1912 -156 OFFCURVE",
"1912 -53 CURVE SMOOTH",
"1912 466 LINE",
"1943 466 LINE SMOOTH",
"1993 466 OFFCURVE",
"2018 440 OFFCURVE",
"2018 387 CURVE SMOOTH",
"2018 140 LINE SMOOTH",
"2018 41 OFFCURVE",
"2062 -9 OFFCURVE",
"2152 -9 CURVE SMOOTH",
"2241 -9 OFFCURVE",
"2286 43 OFFCURVE",
"2286 146 CURVE SMOOTH",
"2286 411 LINE SMOOTH",
"2286 453 OFFCURVE",
"2298 476 OFFCURVE",
"2324 476 CURVE SMOOTH",
"2334 476 OFFCURVE",
"2346 472 OFFCURVE",
"2361 462 CURVE SMOOTH",
"2410 429 OFFCURVE",
"2447 415 OFFCURVE",
"2494 415 CURVE SMOOTH",
"2527 415 OFFCURVE",
"2565 422 OFFCURVE",
"2607 440 CURVE SMOOTH",
"2669 466 OFFCURVE",
"2722 477 OFFCURVE",
"2764 477 CURVE SMOOTH",
"2828 477 OFFCURVE",
"2858 454 OFFCURVE",
"2858 409 CURVE SMOOTH",
"2858 363 OFFCURVE",
"2826 340 OFFCURVE",
"2764 340 CURVE SMOOTH",
"2746 340 OFFCURVE",
"2729 342 OFFCURVE",
"2710 345 CURVE",
"2702 303 LINE",
"2741 288 OFFCURVE",
"2776 281 OFFCURVE",
"2804 281 CURVE SMOOTH",
"2880 281 OFFCURVE",
"2940 335 OFFCURVE",
"2940 414 CURVE SMOOTH",
"2940 494 OFFCURVE",
"2877 546 OFFCURVE",
"2771 546 CURVE SMOOTH",
"2709 546 OFFCURVE",
"2662 529 OFFCURVE",
"2620 513 CURVE SMOOTH",
"2581 498 OFFCURVE",
"2545 485 OFFCURVE",
"2505 485 CURVE SMOOTH",
"2473 485 OFFCURVE",
"2448 493 OFFCURVE",
"2421 510 CURVE SMOOTH",
"2384 533 OFFCURVE",
"2351 547 OFFCURVE",
"2314 547 CURVE SMOOTH",
"2244 547 OFFCURVE",
"2205 500 OFFCURVE",
"2205 406 CURVE SMOOTH",
"2205 144 LINE SMOOTH",
"2205 90 OFFCURVE",
"2187 63 OFFCURVE",
"2152 63 CURVE SMOOTH",
"2116 63 OFFCURVE",
"2099 89 OFFCURVE",
"2099 141 CURVE SMOOTH",
"2099 383 LINE SMOOTH",
"2099 485 OFFCURVE",
"2048 536 OFFCURVE",
"1946 536 CURVE SMOOTH",
"1831 536 LINE",
"1831 -55 LINE SMOOTH",
"1831 -110 OFFCURVE",
"1813 -136 OFFCURVE",
"1778 -136 CURVE SMOOTH",
"1742 -136 OFFCURVE",
"1725 -111 OFFCURVE",
"1725 -59 CURVE SMOOTH",
"1725 383 LINE SMOOTH",
"1725 485 OFFCURVE",
"1674 536 OFFCURVE",
"1572 536 CURVE SMOOTH",
"1458 536 LINE",
"1458 -255 LINE SMOOTH",
"1458 -310 OFFCURVE",
"1439 -336 OFFCURVE",
"1404 -336 CURVE SMOOTH",
"1369 -336 OFFCURVE",
"1351 -311 OFFCURVE",
"1351 -259 CURVE SMOOTH",
"1351 383 LINE SMOOTH",
"1351 485 OFFCURVE",
"1300 536 OFFCURVE",
"1198 536 CURVE SMOOTH",
"1084 536 LINE",
"1084 -439 LINE SMOOTH",
"1084 -508 OFFCURVE",
"1055 -544 OFFCURVE",
"997 -544 CURVE SMOOTH",
"928 -544 OFFCURVE",
"893 -497 OFFCURVE",
"893 -384 CURVE SMOOTH",
"893 -275 OFFCURVE",
"917 -108 OFFCURVE",
"965 119 CURVE SMOOTH",
"1013 345 OFFCURVE",
"1028 433 OFFCURVE",
"1028 492 CURVE SMOOTH",
"1028 588 OFFCURVE",
"988 631 OFFCURVE",
"907 648 CURVE",
"887 603 LINE",
"930 586 OFFCURVE",
"951 553 OFFCURVE",
"951 500 CURVE SMOOTH",
"951 450 OFFCURVE",
"933 359 OFFCURVE",
"885 146 CURVE SMOOTH",
"832 -89 OFFCURVE",
"807 -265 OFFCURVE",
"807 -386 CURVE SMOOTH"
);
},
{
closed = 1;
nodes = (
"127 -1 OFFCURVE",
"174 -10 OFFCURVE",
"210 -10 CURVE SMOOTH",
"296 -10 OFFCURVE",
"340 39 OFFCURVE",
"340 132 CURVE SMOOTH",
"340 398 LINE SMOOTH",
"340 450 OFFCURVE",
"364 474 OFFCURVE",
"410 474 CURVE SMOOTH",
"460 474 OFFCURVE",
"484 445 OFFCURVE",
"484 402 CURVE SMOOTH",
"484 0 LINE",
"565 0 LINE",
"565 398 LINE SMOOTH",
"565 449 OFFCURVE",
"600 474 OFFCURVE",
"645 474 CURVE SMOOTH",
"695 474 OFFCURVE",
"723 444 OFFCURVE",
"723 382 CURVE SMOOTH",
"723 365 OFFCURVE",
"721 340 OFFCURVE",
"715 306 CURVE SMOOTH",
"658 2 OFFCURVE",
"627 -243 OFFCURVE",
"627 -423 CURVE SMOOTH",
"627 -612 OFFCURVE",
"670 -747 OFFCURVE",
"758 -829 CURVE",
"785 -801 LINE",
"734 -718 OFFCURVE",
"709 -602 OFFCURVE",
"709 -452 CURVE SMOOTH",
"709 -272 OFFCURVE",
"739 -23 OFFCURVE",
"799 294 CURVE SMOOTH",
"805 325 OFFCURVE",
"809 354 OFFCURVE",
"809 383 CURVE SMOOTH",
"809 489 OFFCURVE",
"755 546 OFFCURVE",
"653 546 CURVE SMOOTH",
"593 546 OFFCURVE",
"554 526 OFFCURVE",
"527 485 CURVE",
"504 522 OFFCURVE",
"466 546 OFFCURVE",
"402 546 CURVE SMOOTH",
"310 546 OFFCURVE",
"259 495 OFFCURVE",
"259 395 CURVE SMOOTH",
"259 130 LINE SMOOTH",
"259 87 OFFCURVE",
"237 65 OFFCURVE",
"195 65 CURVE SMOOTH",
"172 65 OFFCURVE",
"136 71 OFFCURVE",
"90 83 CURVE",
"68 16 LINE"
);
}
);
width = 2970;
},
{
layerId = "61CE545B-E6AD-45B5-B051-8D1B01C68A7F";
paths = (
{
closed = 1;
nodes = (
"920 -547 OFFCURVE",
"995 -640 OFFCURVE",
"1151 -640 CURVE SMOOTH",
"1300 -640 OFFCURVE",
"1376 -557 OFFCURVE",
"1376 -392 CURVE SMOOTH",
"1376 411 LINE",
"1426 411 LINE SMOOTH",
"1459 411 OFFCURVE",
"1475 392 OFFCURVE",
"1475 357 CURVE SMOOTH",
"1475 -234 LINE SMOOTH",
"1475 -358 OFFCURVE",
"1536 -420 OFFCURVE",
"1659 -420 CURVE SMOOTH",
"1781 -420 OFFCURVE",
"1842 -358 OFFCURVE",
"1842 -234 CURVE SMOOTH",
"1842 411 LINE",
"1892 411 LINE SMOOTH",
"1925 411 OFFCURVE",
"1941 392 OFFCURVE",
"1941 357 CURVE SMOOTH",
"1941 -34 LINE SMOOTH",
"1941 -158 OFFCURVE",
"2002 -220 OFFCURVE",
"2125 -220 CURVE SMOOTH",
"2247 -220 OFFCURVE",
"2308 -158 OFFCURVE",
"2308 -34 CURVE SMOOTH",
"2308 411 LINE",
"2358 411 LINE SMOOTH",
"2390 411 OFFCURVE",
"2407 392 OFFCURVE",
"2407 357 CURVE SMOOTH",
"2407 178 LINE SMOOTH",
"2407 53 OFFCURVE",
"2468 -9 OFFCURVE",
"2590 -9 CURVE SMOOTH",
"2713 -9 OFFCURVE",
"2774 53 OFFCURVE",
"2774 177 CURVE SMOOTH",
"2774 342 LINE SMOOTH",
"2774 385 OFFCURVE",
"2786 407 OFFCURVE",
"2809 407 CURVE SMOOTH",
"2821 407 OFFCURVE",
"2833 402 OFFCURVE",
"2854 389 CURVE SMOOTH",
"2886 369 OFFCURVE",
"2931 360 OFFCURVE",
"2975 360 CURVE SMOOTH",
"3015 360 OFFCURVE",
"3053 367 OFFCURVE",
"3095 385 CURVE SMOOTH",
"3157 412 OFFCURVE",
"3210 424 OFFCURVE",
"3248 424 CURVE SMOOTH",
"3295 424 OFFCURVE",
"3315 403 OFFCURVE",
"3315 372 CURVE SMOOTH",
"3315 342 OFFCURVE",
"3294 322 OFFCURVE",
"3250 322 CURVE SMOOTH",
"3236 322 OFFCURVE",
"3217 324 OFFCURVE",
"3198 327 CURVE",
"3190 248 LINE",
"3229 233 OFFCURVE",
"3264 226 OFFCURVE",
"3298 226 CURVE SMOOTH",
"3399 226 OFFCURVE",
"3454 288 OFFCURVE",
"3454 379 CURVE SMOOTH",
"3454 486 OFFCURVE",
"3375 546 OFFCURVE",
"3267 546 CURVE SMOOTH",
"3217 546 OFFCURVE",
"3162 534 OFFCURVE",
"3101 507 CURVE SMOOTH",
"3059 488 OFFCURVE",
"3023 479 OFFCURVE",
"2993 479 CURVE SMOOTH",
"2961 479 OFFCURVE",
"2932 489 OFFCURVE",
"2899 510 CURVE SMOOTH",
"2869 529 OFFCURVE",
"2839 547 OFFCURVE",
"2782 547 CURVE SMOOTH",
"2696 547 OFFCURVE",
"2638 499 OFFCURVE",
"2638 400 CURVE SMOOTH",
"2638 176 LINE SMOOTH",
"2638 133 OFFCURVE",
"2622 112 OFFCURVE",
"2590 112 CURVE SMOOTH",
"2559 112 OFFCURVE",
"2543 134 OFFCURVE",
"2543 177 CURVE SMOOTH",
"2543 382 LINE SMOOTH",
"2543 485 OFFCURVE",
"2486 536 OFFCURVE",
"2373 536 CURVE SMOOTH",
"2172 536 LINE",
"2172 -28 LINE SMOOTH",
"2172 -71 OFFCURVE",
"2156 -92 OFFCURVE",
"2125 -92 CURVE SMOOTH",
"2093 -92 OFFCURVE",
"2077 -71 OFFCURVE",
"2077 -28 CURVE SMOOTH",
"2077 383 LINE SMOOTH",
"2077 485 OFFCURVE",
"2021 536 OFFCURVE",
"1907 536 CURVE SMOOTH",
"1706 536 LINE",
"1706 -228 LINE SMOOTH",
"1706 -271 OFFCURVE",
"1690 -292 OFFCURVE",
"1659 -292 CURVE SMOOTH",
"1627 -292 OFFCURVE",
"1611 -271 OFFCURVE",
"1611 -228 CURVE SMOOTH",
"1611 383 LINE SMOOTH",
"1611 485 OFFCURVE",
"1555 536 OFFCURVE",
"1442 536 CURVE SMOOTH",
"1240 536 LINE",
"1240 -392 LINE SMOOTH",
"1240 -474 OFFCURVE",
"1212 -512 OFFCURVE",
"1158 -512 CURVE SMOOTH",
"1092 -512 OFFCURVE",
"1060 -457 OFFCURVE",
"1060 -342 CURVE SMOOTH",
"1060 -245 OFFCURVE",
"1085 -91 OFFCURVE",
"1129 119 CURVE SMOOTH",
"1176 344 OFFCURVE",
"1192 430 OFFCURVE",
"1192 489 CURVE SMOOTH",
"1192 589 OFFCURVE",
"1142 640 OFFCURVE",
"1041 675 CURVE",
"992 585 LINE",
"1033 568 OFFCURVE",
"1053 535 OFFCURVE",
"1053 485 CURVE SMOOTH",
"1053 433 OFFCURVE",
"1033 339 OFFCURVE",
"986 119 CURVE SMOOTH",
"940 -98 OFFCURVE",
"920 -263 OFFCURVE",
"920 -361 CURVE SMOOTH"
);
},
{
closed = 1;
nodes = (
"65 20 OFFCURVE",
"143 -10 OFFCURVE",
"227 -10 CURVE SMOOTH",
"327 -10 OFFCURVE",
"371 42 OFFCURVE",
"371 186 CURVE SMOOTH",
"371 334 LINE SMOOTH",
"371 389 OFFCURVE",
"394 418 OFFCURVE",
"441 418 CURVE SMOOTH",
"487 418 OFFCURVE",
"509 390 OFFCURVE",
"509 333 CURVE SMOOTH",
"509 0 LINE",
"646 0 LINE",
"646 334 LINE SMOOTH",
"646 389 OFFCURVE",
"669 418 OFFCURVE",
"722 418 CURVE SMOOTH",
"773 418 OFFCURVE",
"806 391 OFFCURVE",
"806 334 CURVE SMOOTH",
"806 290 OFFCURVE",
"789 214 OFFCURVE",
"755 99 CURVE SMOOTH",
"722 -14 OFFCURVE",
"670 -243 OFFCURVE",
"670 -409 CURVE SMOOTH",
"670 -613 OFFCURVE",
"732 -747 OFFCURVE",
"854 -829 CURVE",
"919 -763 LINE",
"851 -671 OFFCURVE",
"810 -568 OFFCURVE",
"810 -421 CURVE SMOOTH",
"810 -272 OFFCURVE",
"851 -65 OFFCURVE",
"909 139 CURVE SMOOTH",
"937 238 OFFCURVE",
"946 295 OFFCURVE",
"946 342 CURVE SMOOTH",
"946 473 OFFCURVE",
"875 546 OFFCURVE",
"743 546 CURVE SMOOTH",
"665 546 OFFCURVE",
"609 520 OFFCURVE",
"578 470 CURVE",
"546 521 OFFCURVE",
"500 546 OFFCURVE",
"427 546 CURVE SMOOTH",
"303 546 OFFCURVE",
"235 475 OFFCURVE",
"235 334 CURVE SMOOTH",
"235 187 LINE SMOOTH",
"235 142 OFFCURVE",
"215 118 OFFCURVE",
"176 118 CURVE SMOOTH",
"139 118 OFFCURVE",
"88 139 OFFCURVE",
"38 174 CURVE",
"-7 79 LINE"
);
}
);
width = 3484;
}
);
},
{
glyphname = uni1B7E;
layers = (
{
components = (
{
alignment = -1;
name = uni1B17;
transform = "{1, 0, 0, 1, -27, 0}";
},
{
alignment = -1;
name = uni1B05.02.part;
transform = "{1, 0, 0, 1, 525, 0}";
}
);
layerId = "86689E10-1D55-4C8D-99A2-294733391E9C";
paths = (
{
closed = 1;
nodes = (
"1165 -578 OFFCURVE",
"1209 -628 OFFCURVE",
"1299 -628 CURVE SMOOTH",
"1388 -628 OFFCURVE",
"1433 -576 OFFCURVE",
"1433 -473 CURVE SMOOTH",
"1433 466 LINE",
"1464 466 LINE SMOOTH",
"1514 466 OFFCURVE",
"1539 440 OFFCURVE",
"1539 387 CURVE SMOOTH",
"1539 -259 LINE SMOOTH",
"1539 -358 OFFCURVE",
"1583 -408 OFFCURVE",
"1673 -408 CURVE SMOOTH",
"1762 -408 OFFCURVE",
"1807 -356 OFFCURVE",
"1807 -253 CURVE SMOOTH",
"1807 466 LINE",
"1838 466 LINE SMOOTH",
"1888 466 OFFCURVE",
"1913 440 OFFCURVE",
"1913 387 CURVE SMOOTH",
"1913 -59 LINE SMOOTH",
"1913 -158 OFFCURVE",
"1957 -208 OFFCURVE",
"2046 -208 CURVE SMOOTH",
"2136 -208 OFFCURVE",
"2181 -156 OFFCURVE",
"2181 -53 CURVE SMOOTH",
"2181 466 LINE",
"2212 466 LINE SMOOTH",
"2262 466 OFFCURVE",
"2287 440 OFFCURVE",
"2287 387 CURVE SMOOTH",
"2287 140 LINE SMOOTH",
"2287 40 OFFCURVE",
"2331 -10 OFFCURVE",
"2420 -10 CURVE SMOOTH",
"2510 -10 OFFCURVE",
"2555 42 OFFCURVE",
"2555 146 CURVE SMOOTH",
"2555 411 LINE SMOOTH",
"2555 453 OFFCURVE",
"2567 476 OFFCURVE",
"2592 476 CURVE SMOOTH",
"2603 476 OFFCURVE",
"2615 472 OFFCURVE",
"2629 462 CURVE SMOOTH",
"2678 429 OFFCURVE",
"2715 415 OFFCURVE",
"2763 415 CURVE SMOOTH",
"2796 415 OFFCURVE",
"2834 422 OFFCURVE",
"2876 440 CURVE SMOOTH",
"2938 466 OFFCURVE",
"2991 477 OFFCURVE",
"3034 477 CURVE SMOOTH",
"3097 477 OFFCURVE",
"3127 454 OFFCURVE",
"3127 409 CURVE SMOOTH",
"3127 363 OFFCURVE",
"3095 340 OFFCURVE",
"3033 340 CURVE SMOOTH",
"3014 340 OFFCURVE",
"2998 342 OFFCURVE",
"2979 345 CURVE",
"2971 303 LINE",
"3010 288 OFFCURVE",
"3045 281 OFFCURVE",
"3072 281 CURVE SMOOTH",
"3148 281 OFFCURVE",
"3209 335 OFFCURVE",
"3209 414 CURVE SMOOTH",
"3209 494 OFFCURVE",
"3146 546 OFFCURVE",
"3040 546 CURVE SMOOTH",
"2978 546 OFFCURVE",
"2930 529 OFFCURVE",
"2889 513 CURVE SMOOTH",
"2850 498 OFFCURVE",
"2814 485 OFFCURVE",
"2774 485 CURVE SMOOTH",
"2742 485 OFFCURVE",
"2715 493 OFFCURVE",
"2690 510 CURVE SMOOTH",
"2653 535 OFFCURVE",
"2620 547 OFFCURVE",
"2583 547 CURVE SMOOTH",
"2513 547 OFFCURVE",
"2474 500 OFFCURVE",
"2474 406 CURVE SMOOTH",
"2474 144 LINE SMOOTH",
"2474 89 OFFCURVE",
"2456 62 OFFCURVE",
"2420 62 CURVE SMOOTH",
"2385 62 OFFCURVE",
"2368 88 OFFCURVE",
"2368 141 CURVE SMOOTH",
"2368 383 LINE SMOOTH",
"2368 485 OFFCURVE",
"2316 536 OFFCURVE",
"2215 536 CURVE SMOOTH",
"2100 536 LINE",
"2100 -55 LINE SMOOTH",
"2100 -110 OFFCURVE",
"2082 -136 OFFCURVE",
"2046 -136 CURVE SMOOTH",
"2011 -136 OFFCURVE",
"1994 -111 OFFCURVE",
"1994 -59 CURVE SMOOTH",
"1994 383 LINE SMOOTH",
"1994 485 OFFCURVE",
"1942 536 OFFCURVE",
"1841 536 CURVE SMOOTH",
"1726 536 LINE",
"1726 -255 LINE SMOOTH",
"1726 -310 OFFCURVE",
"1708 -336 OFFCURVE",
"1673 -336 CURVE SMOOTH",
"1637 -336 OFFCURVE",
"1620 -311 OFFCURVE",
"1620 -259 CURVE SMOOTH",
"1620 383 LINE SMOOTH",
"1620 485 OFFCURVE",
"1569 536 OFFCURVE",
"1467 536 CURVE SMOOTH",
"1352 536 LINE",
"1352 -475 LINE SMOOTH",
"1352 -530 OFFCURVE",
"1334 -556 OFFCURVE",
"1299 -556 CURVE SMOOTH",
"1263 -556 OFFCURVE",
"1246 -531 OFFCURVE",
"1246 -479 CURVE SMOOTH",
"1246 7 LINE",
"1165 7 LINE",
"1165 -479 LINE SMOOTH"
);
},
{
closed = 1;
nodes = (
"-45 -386 OFFCURVE",
"50 -482 OFFCURVE",
"209 -482 CURVE SMOOTH",
"307 -482 OFFCURVE",
"432 -449 OFFCURVE",
"600 -374 CURVE",
"605 -383 LINE",
"501 -453 OFFCURVE",
"447 -518 OFFCURVE",
"447 -617 CURVE SMOOTH",
"447 -755 OFFCURVE",
"574 -830 OFFCURVE",
"722 -830 CURVE SMOOTH",
"908 -830 OFFCURVE",
"1054 -721 OFFCURVE",
"1054 -498 CURVE SMOOTH",
"1054 276 LINE",
"973 276 LINE",
"973 -502 LINE SMOOTH",
"973 -664 OFFCURVE",
"868 -748 OFFCURVE",
"724 -748 CURVE SMOOTH",
"607 -748 OFFCURVE",
"536 -695 OFFCURVE",
"536 -616 CURVE SMOOTH",
"536 -510 OFFCURVE",
"663 -406 OFFCURVE",
"780 -324 CURVE",
"738 -254 LINE",
"559 -321 OFFCURVE",
"331 -400 OFFCURVE",
"211 -400 CURVE SMOOTH",
"101 -400 OFFCURVE",
"35 -328 OFFCURVE",
"35 -209 CURVE SMOOTH",
"35 -171 OFFCURVE",
"41 -130 OFFCURVE",
"54 -83 CURVE",
"-13 -66 LINE",
"-36 -133 OFFCURVE",
"-45 -189 OFFCURVE",
"-45 -235 CURVE SMOOTH"
);
}
);
width = 3273;
},
{
components = (
{
alignment = -1;
name = uni1B17;
transform = "{1, 0, 0, 1, 36, 0}";
},
{
alignment = -1;
name = uni1B05.02.part;
transform = "{1, 0, 0, 1, 641, 0}";
}
);
layerId = "61CE545B-E6AD-45B5-B051-8D1B01C68A7F";
paths = (
{
closed = 1;
nodes = (
"1290 -578 OFFCURVE",
"1352 -640 OFFCURVE",
"1474 -640 CURVE SMOOTH",
"1596 -640 OFFCURVE",
"1658 -578 OFFCURVE",
"1658 -454 CURVE SMOOTH",
"1658 411 LINE",
"1708 411 LINE SMOOTH",
"1740 411 OFFCURVE",
"1756 392 OFFCURVE",
"1756 357 CURVE SMOOTH",
"1756 -234 LINE SMOOTH",
"1756 -358 OFFCURVE",
"1818 -420 OFFCURVE",
"1940 -420 CURVE SMOOTH",
"2062 -420 OFFCURVE",
"2124 -358 OFFCURVE",
"2124 -234 CURVE SMOOTH",
"2124 411 LINE",
"2173 411 LINE SMOOTH",
"2206 411 OFFCURVE",
"2222 392 OFFCURVE",
"2222 357 CURVE SMOOTH",
"2222 -34 LINE SMOOTH",
"2222 -158 OFFCURVE",
"2284 -220 OFFCURVE",
"2406 -220 CURVE SMOOTH",
"2528 -220 OFFCURVE",
"2590 -158 OFFCURVE",
"2590 -34 CURVE SMOOTH",
"2590 411 LINE",
"2639 411 LINE SMOOTH",
"2672 411 OFFCURVE",
"2688 392 OFFCURVE",
"2688 357 CURVE SMOOTH",
"2688 177 LINE SMOOTH",
"2688 52 OFFCURVE",
"2750 -10 OFFCURVE",
"2872 -10 CURVE SMOOTH",
"2994 -10 OFFCURVE",
"3055 52 OFFCURVE",
"3055 176 CURVE SMOOTH",
"3055 342 LINE SMOOTH",
"3055 385 OFFCURVE",
"3067 407 OFFCURVE",
"3090 407 CURVE SMOOTH",
"3102 407 OFFCURVE",
"3117 401 OFFCURVE",
"3138 389 CURVE SMOOTH",
"3173 369 OFFCURVE",
"3215 360 OFFCURVE",
"3257 360 CURVE SMOOTH",
"3296 360 OFFCURVE",
"3335 368 OFFCURVE",
"3376 385 CURVE SMOOTH",
"3438 411 OFFCURVE",
"3491 424 OFFCURVE",
"3529 424 CURVE SMOOTH",
"3576 424 OFFCURVE",
"3596 403 OFFCURVE",
"3596 373 CURVE SMOOTH",
"3596 342 OFFCURVE",
"3575 322 OFFCURVE",
"3531 322 CURVE SMOOTH",
"3517 322 OFFCURVE",
"3498 324 OFFCURVE",
"3479 327 CURVE",
"3471 248 LINE",
"3510 233 OFFCURVE",
"3545 226 OFFCURVE",
"3579 226 CURVE SMOOTH",
"3681 226 OFFCURVE",
"3735 288 OFFCURVE",
"3735 379 CURVE SMOOTH",
"3735 486 OFFCURVE",
"3656 546 OFFCURVE",
"3544 546 CURVE SMOOTH",
"3498 546 OFFCURVE",
"3443 536 OFFCURVE",
"3382 507 CURVE SMOOTH",
"3342 488 OFFCURVE",
"3305 479 OFFCURVE",
"3274 479 CURVE SMOOTH",
"3242 479 OFFCURVE",
"3214 490 OFFCURVE",
"3181 510 CURVE SMOOTH",
"3150 529 OFFCURVE",
"3120 547 OFFCURVE",
"3064 547 CURVE SMOOTH",
"2977 547 OFFCURVE",
"2919 499 OFFCURVE",
"2919 400 CURVE SMOOTH",
"2919 175 LINE SMOOTH",
"2919 132 OFFCURVE",
"2903 111 OFFCURVE",
"2872 111 CURVE SMOOTH",
"2840 111 OFFCURVE",
"2824 133 OFFCURVE",
"2824 176 CURVE SMOOTH",
"2824 383 LINE SMOOTH",
"2824 485 OFFCURVE",
"2768 536 OFFCURVE",
"2655 536 CURVE SMOOTH",
"2453 536 LINE",
"2453 -35 LINE SMOOTH",
"2453 -78 OFFCURVE",
"2437 -99 OFFCURVE",
"2406 -99 CURVE SMOOTH",
"2374 -99 OFFCURVE",
"2358 -78 OFFCURVE",
"2358 -35 CURVE SMOOTH",
"2358 383 LINE SMOOTH",
"2358 485 OFFCURVE",
"2302 536 OFFCURVE",
"2189 536 CURVE SMOOTH",
"1987 536 LINE",
"1987 -235 LINE SMOOTH",
"1987 -278 OFFCURVE",
"1972 -299 OFFCURVE",
"1940 -299 CURVE SMOOTH",
"1908 -299 OFFCURVE",
"1892 -278 OFFCURVE",
"1892 -235 CURVE SMOOTH",
"1892 383 LINE SMOOTH",
"1892 485 OFFCURVE",
"1836 536 OFFCURVE",
"1723 536 CURVE SMOOTH",
"1521 536 LINE",
"1521 -455 LINE SMOOTH",
"1521 -498 OFFCURVE",
"1506 -519 OFFCURVE",
"1474 -519 CURVE SMOOTH",
"1442 -519 OFFCURVE",
"1426 -498 OFFCURVE",
"1426 -455 CURVE SMOOTH",
"1426 16 LINE",
"1290 16 LINE",
"1290 -454 LINE SMOOTH"
);
},
{
closed = 1;
nodes = (
"-17 -441 OFFCURVE",
"94 -512 OFFCURVE",
"257 -512 CURVE SMOOTH",
"355 -512 OFFCURVE",
"466 -488 OFFCURVE",
"620 -420 CURVE",
"624 -430 LINE",
"535 -479 OFFCURVE",
"507 -556 OFFCURVE",
"507 -623 CURVE SMOOTH",
"507 -765 OFFCURVE",
"635 -830 OFFCURVE",
"807 -830 CURVE SMOOTH",
"1052 -830 OFFCURVE",
"1192 -706 OFFCURVE",
"1192 -498 CURVE SMOOTH",
"1192 262 LINE",
"1056 262 LINE",
"1056 -502 LINE SMOOTH",
"1056 -624 OFFCURVE",
"951 -686 OFFCURVE",
"816 -686 CURVE SMOOTH",
"707 -686 OFFCURVE",
"658 -647 OFFCURVE",
"658 -594 CURVE SMOOTH",
"658 -528 OFFCURVE",
"734 -437 OFFCURVE",
"876 -362 CURVE",
"821 -249 LINE",
"643 -305 OFFCURVE",
"427 -367 OFFCURVE",
"293 -367 CURVE SMOOTH",
"179 -367 OFFCURVE",
"118 -320 OFFCURVE",
"118 -205 CURVE SMOOTH",
"118 -170 OFFCURVE",
"124 -130 OFFCURVE",
"137 -83 CURVE",
"45 -66 LINE",
"11 -142 OFFCURVE",
"-17 -223 OFFCURVE",
"-17 -297 CURVE SMOOTH"
);
}
);
width = 3761;
}
);
},
{
glyphname = uni1B03.2;
layers = (
{
layerId = "86689E10-1D55-4C8D-99A2-294733391E9C";
paths = (
{
closed = 1;
nodes = (
"-22 668 LINE",
"-148 693 OFFCURVE",
"-227 784 OFFCURVE",
"-244 920 CURVE",
"-315 905 LINE",
"-289 747 OFFCURVE",
"-178 620 OFFCURVE",
"-28 612 CURVE"
);
}
);
width = 0;
},
{
layerId = "61CE545B-E6AD-45B5-B051-8D1B01C68A7F";
paths = (
{
closed = 1;
nodes = (
"-56 722 LINE",
"-201 740 OFFCURVE",
"-237 859 OFFCURVE",
"-260 993 CURVE",
"-380 974 LINE",
"-350 782 OFFCURVE",
"-263 640 OFFCURVE",
"-65 630 CURVE"
);
}
);
width = 0;
}
);
},
{
glyphname = uni1B03.3;
layers = (
{
layerId = "86689E10-1D55-4C8D-99A2-294733391E9C";
paths = (
{
closed = 1;
nodes = (
"-351 979 OFFCURVE",
"-210 924 OFFCURVE",
"-15 924 CURVE",
"-15 974 LINE",
"-175 977 OFFCURVE",
"-283 1024 OFFCURVE",
"-318 1146 CURVE",
"-387 1121 LINE"
);
}
);
width = 0;
},
{
layerId = "61CE545B-E6AD-45B5-B051-8D1B01C68A7F";
paths = (
{
closed = 1;
nodes = (
"-375 993 OFFCURVE",
"-216 927 OFFCURVE",
"-15 924 CURVE",
"-15 1030 LINE",
"-167 1030 OFFCURVE",
"-282 1086 OFFCURVE",
"-327 1190 CURVE",
"-430 1133 LINE"
);
}
);
width = 0;
}
);
},
{
glyphname = uni1B34_uni1B42_uni1B03;
layers = (
{
components = (
{
alignment = -1;
name = uni1B42.2;
transform = "{1, 0, 0, 1, -115, 14}";
},
{
alignment = -1;
name = uni1B34;
transform = "{1, 0, 0, 1, -385, 138}";
}
);
layerId = "86689E10-1D55-4C8D-99A2-294733391E9C";
paths = (
{
closed = 1;
nodes = (
"-8 667 LINE",
"-113 701 OFFCURVE",
"-156 802 OFFCURVE",
"-163 1004 CURVE",
"-237 990 LINE",
"-222 765 OFFCURVE",
"-143 634 OFFCURVE",
"-15 611 CURVE"
);
}
);
width = 0;
},
{
components = (
{
alignment = -1;
name = uni1B42.2;
transform = "{1, 0, 0, 1, -171, 14}";
},
{
alignment = -1;
name = uni1B34;
transform = "{1, 0, 0, 1, -541, 201}";
}
);
layerId = "61CE545B-E6AD-45B5-B051-8D1B01C68A7F";
paths = (
{
closed = 1;
nodes = (
"13 739 LINE",
"-127 783 OFFCURVE",
"-159 878 OFFCURVE",
"-175 1080 CURVE",
"-292 1058 LINE",
"-264 804 OFFCURVE",
"-183 676 OFFCURVE",
"-7 636 CURVE"
);
}
);
width = 0;
}
);
},
{
glyphname = uni1B36_uni1B00;
layers = (
{
components = (
{
alignment = -1;
name = uni1B36;
transform = "{1, 0, 0, 1, 19, -13}";
}
);
layerId = "86689E10-1D55-4C8D-99A2-294733391E9C";
paths = (
{
closed = 1;
nodes = (
"-438 984 OFFCURVE",
"-415 958 OFFCURVE",
"-378 938 CURVE",
"-354 970 LINE",
"-366 981 OFFCURVE",
"-381 999 OFFCURVE",
"-381 1023 CURVE SMOOTH",
"-381 1053 OFFCURVE",
"-362 1076 OFFCURVE",
"-318 1076 CURVE SMOOTH",
"-281 1076 OFFCURVE",
"-257 1059 OFFCURVE",
"-257 1017 CURVE SMOOTH",
"-257 1000 OFFCURVE",
"-260 980 OFFCURVE",
"-266 960 CURVE",
"-225 953 LINE",
"-210 979 OFFCURVE",
"-199 1008 OFFCURVE",
"-199 1039 CURVE SMOOTH",
"-199 1097 OFFCURVE",
"-240 1132 OFFCURVE",
"-317 1132 CURVE SMOOTH",
"-395 1132 OFFCURVE",
"-438 1091 OFFCURVE",
"-438 1029 CURVE SMOOTH"
);
},
{
closed = 1;
nodes = (
"-632 887 OFFCURVE",
"-623 840 OFFCURVE",
"-605 797 CURVE",
"-549 817 LINE",
"-562 847 OFFCURVE",
"-567 885 OFFCURVE",
"-567 919 CURVE SMOOTH",
"-567 1078 OFFCURVE",
"-468 1178 OFFCURVE",
"-315 1178 CURVE SMOOTH",
"-159 1178 OFFCURVE",
"-54 1077 OFFCURVE",
"-54 920 CURVE SMOOTH",
"-54 883 OFFCURVE",
"-59 841 OFFCURVE",
"-72 808 CURVE",
"-16 788 LINE",
"2 834 OFFCURVE",
"11 885 OFFCURVE",
"11 939 CURVE SMOOTH",
"11 1136 OFFCURVE",
"-113 1253 OFFCURVE",
"-314 1253 CURVE SMOOTH",
"-512 1253 OFFCURVE",
"-632 1136 OFFCURVE",
"-632 938 CURVE SMOOTH"
);
}
);
width = 0;
},
{
components = (
{
alignment = -1;
name = uni1B36;
transform = "{1, 0, 0, 1, 57, 12}";
}
);
layerId = "61CE545B-E6AD-45B5-B051-8D1B01C68A7F";
paths = (
{
closed = 1;
nodes = (
"-457 1018 OFFCURVE",
"-426 978 OFFCURVE",
"-364 957 CURVE",
"-330 990 LINE",
"-355 1010 OFFCURVE",
"-367 1029 OFFCURVE",
"-367 1048 CURVE SMOOTH",
"-367 1075 OFFCURVE",
"-344 1088 OFFCURVE",
"-316 1088 CURVE SMOOTH",
"-279 1088 OFFCURVE",
"-267 1070 OFFCURVE",
"-267 1041 CURVE SMOOTH",
"-267 1027 OFFCURVE",
"-270 1009 OFFCURVE",
"-276 985 CURVE",
"-216 978 LINE",
"-191 1009 OFFCURVE",
"-181 1037 OFFCURVE",
"-181 1068 CURVE SMOOTH",
"-181 1132 OFFCURVE",
"-226 1172 OFFCURVE",
"-314 1172 CURVE SMOOTH",
"-403 1172 OFFCURVE",
"-457 1131 OFFCURVE",
"-457 1066 CURVE SMOOTH"
);
},
{
closed = 1;
nodes = (
"-632 947 OFFCURVE",
"-620 882 OFFCURVE",
"-594 835 CURVE",
"-511 855 LINE",
"-520 889 OFFCURVE",
"-529 932 OFFCURVE",
"-529 982 CURVE SMOOTH",
"-529 1133 OFFCURVE",
"-446 1216 OFFCURVE",
"-315 1216 CURVE SMOOTH",
"-181 1216 OFFCURVE",
"-92 1132 OFFCURVE",
"-92 980 CURVE SMOOTH",
"-92 930 OFFCURVE",
"-101 883 OFFCURVE",
"-110 846 CURVE",
"-28 826 LINE",
"-1 876 OFFCURVE",
"11 945 OFFCURVE",
"11 1010 CURVE SMOOTH",
"11 1216 OFFCURVE",
"-113 1328 OFFCURVE",
"-314 1328 CURVE SMOOTH",
"-512 1328 OFFCURVE",
"-632 1215 OFFCURVE",
"-632 1012 CURVE SMOOTH"
);
}
);
width = 0;
}
);
},
{
glyphname = uni1B37_uni1B00;
layers = (
{
components = (
{
alignment = -1;
name = uni1B36_uni1B00;
}
);
layerId = "86689E10-1D55-4C8D-99A2-294733391E9C";
paths = (
{
closed = 1;
nodes = (
"-337 767 OFFCURVE",
"-328 737 OFFCURVE",
"-319 699 CURVE",
"-282 709 LINE",
"-288 749 OFFCURVE",
"-296 781 OFFCURVE",
"-307 805 CURVE",
"-348 790 LINE"
);
}
);
width = 0;
},
{
components = (
{
alignment = -1;
name = uni1B36_uni1B00;
}
);
layerId = "61CE545B-E6AD-45B5-B051-8D1B01C68A7F";
paths = (
{
closed = 1;
nodes = (
"-317 759 OFFCURVE",
"-306 728 OFFCURVE",
"-296 688 CURVE",
"-251 701 LINE",
"-258 742 OFFCURVE",
"-268 776 OFFCURVE",
"-282 802 CURVE",
"-330 783 LINE"
);
}
);
width = 0;
}
);
},
{
glyphname = uni1B37_uni1B02_uni1B03;
layers = (
{
components = (
{
alignment = -1;
name = uni1B36_uni1B02_uni1B03;
}
);
layerId = "86689E10-1D55-4C8D-99A2-294733391E9C";
paths = (
{
closed = 1;
nodes = (
"-481 775 OFFCURVE",
"-471 740 OFFCURVE",
"-461 697 CURVE",
"-417 709 LINE",
"-424 756 OFFCURVE",
"-434 794 OFFCURVE",
"-447 823 CURVE",
"-494 802 LINE"
);
}
);
width = 0;
},
{
components = (
{
alignment = -1;
name = uni1B36_uni1B02_uni1B03;
}
);
layerId = "61CE545B-E6AD-45B5-B051-8D1B01C68A7F";
paths = (
{
closed = 1;
nodes = (
"-489 763 OFFCURVE",
"-479 733 OFFCURVE",
"-469 697 CURVE",
"-425 709 LINE",
"-432 749 OFFCURVE",
"-442 782 OFFCURVE",
"-455 807 CURVE",
"-502 786 LINE"
);
}
);
width = 0;
}
);
},
{
glyphname = uni1B38.2;
layers = (
{
layerId = "86689E10-1D55-4C8D-99A2-294733391E9C";
paths = (
{
closed = 1;
nodes = (
"-141 -741 OFFCURVE",
"-155 -758 OFFCURVE",
"-180 -758 CURVE SMOOTH",
"-201 -758 OFFCURVE",
"-211 -747 OFFCURVE",
"-211 -726 CURVE SMOOTH",
"-211 -695 OFFCURVE",
"-190 -653 OFFCURVE",
"-128 -599 CURVE",
"-74 -472 LINE",
"-162 -537 OFFCURVE",
"-290 -636 OFFCURVE",
"-290 -730 CURVE SMOOTH",
"-290 -790 OFFCURVE",
"-239 -829 OFFCURVE",
"-177 -829 CURVE SMOOTH",
"-119 -829 OFFCURVE",
"-60 -794 OFFCURVE",
"-60 -688 CURVE SMOOTH",
"-60 -472 LINE",
"-74 -472 LINE",
"-151 -534 LINE",
"-141 -544 LINE",
"-141 -704 LINE SMOOTH"
);
}
);
width = 0;
},
{
layerId = "61CE545B-E6AD-45B5-B051-8D1B01C68A7F";
paths = (
{
closed = 1;
nodes = (
"-168 -699 OFFCURVE",
"-184 -716 OFFCURVE",
"-213 -716 CURVE SMOOTH",
"-238 -716 OFFCURVE",
"-249 -705 OFFCURVE",
"-249 -695 CURVE SMOOTH",
"-249 -667 OFFCURVE",
"-173 -622 OFFCURVE",
"-143 -605 CURVE",
"-104 -472 LINE",
"-217 -532 OFFCURVE",
"-365 -611 OFFCURVE",
"-365 -711 CURVE SMOOTH",
"-365 -778 OFFCURVE",
"-301 -829 OFFCURVE",
"-216 -829 CURVE SMOOTH",
"-140 -829 OFFCURVE",
"-60 -788 OFFCURVE",
"-60 -644 CURVE SMOOTH",
"-60 -472 LINE",
"-104 -472 LINE",
"-172 -516 LINE",
"-168 -542 LINE",
"-168 -662 LINE SMOOTH"
);
}
);
width = 0;
}
);
},
{
glyphname = uni1B38.3;
layers = (
{
layerId = "86689E10-1D55-4C8D-99A2-294733391E9C";
paths = (
{
closed = 1;
nodes = (
"-101 -400 OFFCURVE",
"-51 -373 OFFCURVE",
"-21 -373 CURVE SMOOTH",
"-3 -373 OFFCURVE",
"1 -383 OFFCURVE",
"1 -396 CURVE SMOOTH",
"1 -453 OFFCURVE",
"-46 -620 OFFCURVE",
"-95 -775 CURVE",
"-78 -819 LINE",
"-17 -819 LINE SMOOTH",
"129 -819 OFFCURVE",
"163 -749 OFFCURVE",
"163 -620 CURVE SMOOTH",
"163 -615 LINE",
"88 -615 LINE",
"88 -633 LINE SMOOTH",
"88 -708 OFFCURVE",
"73 -748 OFFCURVE",
"-5 -748 CURVE SMOOTH",
"-23 -748 LINE",
"-14 -761 LINE",
"23 -641 OFFCURVE",
"76 -462 OFFCURVE",
"76 -380 CURVE SMOOTH",
"76 -339 OFFCURVE",
"61 -297 OFFCURVE",
"3 -297 CURVE SMOOTH",
"-45 -297 OFFCURVE",
"-102 -325 OFFCURVE",
"-120 -338 CURVE",
"-120 -412 LINE"
);
}
);
width = 0;
},
{
layerId = "61CE545B-E6AD-45B5-B051-8D1B01C68A7F";
paths = (
{
closed = 1;
nodes = (
"-87 -411 OFFCURVE",
"-41 -387 OFFCURVE",
"-18 -387 CURVE SMOOTH",
"-5 -387 OFFCURVE",
"-1 -398 OFFCURVE",
"-1 -413 CURVE SMOOTH",
"-1 -450 OFFCURVE",
"-49 -635 OFFCURVE",
"-86 -755 CURVE",
"-62 -819 LINE",
"16 -819 LINE SMOOTH",
"155 -819 OFFCURVE",
"214 -744 OFFCURVE",
"214 -650 CURVE SMOOTH",
"214 -611 LINE",
"101 -611 LINE",
"101 -636 LINE SMOOTH",
"101 -690 OFFCURVE",
"84 -703 OFFCURVE",
"41 -703 CURVE SMOOTH",
"-29 -703 LINE",
"13 -776 LINE",
"45 -688 OFFCURVE",
"108 -479 OFFCURVE",
"108 -382 CURVE SMOOTH",
"108 -326 OFFCURVE",
"79 -275 OFFCURVE",
"25 -275 CURVE SMOOTH",
"-20 -275 OFFCURVE",
"-95 -310 OFFCURVE",
"-118 -324 CURVE",
"-118 -430 LINE"
);
}
);
width = 0;
}
);
},
{
glyphname = uni1B38.4;
layers = (
{
layerId = "86689E10-1D55-4C8D-99A2-294733391E9C";
paths = (
{
closed = 1;
nodes = (
"-22 -456 OFFCURVE",
"1 -488 OFFCURVE",
"1 -541 CURVE SMOOTH",
"1 -602 OFFCURVE",
"-18 -681 OFFCURVE",
"-44 -775 CURVE",
"-28 -819 LINE",
"13 -819 LINE SMOOTH",
"125 -819 OFFCURVE",
"185 -755 OFFCURVE",
"185 -630 CURVE SMOOTH",
"185 -614 LINE",
"110 -614 LINE",
"110 -655 LINE SMOOTH",
"110 -712 OFFCURVE",
"77 -740 OFFCURVE",
"31 -740 CURVE SMOOTH",
"-10 -740 LINE",
"34 -762 LINE",
"52 -690 OFFCURVE",
"75 -595 OFFCURVE",
"75 -537 CURVE SMOOTH",
"75 -452 OFFCURVE",
"18 -401 OFFCURVE",
"-100 -328 CURVE",
"-100 -413 LINE"
);
}
);
width = 0;
},
{
layerId = "61CE545B-E6AD-45B5-B051-8D1B01C68A7F";
paths = (
{
closed = 1;
nodes = (
"-12 -432 OFFCURVE",
"5 -465 OFFCURVE",
"5 -506 CURVE SMOOTH",
"5 -561 OFFCURVE",
"-23 -661 OFFCURVE",
"-50 -754 CURVE",
"-27 -819 LINE",
"69 -819 LINE SMOOTH",
"177 -819 OFFCURVE",
"247 -745 OFFCURVE",
"247 -620 CURVE SMOOTH",
"247 -589 LINE",
"134 -589 LINE",
"134 -625 LINE SMOOTH",
"134 -677 OFFCURVE",
"114 -702 OFFCURVE",
"70 -702 CURVE SMOOTH",
"53 -702 LINE",
"74 -715 LINE",
"96 -637 OFFCURVE",
"117 -557 OFFCURVE",
"117 -499 CURVE SMOOTH",
"117 -381 OFFCURVE",
"20 -318 OFFCURVE",
"-100 -259 CURVE",
"-100 -402 LINE"
);
}
);
width = 0;
}
);
},
{
glyphname = uni1B39.2;
layers = (
{
layerId = "86689E10-1D55-4C8D-99A2-294733391E9C";
paths = (
{
closed = 1;
nodes = (
"-175 -682 OFFCURVE",
"-150 -702 OFFCURVE",
"-150 -723 CURVE SMOOTH",
"-150 -744 OFFCURVE",
"-164 -761 OFFCURVE",
"-219 -772 CURVE",
"-202 -829 LINE",
"-100 -813 OFFCURVE",
"-82 -763 OFFCURVE",
"-82 -723 CURVE SMOOTH",
"-82 -686 OFFCURVE",
"-102 -651 OFFCURVE",
"-170 -628 CURVE",
"-122 -569 LINE",
"-172 -552 LINE",
"-251 -644 LINE",
"-247 -662 LINE"
);
}
);
width = 0;
},
{
layerId = "61CE545B-E6AD-45B5-B051-8D1B01C68A7F";
paths = (
{
closed = 1;
nodes = (
"-284 -692 OFFCURVE",
"-249 -701 OFFCURVE",
"-249 -726 CURVE SMOOTH",
"-249 -747 OFFCURVE",
"-278 -758 OFFCURVE",
"-320 -771 CURVE",
"-217 -829 LINE",
"-131 -815 OFFCURVE",
"-93 -769 OFFCURVE",
"-93 -728 CURVE SMOOTH",
"-93 -688 OFFCURVE",
"-126 -662 OFFCURVE",
"-180 -649 CURVE",
"-143 -594 LINE",
"-272 -566 LINE",
"-347 -650 LINE",
"-323 -689 LINE"
);
}
);
width = 0;
}
);
},
{
glyphname = uni1B39.3;
layers = (
{
layerId = "86689E10-1D55-4C8D-99A2-294733391E9C";
paths = (
{
closed = 1;
nodes = (
"-62 -386 OFFCURVE",
"-19 -365 OFFCURVE",
"20 -365 CURVE SMOOTH",
"65 -365 OFFCURVE",
"87 -392 OFFCURVE",
"87 -430 CURVE SMOOTH",
"87 -478 OFFCURVE",
"53 -510 OFFCURVE",
"-1 -512 CURVE SMOOTH",
"-30 -513 LINE",
"-30 -579 LINE",
"-9 -579 LINE SMOOTH",
"67 -579 OFFCURVE",
"101 -624 OFFCURVE",
"101 -677 CURVE SMOOTH",
"101 -733 OFFCURVE",
"63 -757 OFFCURVE",
"22 -757 CURVE SMOOTH",
"-5 -757 OFFCURVE",
"-35 -747 OFFCURVE",
"-73 -725 CURVE",
"-99 -788 LINE",
"-70 -807 OFFCURVE",
"-28 -829 OFFCURVE",
"27 -829 CURVE SMOOTH",
"117 -829 OFFCURVE",
"175 -771 OFFCURVE",
"175 -687 CURVE SMOOTH",
"175 -626 OFFCURVE",
"146 -577 OFFCURVE",
"85 -549 CURVE",
"85 -544 LINE",
"130 -522 OFFCURVE",
"161 -481 OFFCURVE",
"161 -422 CURVE SMOOTH",
"161 -355 OFFCURVE",
"121 -295 OFFCURVE",
"33 -295 CURVE SMOOTH",
"-16 -295 OFFCURVE",
"-62 -316 OFFCURVE",
"-100 -339 CURVE",
"-100 -414 LINE"
);
}
);
width = 0;
},
{
layerId = "61CE545B-E6AD-45B5-B051-8D1B01C68A7F";
paths = (
{
closed = 1;
nodes = (
"-43 -398 OFFCURVE",
"-11 -387 OFFCURVE",
"14 -387 CURVE SMOOTH",
"50 -387 OFFCURVE",
"66 -410 OFFCURVE",
"66 -435 CURVE SMOOTH",
"66 -468 OFFCURVE",
"39 -487 OFFCURVE",
"4 -487 CURVE SMOOTH",
"1 -487 LINE",
"1 -591 LINE",
"10 -591 LINE SMOOTH",
"62 -591 OFFCURVE",
"88 -615 OFFCURVE",
"88 -647 CURVE SMOOTH",
"88 -677 OFFCURVE",
"65 -700 OFFCURVE",
"31 -700 CURVE SMOOTH",
"12 -700 OFFCURVE",
"-10 -693 OFFCURVE",
"-34 -678 CURVE",
"-80 -789 LINE",
"-33 -821 OFFCURVE",
"11 -829 OFFCURVE",
"44 -829 CURVE SMOOTH",
"134 -829 OFFCURVE",
"208 -773 OFFCURVE",
"208 -681 CURVE SMOOTH",
"208 -623 OFFCURVE",
"179 -567 OFFCURVE",
"105 -538 CURVE",
"105 -533 LINE",
"154 -507 OFFCURVE",
"184 -468 OFFCURVE",
"184 -406 CURVE SMOOTH",
"184 -316 OFFCURVE",
"118 -275 OFFCURVE",
"47 -275 CURVE SMOOTH",
"5 -275 OFFCURVE",
"-39 -289 OFFCURVE",
"-84 -313 CURVE",
"-84 -421 LINE"
);
}
);
width = 0;
}
);
},
{
glyphname = uni1B39.4;
layers = (
{
layerId = "86689E10-1D55-4C8D-99A2-294733391E9C";
paths = (
{
closed = 1;
nodes = (
"-42 -813 OFFCURVE",
"-8 -829 OFFCURVE",
"29 -829 CURVE SMOOTH",
"88 -829 OFFCURVE",
"145 -786 OFFCURVE",
"145 -715 CURVE SMOOTH",
"145 -661 OFFCURVE",
"115 -619 OFFCURVE",
"53 -593 CURVE",
"88 -570 OFFCURVE",
"113 -544 OFFCURVE",
"113 -501 CURVE SMOOTH",
"113 -428 OFFCURVE",
"40 -376 OFFCURVE",
"-100 -302 CURVE",
"-100 -375 LINE",
"-8 -429 OFFCURVE",
"39 -457 OFFCURVE",
"39 -503 CURVE SMOOTH",
"39 -535 OFFCURVE",
"17 -558 OFFCURVE",
"-26 -570 CURVE",
"-26 -631 LINE",
"34 -641 OFFCURVE",
"71 -666 OFFCURVE",
"71 -711 CURVE SMOOTH",
"71 -742 OFFCURVE",
"48 -757 OFFCURVE",
"24 -757 CURVE SMOOTH",
"5 -757 OFFCURVE",
"-16 -748 OFFCURVE",
"-46 -726 CURVE",
"-71 -789 LINE"
);
}
);
width = 0;
},
{
layerId = "61CE545B-E6AD-45B5-B051-8D1B01C68A7F";
paths = (
{
closed = 1;
nodes = (
"-51 -811 OFFCURVE",
"-1 -829 OFFCURVE",
"55 -829 CURVE SMOOTH",
"155 -829 OFFCURVE",
"209 -772 OFFCURVE",
"209 -701 CURVE SMOOTH",
"209 -648 OFFCURVE",
"179 -605 OFFCURVE",
"131 -584 CURVE",
"177 -563 OFFCURVE",
"204 -525 OFFCURVE",
"204 -484 CURVE SMOOTH",
"204 -420 OFFCURVE",
"141 -341 OFFCURVE",
"-101 -274 CURVE",
"-101 -399 LINE",
"51 -440 OFFCURVE",
"73 -470 OFFCURVE",
"73 -492 CURVE SMOOTH",
"73 -516 OFFCURVE",
"48 -533 OFFCURVE",
"18 -539 CURVE",
"18 -619 LINE",
"46 -624 OFFCURVE",
"73 -641 OFFCURVE",
"73 -670 CURVE SMOOTH",
"73 -692 OFFCURVE",
"59 -706 OFFCURVE",
"32 -706 CURVE SMOOTH",
"11 -706 OFFCURVE",
"-10 -697 OFFCURVE",
"-27 -688 CURVE",
"-72 -796 LINE"
);
}
);
width = 0;
}
);
},
{
glyphname = uni1B3A.3;
layers = (
{
components = (
{
alignment = -1;
name = uni1B23.td.part;
transform = "{0.83546, 0, 0, 0.83546, -622, -760}";
}
);
layerId = "86689E10-1D55-4C8D-99A2-294733391E9C";
paths = (
{
closed = 1;
nodes = (
"-71 -829 OFFCURVE",
"6 -779 OFFCURVE",
"6 -701 CURVE SMOOTH",
"6 -637 OFFCURVE",
"-42 -596 OFFCURVE",
"-138 -558 CURVE",
"-167 -614 LINE",
"-105 -638 OFFCURVE",
"-73 -663 OFFCURVE",
"-73 -696 CURVE SMOOTH",
"-73 -742 OFFCURVE",
"-135 -757 OFFCURVE",
"-206 -757 CURVE SMOOTH",
"-297 -757 OFFCURVE",
"-370 -732 OFFCURVE",
"-417 -651 CURVE",
"-475 -683 LINE",
"-441 -771 OFFCURVE",
"-348 -829 OFFCURVE",
"-203 -829 CURVE SMOOTH"
);
}
);
width = 0;
},
{
components = (
{
alignment = -1;
name = uni1B23.td.part;
transform = "{0.74231, 0, 0, 0.74231, -664, -762}";
}
);
layerId = "61CE545B-E6AD-45B5-B051-8D1B01C68A7F";
paths = (
{
closed = 1;
nodes = (
"-65 -829 OFFCURVE",
"15 -787 OFFCURVE",
"15 -700 CURVE SMOOTH",
"15 -639 OFFCURVE",
"-25 -596 OFFCURVE",
"-105 -558 CURVE",
"-177 -622 LINE",
"-124 -644 OFFCURVE",
"-98 -669 OFFCURVE",
"-98 -688 CURVE SMOOTH",
"-98 -714 OFFCURVE",
"-147 -720 OFFCURVE",
"-199 -720 CURVE SMOOTH",
"-297 -720 OFFCURVE",
"-373 -699 OFFCURVE",
"-417 -650 CURVE",
"-522 -695 LINE",
"-474 -785 OFFCURVE",
"-350 -829 OFFCURVE",
"-205 -829 CURVE SMOOTH"
);
}
);
width = 0;
}
);
},
{
glyphname = uni1B42.2;
layers = (
{
layerId = "86689E10-1D55-4C8D-99A2-294733391E9C";
paths = (
{
closed = 1;
nodes = (
"-538 674 OFFCURVE",
"-475 635 OFFCURVE",
"-392 617 CURVE",
"-369 656 LINE",
"-387 683 OFFCURVE",
"-405 728 OFFCURVE",
"-405 783 CURVE SMOOTH",
"-405 862 OFFCURVE",
"-373 935 OFFCURVE",
"-296 935 CURVE SMOOTH",
"-267 935 OFFCURVE",
"-247 924 OFFCURVE",
"-247 902 CURVE SMOOTH",
"-247 874 OFFCURVE",
"-278 849 OFFCURVE",
"-359 820 CURVE",
"-342 770 LINE",
"-222 798 OFFCURVE",
"-165 845 OFFCURVE",
"-165 908 CURVE SMOOTH",
"-165 966 OFFCURVE",
"-214 1004 OFFCURVE",
"-292 1004 CURVE SMOOTH",
"-402 1004 OFFCURVE",
"-471 929 OFFCURVE",
"-471 816 CURVE SMOOTH",
"-471 764 OFFCURVE",
"-456 716 OFFCURVE",
"-429 664 CURVE",
"-422 684 LINE",
"-454 701 OFFCURVE",
"-497 726 OFFCURVE",
"-537 760 CURVE",
"-585 720 LINE"
);
}
);
width = 0;
},
{
layerId = "61CE545B-E6AD-45B5-B051-8D1B01C68A7F";
paths = (
{
closed = 1;
nodes = (
"-663 701 OFFCURVE",
"-599 650 OFFCURVE",
"-498 617 CURVE",
"-450 656 LINE",
"-462 700 OFFCURVE",
"-468 734 OFFCURVE",
"-468 789 CURVE SMOOTH",
"-468 853 OFFCURVE",
"-427 957 OFFCURVE",
"-338 957 CURVE SMOOTH",
"-306 957 OFFCURVE",
"-291 944 OFFCURVE",
"-291 923 CURVE SMOOTH",
"-291 892 OFFCURVE",
"-323 869 OFFCURVE",
"-407 832 CURVE",
"-385 770 LINE",
"-237 807 OFFCURVE",
"-163 865 OFFCURVE",
"-163 946 CURVE SMOOTH",
"-163 1018 OFFCURVE",
"-222 1069 OFFCURVE",
"-322 1069 CURVE SMOOTH",
"-468 1069 OFFCURVE",
"-573 960 OFFCURVE",
"-573 825 CURVE SMOOTH",
"-573 811 OFFCURVE",
"-572 769 OFFCURVE",
"-543 715 CURVE",
"-531 727 LINE",
"-568 757 OFFCURVE",
"-588 781 OFFCURVE",
"-612 831 CURVE",
"-697 775 LINE"
);
}
);
width = 0;
}
);
},
{
glyphname = uni1B42_uni1B02;
layers = (
{
components = (
{
alignment = -1;
name = uni1B42.2;
transform = "{1, 0, 0, 1, -34, 3}";
}
);
layerId = "86689E10-1D55-4C8D-99A2-294733391E9C";
paths = (
{
closed = 1;
nodes = (
"-137 950 OFFCURVE",
"-115 912 OFFCURVE",
"-115 860 CURVE SMOOTH",
"-115 796 OFFCURVE",
"-142 706 OFFCURVE",
"-171 639 CURVE",
"-119 616 LINE",
"-68 717 OFFCURVE",
"-43 801 OFFCURVE",
"-43 870 CURVE SMOOTH",
"-43 951 OFFCURVE",
"-81 998 OFFCURVE",
"-158 1024 CURVE",
"-185 977 LINE"
);
}
);
width = 0;
},
{
components = (
{
alignment = -1;
name = uni1B42.2;
transform = "{1, 0, 0, 1, -85, 3}";
}
);
layerId = "61CE545B-E6AD-45B5-B051-8D1B01C68A7F";
paths = (
{
closed = 1;
nodes = (
"-168 975 OFFCURVE",
"-140 950 OFFCURVE",
"-140 876 CURVE SMOOTH",
"-140 807 OFFCURVE",
"-164 723 OFFCURVE",
"-206 654 CURVE",
"-133 620 LINE",
"-59 723 OFFCURVE",
"-18 818 OFFCURVE",
"-18 902 CURVE SMOOTH",
"-18 999 OFFCURVE",
"-74 1060 OFFCURVE",
"-187 1080 CURVE",
"-223 989 LINE"
);
}
);
width = 0;
}
);
},
{
glyphname = uni1B42_uni1B03;
layers = (
{
components = (
{
alignment = -1;
name = uni1B42.2;
transform = "{1, 0, 0, 1, -205, 0}";
}
);
layerId = "86689E10-1D55-4C8D-99A2-294733391E9C";
paths = (
{
closed = 1;
nodes = (
"-343 891 OFFCURVE",
"-313 801 OFFCURVE",
"-262 735 CURVE SMOOTH",
"-208 665 OFFCURVE",
"-130 624 OFFCURVE",
"-28 624 CURVE",
"-28 679 LINE",
"-98 679 OFFCURVE",
"-155 713 OFFCURVE",
"-197 767 CURVE SMOOTH",
"-244 828 OFFCURVE",
"-270 913 OFFCURVE",
"-275 1005 CURVE",
"-350 993 LINE"
);
}
);
width = 0;
},
{
components = (
{
alignment = -1;
name = uni1B42.2;
transform = "{1, 0, 0, 1, -205, -1}";
}
);
layerId = "61CE545B-E6AD-45B5-B051-8D1B01C68A7F";
paths = (
{
closed = 1;
nodes = (
"-291 881 OFFCURVE",
"-235 789 OFFCURVE",
"-161 725 CURVE SMOOTH",
"-87 661 OFFCURVE",
"-6 632 OFFCURVE",
"86 624 CURVE",
"86 730 LINE",
"-1 747 OFFCURVE",
"-66 781 OFFCURVE",
"-112 836 CURVE SMOOTH",
"-156 889 OFFCURVE",
"-194 961 OFFCURVE",
"-221 1053 CURVE",
"-329 1013 LINE"
);
}
);
width = 0;
}
);
},
{
glyphname = uni1B13.conj;
layers = (
{
components = (
{
alignment = -1;
name = uni1B13.conj.part;
}
);
layerId = "86689E10-1D55-4C8D-99A2-294733391E9C";
paths = (
{
closed = 1;
nodes = (
"-60 -537 LINE",
"-60 -353 LINE",
"-141 -353 LINE",
"-141 -537 LINE"
);
}
);
width = 0;
},
{
components = (
{
alignment = -1;
name = uni1B13.conj.part;
}
);
layerId = "61CE545B-E6AD-45B5-B051-8D1B01C68A7F";
paths = (
{
closed = 1;
nodes = (
"-60 -537 LINE",
"-60 -375 LINE",
"-197 -375 LINE",
"-197 -537 LINE"
);
}
);
width = 0;
}
);
},
{
glyphname = uni1B14.conj;
layers = (
{
components = (
{
alignment = -1;
name = uni1B13.conj.part;
transform = "{1, 0, 0, 1, -40, 0}";
}
);
layerId = "86689E10-1D55-4C8D-99A2-294733391E9C";
paths = (
{
closed = 1;
nodes = (
"-181 -510 OFFCURVE",
"-141 -547 OFFCURVE",
"-81 -547 CURVE SMOOTH",
"-4 -547 OFFCURVE",
"63 -486 OFFCURVE",
"137 -367 CURVE",
"82 -330 LINE",
"19 -424 OFFCURVE",
"-33 -475 OFFCURVE",
"-70 -475 CURVE SMOOTH",
"-89 -475 OFFCURVE",
"-100 -461 OFFCURVE",
"-100 -433 CURVE SMOOTH",
"-100 -365 LINE",
"-181 -365 LINE",
"-181 -435 LINE SMOOTH"
);
}
);
width = 0;
},
{
components = (
{
alignment = -1;
name = uni1B13.conj.part;
transform = "{1, 0, 0, 1, -40, 0}";
}
);
layerId = "61CE545B-E6AD-45B5-B051-8D1B01C68A7F";
paths = (
{
closed = 1;
nodes = (
"-237 -491 OFFCURVE",
"-186 -547 OFFCURVE",
"-94 -547 CURVE SMOOTH",
"-19 -547 OFFCURVE",
"72 -509 OFFCURVE",
"151 -381 CURVE",
"69 -322 LINE",
"19 -387 OFFCURVE",
"-34 -418 OFFCURVE",
"-66 -418 CURVE SMOOTH",
"-90 -418 OFFCURVE",
"-100 -400 OFFCURVE",
"-100 -380 CURVE SMOOTH",
"-100 -372 LINE",
"-237 -372 LINE",
"-237 -381 LINE SMOOTH"
);
}
);
width = 0;
}
);
},
{
glyphname = uni1B15.conj;
layers = (
{
layerId = "86689E10-1D55-4C8D-99A2-294733391E9C";
paths = (
{
closed = 1;
nodes = (
"-683 -270 LINE",
"-671 -198 OFFCURVE",
"-648 -156 OFFCURVE",
"-612 -156 CURVE SMOOTH",
"-603 -156 OFFCURVE",
"-593 -159 OFFCURVE",
"-581 -166 CURVE",
"-589 -128 LINE",
"-636 -217 OFFCURVE",
"-662 -328 OFFCURVE",
"-662 -398 CURVE SMOOTH",
"-662 -509 OFFCURVE",
"-600 -547 OFFCURVE",
"-491 -547 CURVE",
"-426 -523 LINE",
"-448 -466 OFFCURVE",
"-461 -399 OFFCURVE",
"-461 -352 CURVE SMOOTH",
"-461 -246 OFFCURVE",
"-397 -162 OFFCURVE",
"-290 -162 CURVE SMOOTH",
"-219 -162 OFFCURVE",
"-141 -198 OFFCURVE",
"-141 -321 CURVE SMOOTH",
"-141 -537 LINE",
"-60 -537 LINE",
"-60 -317 LINE SMOOTH",
"-60 -148 OFFCURVE",
"-181 -92 OFFCURVE",
"-290 -92 CURVE SMOOTH",
"-453 -92 OFFCURVE",
"-536 -212 OFFCURVE",
"-536 -349 CURVE SMOOTH",
"-536 -405 OFFCURVE",
"-521 -461 OFFCURVE",
"-503 -507 CURVE",
"-474 -482 LINE",
"-550 -482 OFFCURVE",
"-586 -470 OFFCURVE",
"-586 -391 CURVE SMOOTH",
"-586 -330 OFFCURVE",
"-565 -226 OFFCURVE",
"-521 -126 CURVE",
"-536 -108 OFFCURVE",
"-561 -92 OFFCURVE",
"-604 -92 CURVE SMOOTH",
"-684 -92 OFFCURVE",
"-729 -148 OFFCURVE",
"-729 -266 CURVE"
);
}
);
width = 0;
},
{
layerId = "61CE545B-E6AD-45B5-B051-8D1B01C68A7F";
paths = (
{
closed = 1;
nodes = (
"-726 -315 LINE",
"-713 -238 OFFCURVE",
"-697 -192 OFFCURVE",
"-663 -192 CURVE SMOOTH",
"-648 -192 OFFCURVE",
"-618 -202 OFFCURVE",
"-599 -210 CURVE",
"-638 -177 LINE",
"-684 -250 OFFCURVE",
"-702 -310 OFFCURVE",
"-702 -370 CURVE SMOOTH",
"-702 -500 OFFCURVE",
"-621 -547 OFFCURVE",
"-480 -547 CURVE",
"-388 -502 LINE",
"-406 -447 OFFCURVE",
"-416 -401 OFFCURVE",
"-416 -360 CURVE SMOOTH",
"-416 -280 OFFCURVE",
"-377 -216 OFFCURVE",
"-301 -216 CURVE SMOOTH",
"-253 -216 OFFCURVE",
"-197 -242 OFFCURVE",
"-197 -356 CURVE SMOOTH",
"-197 -537 LINE",
"-60 -537 LINE",
"-60 -352 LINE SMOOTH",
"-60 -150 OFFCURVE",
"-184 -92 OFFCURVE",
"-297 -92 CURVE SMOOTH",
"-459 -92 OFFCURVE",
"-539 -215 OFFCURVE",
"-539 -343 CURVE SMOOTH",
"-539 -386 OFFCURVE",
"-530 -426 OFFCURVE",
"-512 -458 CURVE",
"-505 -434 LINE",
"-549 -426 OFFCURVE",
"-588 -414 OFFCURVE",
"-588 -362 CURVE SMOOTH",
"-588 -324 OFFCURVE",
"-567 -246 OFFCURVE",
"-523 -141 CURVE",
"-554 -118 OFFCURVE",
"-592 -92 OFFCURVE",
"-651 -92 CURVE SMOOTH",
"-746 -92 OFFCURVE",
"-811 -162 OFFCURVE",
"-811 -308 CURVE"
);
}
);
width = 0;
}
);
},
{
glyphname = uni1B16.conj.1;
layers = (
{
layerId = "86689E10-1D55-4C8D-99A2-294733391E9C";
paths = (
{
closed = 1;
nodes = (
"-1002 -270 LINE",
"-990 -194 OFFCURVE",
"-967 -149 OFFCURVE",
"-931 -149 CURVE SMOOTH",
"-921 -149 OFFCURVE",
"-912 -153 OFFCURVE",
"-900 -160 CURVE",
"-908 -128 LINE",
"-955 -217 OFFCURVE",
"-981 -328 OFFCURVE",
"-981 -399 CURVE SMOOTH",
"-981 -505 OFFCURVE",
"-894 -540 OFFCURVE",
"-744 -547 CURVE",
"-718 -517 LINE",
"-746 -450 OFFCURVE",
"-761 -396 OFFCURVE",
"-761 -347 CURVE SMOOTH",
"-761 -257 OFFCURVE",
"-710 -164 OFFCURVE",
"-628 -164 CURVE SMOOTH",
"-578 -164 OFFCURVE",
"-551 -197 OFFCURVE",
"-551 -273 CURVE SMOOTH",
"-551 -376 LINE SMOOTH",
"-551 -500 OFFCURVE",
"-496 -547 OFFCURVE",
"-406 -547 CURVE SMOOTH",
"-355 -547 OFFCURVE",
"-318 -531 OFFCURVE",
"-297 -481 CURVE",
"-280 -525 OFFCURVE",
"-244 -546 OFFCURVE",
"-188 -546 CURVE SMOOTH",
"-91 -546 OFFCURVE",
"-33 -489 OFFCURVE",
"-33 -382 CURVE SMOOTH",
"-33 -261 OFFCURVE",
"-112 -155 OFFCURVE",
"-231 -93 CURVE",
"-263 -148 LINE",
"-183 -200 OFFCURVE",
"-114 -278 OFFCURVE",
"-114 -373 CURVE SMOOTH",
"-114 -435 OFFCURVE",
"-142 -474 OFFCURVE",
"-189 -474 CURVE SMOOTH",
"-227 -474 OFFCURVE",
"-260 -448 OFFCURVE",
"-260 -390 CURVE SMOOTH",
"-260 -360 LINE",
"-339 -360 LINE",
"-339 -401 LINE SMOOTH",
"-339 -447 OFFCURVE",
"-358 -475 OFFCURVE",
"-403 -475 CURVE SMOOTH",
"-434 -475 OFFCURVE",
"-471 -463 OFFCURVE",
"-471 -374 CURVE SMOOTH",
"-471 -269 LINE SMOOTH",
"-471 -150 OFFCURVE",
"-520 -92 OFFCURVE",
"-618 -92 CURVE SMOOTH",
"-761 -92 OFFCURVE",
"-838 -224 OFFCURVE",
"-838 -339 CURVE SMOOTH",
"-838 -372 OFFCURVE",
"-832 -427 OFFCURVE",
"-815 -469 CURVE",
"-780 -466 LINE",
"-854 -459 OFFCURVE",
"-905 -452 OFFCURVE",
"-905 -391 CURVE SMOOTH",
"-905 -330 OFFCURVE",
"-884 -226 OFFCURVE",
"-840 -126 CURVE",
"-855 -108 OFFCURVE",
"-880 -92 OFFCURVE",
"-923 -92 CURVE SMOOTH",
"-1003 -92 OFFCURVE",
"-1048 -148 OFFCURVE",
"-1048 -266 CURVE"
);
}
);
width = 0;
},
{
layerId = "61CE545B-E6AD-45B5-B051-8D1B01C68A7F";
paths = (
{
closed = 1;
nodes = (
"-1049 -315 LINE",
"-1037 -238 OFFCURVE",
"-1021 -192 OFFCURVE",
"-988 -192 CURVE SMOOTH",
"-975 -192 OFFCURVE",
"-945 -199 OFFCURVE",
"-927 -206 CURVE",
"-964 -177 LINE",
"-1010 -250 OFFCURVE",
"-1029 -310 OFFCURVE",
"-1029 -367 CURVE SMOOTH",
"-1029 -499 OFFCURVE",
"-928 -546 OFFCURVE",
"-753 -546 CURVE",
"-699 -484 LINE",
"-724 -442 OFFCURVE",
"-741 -394 OFFCURVE",
"-741 -346 CURVE SMOOTH",
"-741 -277 OFFCURVE",
"-707 -214 OFFCURVE",
"-652 -214 CURVE SMOOTH",
"-619 -214 OFFCURVE",
"-601 -237 OFFCURVE",
"-601 -279 CURVE SMOOTH",
"-601 -359 LINE SMOOTH",
"-601 -494 OFFCURVE",
"-529 -547 OFFCURVE",
"-440 -547 CURVE SMOOTH",
"-379 -547 OFFCURVE",
"-337 -522 OFFCURVE",
"-324 -484 CURVE",
"-310 -524 OFFCURVE",
"-263 -547 OFFCURVE",
"-203 -547 CURVE SMOOTH",
"-101 -547 OFFCURVE",
"-33 -474 OFFCURVE",
"-33 -369 CURVE SMOOTH",
"-33 -252 OFFCURVE",
"-118 -147 OFFCURVE",
"-243 -87 CURVE",
"-305 -183 LINE",
"-232 -225 OFFCURVE",
"-171 -288 OFFCURVE",
"-171 -363 CURVE SMOOTH",
"-171 -401 OFFCURVE",
"-187 -426 OFFCURVE",
"-217 -426 CURVE SMOOTH",
"-241 -426 OFFCURVE",
"-262 -410 OFFCURVE",
"-262 -359 CURVE SMOOTH",
"-262 -334 LINE",
"-392 -334 LINE",
"-392 -362 LINE SMOOTH",
"-392 -410 OFFCURVE",
"-403 -426 OFFCURVE",
"-428 -426 CURVE SMOOTH",
"-444 -426 OFFCURVE",
"-465 -419 OFFCURVE",
"-465 -358 CURVE SMOOTH",
"-465 -283 LINE SMOOTH",
"-465 -156 OFFCURVE",
"-531 -92 OFFCURVE",
"-644 -92 CURVE SMOOTH",
"-794 -92 OFFCURVE",
"-865 -205 OFFCURVE",
"-865 -332 CURVE SMOOTH",
"-865 -412 OFFCURVE",
"-838 -464 OFFCURVE",
"-821 -486 CURVE",
"-792 -452 LINE",
"-851 -448 OFFCURVE",
"-915 -438 OFFCURVE",
"-915 -359 CURVE SMOOTH",
"-915 -325 OFFCURVE",
"-902 -246 OFFCURVE",
"-850 -141 CURVE",
"-885 -118 OFFCURVE",
"-925 -92 OFFCURVE",
"-985 -92 CURVE SMOOTH",
"-1078 -92 OFFCURVE",
"-1135 -162 OFFCURVE",
"-1135 -308 CURVE"
);
}
);
width = 0;
}
);
},
{
glyphname = uni1B16.conj.2;
layers = (
{
layerId = "86689E10-1D55-4C8D-99A2-294733391E9C";
paths = (
{
closed = 1;
nodes = (
"-1147 -270 LINE",
"-1135 -194 OFFCURVE",
"-1112 -149 OFFCURVE",
"-1076 -149 CURVE SMOOTH",
"-1066 -149 OFFCURVE",
"-1057 -153 OFFCURVE",
"-1045 -160 CURVE",
"-1053 -128 LINE",
"-1100 -217 OFFCURVE",
"-1126 -328 OFFCURVE",
"-1126 -394 CURVE SMOOTH",
"-1126 -502 OFFCURVE",
"-1055 -547 OFFCURVE",
"-888 -547 CURVE",
"-862 -517 LINE",
"-890 -454 OFFCURVE",
"-905 -399 OFFCURVE",
"-905 -350 CURVE SMOOTH",
"-905 -256 OFFCURVE",
"-854 -164 OFFCURVE",
"-772 -164 CURVE SMOOTH",
"-721 -164 OFFCURVE",
"-694 -197 OFFCURVE",
"-694 -264 CURVE SMOOTH",
"-694 -376 LINE SMOOTH",
"-694 -500 OFFCURVE",
"-639 -547 OFFCURVE",
"-548 -547 CURVE SMOOTH",
"-499 -547 OFFCURVE",
"-463 -531 OFFCURVE",
"-443 -481 CURVE",
"-425 -525 OFFCURVE",
"-391 -546 OFFCURVE",
"-336 -546 CURVE SMOOTH",
"-245 -546 OFFCURVE",
"-200 -497 OFFCURVE",
"-200 -414 CURVE SMOOTH",
"-200 -295 OFFCURVE",
"-310 -215 OFFCURVE",
"-400 -190 CURVE",
"-394 -204 LINE",
"-367 -187 OFFCURVE",
"-323 -164 OFFCURVE",
"-263 -164 CURVE SMOOTH",
"-183 -164 OFFCURVE",
"-141 -205 OFFCURVE",
"-141 -289 CURVE SMOOTH",
"-141 -537 LINE",
"-60 -537 LINE",
"-60 -290 LINE SMOOTH",
"-60 -158 OFFCURVE",
"-129 -92 OFFCURVE",
"-246 -92 CURVE SMOOTH",
"-354 -92 OFFCURVE",
"-445 -148 OFFCURVE",
"-484 -193 CURVE",
"-480 -233 LINE",
"-351 -271 OFFCURVE",
"-282 -331 OFFCURVE",
"-282 -410 CURVE SMOOTH",
"-282 -455 OFFCURVE",
"-303 -474 OFFCURVE",
"-339 -474 CURVE SMOOTH",
"-375 -474 OFFCURVE",
"-406 -452 OFFCURVE",
"-406 -394 CURVE SMOOTH",
"-406 -360 LINE",
"-485 -360 LINE",
"-485 -401 LINE SMOOTH",
"-485 -446 OFFCURVE",
"-503 -475 OFFCURVE",
"-546 -475 CURVE SMOOTH",
"-576 -475 OFFCURVE",
"-613 -462 OFFCURVE",
"-613 -374 CURVE SMOOTH",
"-613 -260 LINE SMOOTH",
"-613 -150 OFFCURVE",
"-663 -92 OFFCURVE",
"-760 -92 CURVE SMOOTH",
"-905 -92 OFFCURVE",
"-982 -224 OFFCURVE",
"-982 -339 CURVE SMOOTH",
"-982 -372 OFFCURVE",
"-976 -424 OFFCURVE",
"-950 -501 CURVE",
"-921 -468 LINE",
"-1000 -466 OFFCURVE",
"-1050 -461 OFFCURVE",
"-1050 -384 CURVE SMOOTH",
"-1050 -335 OFFCURVE",
"-1029 -228 OFFCURVE",
"-985 -126 CURVE",
"-1000 -108 OFFCURVE",
"-1025 -92 OFFCURVE",
"-1068 -92 CURVE SMOOTH",
"-1148 -92 OFFCURVE",
"-1193 -148 OFFCURVE",
"-1193 -266 CURVE"
);
}
);
width = 0;
},
{
layerId = "61CE545B-E6AD-45B5-B051-8D1B01C68A7F";
paths = (
{
closed = 1;
nodes = (
"-1203 -315 LINE",
"-1190 -238 OFFCURVE",
"-1176 -192 OFFCURVE",
"-1142 -192 CURVE SMOOTH",
"-1129 -192 OFFCURVE",
"-1099 -199 OFFCURVE",
"-1081 -206 CURVE",
"-1119 -177 LINE",
"-1160 -250 OFFCURVE",
"-1184 -310 OFFCURVE",
"-1184 -373 CURVE SMOOTH",
"-1184 -501 OFFCURVE",
"-1082 -547 OFFCURVE",
"-908 -547 CURVE",
"-854 -484 LINE",
"-879 -442 OFFCURVE",
"-896 -393 OFFCURVE",
"-896 -345 CURVE SMOOTH",
"-896 -276 OFFCURVE",
"-862 -213 OFFCURVE",
"-812 -213 CURVE SMOOTH",
"-781 -213 OFFCURVE",
"-766 -236 OFFCURVE",
"-766 -279 CURVE SMOOTH",
"-766 -359 LINE SMOOTH",
"-766 -494 OFFCURVE",
"-696 -547 OFFCURVE",
"-608 -547 CURVE SMOOTH",
"-546 -547 OFFCURVE",
"-503 -522 OFFCURVE",
"-490 -484 CURVE",
"-476 -524 OFFCURVE",
"-429 -547 OFFCURVE",
"-376 -547 CURVE SMOOTH",
"-286 -547 OFFCURVE",
"-233 -483 OFFCURVE",
"-233 -397 CURVE SMOOTH",
"-233 -297 OFFCURVE",
"-307 -229 OFFCURVE",
"-377 -179 CURVE",
"-365 -232 LINE",
"-345 -219 OFFCURVE",
"-319 -213 OFFCURVE",
"-293 -213 CURVE SMOOTH",
"-231 -213 OFFCURVE",
"-197 -246 OFFCURVE",
"-197 -307 CURVE SMOOTH",
"-197 -537 LINE",
"-60 -537 LINE",
"-60 -308 LINE SMOOTH",
"-60 -164 OFFCURVE",
"-155 -92 OFFCURVE",
"-282 -92 CURVE SMOOTH",
"-378 -92 OFFCURVE",
"-444 -133 OFFCURVE",
"-476 -158 CURVE",
"-469 -227 LINE",
"-393 -273 OFFCURVE",
"-352 -317 OFFCURVE",
"-352 -381 CURVE SMOOTH",
"-352 -413 OFFCURVE",
"-367 -425 OFFCURVE",
"-386 -425 CURVE SMOOTH",
"-409 -425 OFFCURVE",
"-427 -408 OFFCURVE",
"-427 -372 CURVE SMOOTH",
"-427 -334 LINE",
"-557 -334 LINE",
"-557 -383 LINE SMOOTH",
"-557 -408 OFFCURVE",
"-567 -425 OFFCURVE",
"-592 -425 CURVE SMOOTH",
"-610 -425 OFFCURVE",
"-632 -417 OFFCURVE",
"-632 -357 CURVE SMOOTH",
"-632 -277 LINE SMOOTH",
"-632 -156 OFFCURVE",
"-693 -92 OFFCURVE",
"-802 -92 CURVE SMOOTH",
"-949 -92 OFFCURVE",
"-1020 -207 OFFCURVE",
"-1020 -329 CURVE SMOOTH",
"-1020 -412 OFFCURVE",
"-986 -464 OFFCURVE",
"-973 -482 CURVE",
"-948 -453 LINE",
"-1006 -445 OFFCURVE",
"-1068 -430 OFFCURVE",
"-1068 -360 CURVE SMOOTH",
"-1068 -323 OFFCURVE",
"-1051 -246 OFFCURVE",
"-999 -145 CURVE",
"-1039 -118 OFFCURVE",
"-1079 -92 OFFCURVE",
"-1138 -92 CURVE SMOOTH",
"-1233 -92 OFFCURVE",
"-1289 -162 OFFCURVE",
"-1289 -308 CURVE"
);
}
);
width = 0;
}
);
},
{
glyphname = uni1B17.conj;
layers = (
{
layerId = "86689E10-1D55-4C8D-99A2-294733391E9C";
paths = (
{
closed = 1;
nodes = (
"-660 -264 LINE",
"-649 -192 OFFCURVE",
"-629 -150 OFFCURVE",
"-595 -150 CURVE SMOOTH",
"-583 -150 OFFCURVE",
"-573 -152 OFFCURVE",
"-560 -158 CURVE",
"-570 -117 LINE",
"-623 -206 OFFCURVE",
"-660 -321 OFFCURVE",
"-660 -390 CURVE SMOOTH",
"-660 -502 OFFCURVE",
"-590 -537 OFFCURVE",
"-466 -537 CURVE SMOOTH",
"-362 -537 LINE",
"-343 -473 LINE",
"-390 -418 OFFCURVE",
"-432 -354 OFFCURVE",
"-432 -271 CURVE SMOOTH",
"-432 -220 OFFCURVE",
"-415 -162 OFFCURVE",
"-369 -162 CURVE SMOOTH",
"-337 -162 OFFCURVE",
"-322 -192 OFFCURVE",
"-318 -248 CURVE",
"-247 -248 LINE",
"-239 -192 OFFCURVE",
"-221 -162 OFFCURVE",
"-189 -162 CURVE SMOOTH",
"-158 -162 OFFCURVE",
"-141 -187 OFFCURVE",
"-141 -251 CURVE SMOOTH",
"-141 -537 LINE",
"-60 -537 LINE",
"-60 -253 LINE SMOOTH",
"-60 -142 OFFCURVE",
"-109 -92 OFFCURVE",
"-180 -92 CURVE SMOOTH",
"-227 -92 OFFCURVE",
"-261 -113 OFFCURVE",
"-278 -172 CURVE",
"-296 -116 OFFCURVE",
"-327 -92 OFFCURVE",
"-378 -92 CURVE SMOOTH",
"-463 -92 OFFCURVE",
"-510 -162 OFFCURVE",
"-510 -266 CURVE SMOOTH",
"-510 -374 OFFCURVE",
"-460 -438 OFFCURVE",
"-413 -496 CURVE",
"-371 -469 LINE",
"-466 -469 LINE SMOOTH",
"-546 -469 OFFCURVE",
"-582 -452 OFFCURVE",
"-582 -383 CURVE SMOOTH",
"-582 -325 OFFCURVE",
"-550 -220 OFFCURVE",
"-499 -122 CURVE",
"-512 -104 OFFCURVE",
"-547 -92 OFFCURVE",
"-584 -92 CURVE SMOOTH",
"-669 -92 OFFCURVE",
"-714 -147 OFFCURVE",
"-714 -260 CURVE"
);
}
);
width = 0;
},
{
layerId = "61CE545B-E6AD-45B5-B051-8D1B01C68A7F";
paths = (
{
closed = 1;
nodes = (
"-743 -316 LINE",
"-730 -238 OFFCURVE",
"-715 -192 OFFCURVE",
"-682 -192 CURVE SMOOTH",
"-668 -192 OFFCURVE",
"-641 -200 OFFCURVE",
"-623 -207 CURVE",
"-659 -178 LINE",
"-704 -251 OFFCURVE",
"-722 -311 OFFCURVE",
"-722 -367 CURVE SMOOTH",
"-722 -493 OFFCURVE",
"-632 -537 OFFCURVE",
"-496 -537 CURVE SMOOTH",
"-430 -537 LINE",
"-396 -426 LINE",
"-417 -387 OFFCURVE",
"-440 -342 OFFCURVE",
"-440 -287 CURVE SMOOTH",
"-440 -253 OFFCURVE",
"-431 -213 OFFCURVE",
"-400 -213 CURVE SMOOTH",
"-376 -213 OFFCURVE",
"-357 -240 OFFCURVE",
"-351 -303 CURVE",
"-272 -303 LINE",
"-263 -240 OFFCURVE",
"-249 -213 OFFCURVE",
"-226 -213 CURVE SMOOTH",
"-206 -213 OFFCURVE",
"-197 -229 OFFCURVE",
"-197 -281 CURVE SMOOTH",
"-197 -537 LINE",
"-60 -537 LINE",
"-60 -283 LINE SMOOTH",
"-60 -128 OFFCURVE",
"-127 -92 OFFCURVE",
"-198 -92 CURVE SMOOTH",
"-253 -92 OFFCURVE",
"-291 -120 OFFCURVE",
"-313 -178 CURVE",
"-329 -117 OFFCURVE",
"-366 -92 OFFCURVE",
"-416 -92 CURVE SMOOTH",
"-504 -92 OFFCURVE",
"-562 -170 OFFCURVE",
"-562 -272 CURVE SMOOTH",
"-562 -382 OFFCURVE",
"-498 -446 OFFCURVE",
"-453 -477 CURVE",
"-473 -424 LINE",
"-516 -424 LINE SMOOTH",
"-559 -424 OFFCURVE",
"-609 -414 OFFCURVE",
"-609 -337 CURVE SMOOTH",
"-609 -295 OFFCURVE",
"-594 -234 OFFCURVE",
"-553 -142 CURVE",
"-579 -118 OFFCURVE",
"-616 -92 OFFCURVE",
"-673 -92 CURVE SMOOTH",
"-769 -92 OFFCURVE",
"-827 -162 OFFCURVE",
"-827 -309 CURVE"
);
}
);
width = 0;
}
);
},
{
glyphname = uni1B18.conj;
layers = (
{
layerId = "86689E10-1D55-4C8D-99A2-294733391E9C";
paths = (
{
closed = 1;
nodes = (
"-785 -526 OFFCURVE",
"-738 -547 OFFCURVE",
"-685 -547 CURVE SMOOTH",
"-611 -547 OFFCURVE",
"-526 -507 OFFCURVE",
"-526 -341 CURVE SMOOTH",
"-526 -102 LINE",
"-604 -102 LINE",
"-604 -335 LINE SMOOTH",
"-604 -445 OFFCURVE",
"-644 -475 OFFCURVE",
"-693 -475 CURVE SMOOTH",
"-728 -475 OFFCURVE",
"-764 -461 OFFCURVE",
"-794 -436 CURVE",
"-824 -484 LINE"
);
},
{
closed = 1;
nodes = (
"-480 -486 OFFCURVE",
"-424 -547 OFFCURVE",
"-331 -547 CURVE SMOOTH",
"-254 -547 OFFCURVE",
"-188 -508 OFFCURVE",
"-188 -412 CURVE SMOOTH",
"-188 -345 OFFCURVE",
"-219 -287 OFFCURVE",
"-289 -223 CURVE",
"-311 -249 LINE",
"-247 -249 LINE SMOOTH",
"-182 -249 OFFCURVE",
"-141 -293 OFFCURVE",
"-141 -373 CURVE SMOOTH",
"-141 -537 LINE",
"-60 -537 LINE",
"-60 -365 LINE SMOOTH",
"-60 -228 OFFCURVE",
"-118 -182 OFFCURVE",
"-251 -182 CURVE SMOOTH",
"-349 -182 LINE",
"-349 -243 LINE",
"-291 -300 OFFCURVE",
"-265 -358 OFFCURVE",
"-265 -406 CURVE SMOOTH",
"-265 -456 OFFCURVE",
"-295 -475 OFFCURVE",
"-331 -475 CURVE SMOOTH",
"-380 -475 OFFCURVE",
"-402 -439 OFFCURVE",
"-402 -367 CURVE SMOOTH",
"-402 -102 LINE",
"-480 -102 LINE",
"-480 -364 LINE SMOOTH"
);
}
);
width = 0;
},
{
layerId = "61CE545B-E6AD-45B5-B051-8D1B01C68A7F";
paths = (
{
closed = 1;
nodes = (
"-855 -526 OFFCURVE",
"-811 -547 OFFCURVE",
"-752 -547 CURVE SMOOTH",
"-682 -547 OFFCURVE",
"-588 -516 OFFCURVE",
"-588 -335 CURVE SMOOTH",
"-588 -102 LINE",
"-715 -102 LINE",
"-715 -338 LINE SMOOTH",
"-715 -416 OFFCURVE",
"-749 -425 OFFCURVE",
"-769 -425 CURVE SMOOTH",
"-790 -425 OFFCURVE",
"-811 -415 OFFCURVE",
"-836 -398 CURVE",
"-895 -486 LINE"
);
},
{
closed = 1;
nodes = (
"-543 -479 OFFCURVE",
"-476 -547 OFFCURVE",
"-376 -547 CURVE SMOOTH",
"-294 -547 OFFCURVE",
"-229 -501 OFFCURVE",
"-229 -406 CURVE SMOOTH",
"-229 -346 OFFCURVE",
"-266 -296 OFFCURVE",
"-306 -248 CURVE",
"-303 -277 LINE",
"-273 -277 LINE SMOOTH",
"-221 -277 OFFCURVE",
"-196 -310 OFFCURVE",
"-196 -371 CURVE SMOOTH",
"-196 -537 LINE",
"-60 -537 LINE",
"-60 -363 LINE SMOOTH",
"-60 -225 OFFCURVE",
"-119 -176 OFFCURVE",
"-284 -176 CURVE SMOOTH",
"-378 -176 LINE",
"-378 -268 LINE",
"-345 -303 OFFCURVE",
"-321 -343 OFFCURVE",
"-321 -379 CURVE SMOOTH",
"-321 -413 OFFCURVE",
"-341 -425 OFFCURVE",
"-364 -425 CURVE SMOOTH",
"-393 -425 OFFCURVE",
"-416 -405 OFFCURVE",
"-416 -353 CURVE SMOOTH",
"-416 -102 LINE",
"-543 -102 LINE",
"-543 -346 LINE SMOOTH"
);
}
);
width = 0;
}
);
},
{
glyphname = uni1B19.conj.1;
layers = (
{
layerId = "86689E10-1D55-4C8D-99A2-294733391E9C";
paths = (
{
closed = 1;
nodes = (
"-496 -547 OFFCURVE",
"-453 -515 OFFCURVE",
"-424 -430 CURVE",
"-479 -405 LINE",
"-499 -451 OFFCURVE",
"-521 -475 OFFCURVE",
"-556 -475 CURVE SMOOTH",
"-603 -475 OFFCURVE",
"-629 -433 OFFCURVE",
"-629 -335 CURVE SMOOTH",
"-629 -224 OFFCURVE",
"-594 -163 OFFCURVE",
"-530 -163 CURVE SMOOTH",
"-470 -163 OFFCURVE",
"-445 -218 OFFCURVE",
"-410 -323 CURVE SMOOTH",
"-391 -380 LINE SMOOTH",
"-352 -497 OFFCURVE",
"-301 -547 OFFCURVE",
"-218 -547 CURVE SMOOTH",
"-119 -547 OFFCURVE",
"-60 -475 OFFCURVE",
"-60 -357 CURVE SMOOTH",
"-60 -102 LINE",
"-141 -102 LINE",
"-141 -355 LINE SMOOTH",
"-141 -435 OFFCURVE",
"-167 -475 OFFCURVE",
"-220 -475 CURVE SMOOTH",
"-267 -475 OFFCURVE",
"-286 -444 OFFCURVE",
"-309 -376 CURVE SMOOTH",
"-334 -303 LINE SMOOTH",
"-385 -153 OFFCURVE",
"-432 -92 OFFCURVE",
"-530 -92 CURVE SMOOTH",
"-644 -92 OFFCURVE",
"-709 -177 OFFCURVE",
"-709 -335 CURVE SMOOTH",
"-709 -481 OFFCURVE",
"-646 -547 OFFCURVE",
"-557 -547 CURVE SMOOTH"
);
}
);
width = 0;
},
{
layerId = "61CE545B-E6AD-45B5-B051-8D1B01C68A7F";
paths = (
{
closed = 1;
nodes = (
"-525 -547 OFFCURVE",
"-483 -514 OFFCURVE",
"-453 -469 CURVE",
"-534 -402 LINE",
"-552 -418 OFFCURVE",
"-567 -425 OFFCURVE",
"-580 -425 CURVE SMOOTH",
"-611 -425 OFFCURVE",
"-630 -386 OFFCURVE",
"-630 -321 CURVE SMOOTH",
"-630 -243 OFFCURVE",
"-603 -213 OFFCURVE",
"-565 -213 CURVE SMOOTH",
"-522 -213 OFFCURVE",
"-489 -251 OFFCURVE",
"-461 -323 CURVE SMOOTH",
"-441 -374 LINE SMOOTH",
"-394 -495 OFFCURVE",
"-336 -547 OFFCURVE",
"-239 -547 CURVE SMOOTH",
"-123 -547 OFFCURVE",
"-60 -472 OFFCURVE",
"-60 -345 CURVE SMOOTH",
"-60 -102 LINE",
"-197 -102 LINE",
"-197 -343 LINE SMOOTH",
"-197 -397 OFFCURVE",
"-215 -425 OFFCURVE",
"-249 -425 CURVE SMOOTH",
"-280 -425 OFFCURVE",
"-298 -402 OFFCURVE",
"-316 -354 CURVE SMOOTH",
"-349 -268 LINE SMOOTH",
"-394 -150 OFFCURVE",
"-458 -92 OFFCURVE",
"-561 -92 CURVE SMOOTH",
"-682 -92 OFFCURVE",
"-763 -174 OFFCURVE",
"-763 -328 CURVE SMOOTH",
"-763 -479 OFFCURVE",
"-686 -547 OFFCURVE",
"-592 -547 CURVE SMOOTH"
);
}
);
width = 0;
}
);
},
{
glyphname = uni1B19.conj.2;
layers = (
{
layerId = "86689E10-1D55-4C8D-99A2-294733391E9C";
paths = (
{
closed = 1;
nodes = (
"-940 -485 OFFCURVE",
"-877 -548 OFFCURVE",
"-790 -548 CURVE SMOOTH",
"-727 -548 OFFCURVE",
"-684 -515 OFFCURVE",
"-655 -426 CURVE",
"-707 -402 LINE",
"-727 -452 OFFCURVE",
"-752 -478 OFFCURVE",
"-788 -478 CURVE SMOOTH",
"-835 -478 OFFCURVE",
"-862 -437 OFFCURVE",
"-862 -336 CURVE SMOOTH",
"-862 -223 OFFCURVE",
"-826 -162 OFFCURVE",
"-763 -162 CURVE SMOOTH",
"-704 -162 OFFCURVE",
"-677 -221 OFFCURVE",
"-643 -329 CURVE SMOOTH",
"-620 -402 LINE SMOOTH",
"-590 -496 OFFCURVE",
"-538 -547 OFFCURVE",
"-453 -547 CURVE SMOOTH",
"-353 -547 OFFCURVE",
"-290 -479 OFFCURVE",
"-290 -361 CURVE SMOOTH",
"-290 -172 LINE",
"-215 -172 LINE SMOOTH",
"-166 -172 OFFCURVE",
"-141 -194 OFFCURVE",
"-141 -240 CURVE SMOOTH",
"-141 -537 LINE",
"-60 -537 LINE",
"-60 -244 LINE SMOOTH",
"-60 -142 OFFCURVE",
"-116 -102 OFFCURVE",
"-228 -102 CURVE SMOOTH",
"-371 -102 LINE",
"-371 -355 LINE SMOOTH",
"-371 -434 OFFCURVE",
"-398 -475 OFFCURVE",
"-454 -475 CURVE SMOOTH",
"-502 -475 OFFCURVE",
"-525 -443 OFFCURVE",
"-546 -376 CURVE SMOOTH",
"-572 -291 LINE SMOOTH",
"-613 -157 OFFCURVE",
"-662 -92 OFFCURVE",
"-761 -92 CURVE SMOOTH",
"-872 -92 OFFCURVE",
"-940 -177 OFFCURVE",
"-940 -335 CURVE SMOOTH"
);
}
);
width = 0;
},
{
layerId = "61CE545B-E6AD-45B5-B051-8D1B01C68A7F";
paths = (
{
closed = 1;
nodes = (
"-993 -478 OFFCURVE",
"-916 -547 OFFCURVE",
"-821 -547 CURVE SMOOTH",
"-755 -547 OFFCURVE",
"-713 -514 OFFCURVE",
"-683 -469 CURVE",
"-765 -402 LINE",
"-782 -419 OFFCURVE",
"-798 -425 OFFCURVE",
"-810 -425 CURVE SMOOTH",
"-841 -425 OFFCURVE",
"-860 -385 OFFCURVE",
"-860 -320 CURVE SMOOTH",
"-860 -242 OFFCURVE",
"-832 -213 OFFCURVE",
"-795 -213 CURVE SMOOTH",
"-753 -213 OFFCURVE",
"-718 -250 OFFCURVE",
"-691 -322 CURVE SMOOTH",
"-672 -372 LINE SMOOTH",
"-625 -496 OFFCURVE",
"-568 -547 OFFCURVE",
"-473 -547 CURVE SMOOTH",
"-358 -547 OFFCURVE",
"-290 -476 OFFCURVE",
"-290 -356 CURVE SMOOTH",
"-290 -219 LINE",
"-245 -219 LINE SMOOTH",
"-214 -219 OFFCURVE",
"-197 -237 OFFCURVE",
"-197 -273 CURVE SMOOTH",
"-197 -537 LINE",
"-60 -537 LINE",
"-60 -256 LINE SMOOTH",
"-60 -154 OFFCURVE",
"-116 -102 OFFCURVE",
"-228 -102 CURVE SMOOTH",
"-426 -102 LINE",
"-426 -343 LINE SMOOTH",
"-426 -397 OFFCURVE",
"-443 -425 OFFCURVE",
"-478 -425 CURVE SMOOTH",
"-510 -425 OFFCURVE",
"-526 -402 OFFCURVE",
"-545 -354 CURVE SMOOTH",
"-571 -288 LINE SMOOTH",
"-626 -149 OFFCURVE",
"-687 -92 OFFCURVE",
"-789 -92 CURVE SMOOTH",
"-912 -92 OFFCURVE",
"-993 -174 OFFCURVE",
"-993 -328 CURVE SMOOTH"
);
}
);
width = 0;
}
);
},
{
glyphname = uni1B1A.conj;
layers = (
{
layerId = "86689E10-1D55-4C8D-99A2-294733391E9C";
paths = (
{
closed = 1;
nodes = (
"-732 -480 OFFCURVE",
"-618 -547 OFFCURVE",
"-489 -547 CURVE SMOOTH",
"-372 -547 OFFCURVE",
"-241 -492 OFFCURVE",
"-241 -391 CURVE SMOOTH",
"-241 -332 OFFCURVE",
"-286 -300 OFFCURVE",
"-363 -293 CURVE",
"-338 -286 OFFCURVE",
"-299 -283 OFFCURVE",
"-262 -283 CURVE SMOOTH",
"-205 -283 OFFCURVE",
"-148 -291 OFFCURVE",
"-91 -308 CURVE",
"-61 -246 LINE",
"-105 -226 OFFCURVE",
"-169 -216 OFFCURVE",
"-226 -216 CURVE SMOOTH",
"-328 -216 OFFCURVE",
"-427 -245 OFFCURVE",
"-518 -280 CURVE",
"-518 -354 LINE",
"-477 -341 OFFCURVE",
"-438 -335 OFFCURVE",
"-403 -335 CURVE SMOOTH",
"-363 -335 OFFCURVE",
"-323 -350 OFFCURVE",
"-323 -388 CURVE SMOOTH",
"-323 -443 OFFCURVE",
"-407 -475 OFFCURVE",
"-482 -475 CURVE SMOOTH",
"-569 -475 OFFCURVE",
"-650 -431 OFFCURVE",
"-650 -344 CURVE SMOOTH",
"-650 -235 OFFCURVE",
"-530 -165 OFFCURVE",
"-359 -162 CURVE",
"-359 -93 LINE",
"-547 -96 OFFCURVE",
"-732 -167 OFFCURVE",
"-732 -343 CURVE SMOOTH"
);
}
);
width = 0;
},
{
layerId = "61CE545B-E6AD-45B5-B051-8D1B01C68A7F";
paths = (
{
closed = 1;
nodes = (
"-744 -479 OFFCURVE",
"-625 -547 OFFCURVE",
"-473 -547 CURVE SMOOTH",
"-356 -547 OFFCURVE",
"-241 -504 OFFCURVE",
"-241 -406 CURVE SMOOTH",
"-241 -343 OFFCURVE",
"-288 -319 OFFCURVE",
"-370 -312 CURVE",
"-328 -300 OFFCURVE",
"-289 -295 OFFCURVE",
"-246 -295 CURVE SMOOTH",
"-193 -295 OFFCURVE",
"-136 -303 OFFCURVE",
"-79 -320 CURVE",
"-34 -222 LINE",
"-98 -202 OFFCURVE",
"-159 -192 OFFCURVE",
"-223 -192 CURVE SMOOTH",
"-334 -192 OFFCURVE",
"-430 -222 OFFCURVE",
"-509 -286 CURVE",
"-509 -372 LINE",
"-486 -368 OFFCURVE",
"-463 -365 OFFCURVE",
"-435 -365 CURVE SMOOTH",
"-394 -365 OFFCURVE",
"-371 -372 OFFCURVE",
"-371 -393 CURVE SMOOTH",
"-371 -416 OFFCURVE",
"-399 -435 OFFCURVE",
"-464 -435 CURVE SMOOTH",
"-562 -435 OFFCURVE",
"-608 -399 OFFCURVE",
"-608 -331 CURVE SMOOTH",
"-608 -220 OFFCURVE",
"-488 -183 OFFCURVE",
"-343 -169 CURVE",
"-343 -86 LINE",
"-554 -93 OFFCURVE",
"-744 -168 OFFCURVE",
"-744 -342 CURVE SMOOTH"
);
}
);
width = 0;
}
);
},
{
glyphname = uni1B1B.conj;
layers = (
{
components = (
{
alignment = -1;
name = uni1B1B.part;
}
);
layerId = "86689E10-1D55-4C8D-99A2-294733391E9C";
paths = (
{
closed = 1;
nodes = (
"55 560 LINE",
"72 553 OFFCURVE",
"88 548 OFFCURVE",
"102 548 CURVE SMOOTH",
"180 548 OFFCURVE",
"222 624 OFFCURVE",
"241 705 CURVE",
"190 724 LINE",
"170 653 OFFCURVE",
"144 605 OFFCURVE",
"100 605 CURVE SMOOTH",
"91 605 OFFCURVE",
"81 607 OFFCURVE",
"71 611 CURVE"
);
}
);
width = 190;
},
{
components = (
{
alignment = -1;
name = uni1B1B.part;
}
);
layerId = "61CE545B-E6AD-45B5-B051-8D1B01C68A7F";
paths = (
{
closed = 1;
nodes = (
"99 491 LINE",
"113 488 OFFCURVE",
"127 487 OFFCURVE",
"139 487 CURVE SMOOTH",
"246 487 OFFCURVE",
"298 574 OFFCURVE",
"322 704 CURVE",
"252 722 LINE",
"219 640 OFFCURVE",
"187 591 OFFCURVE",
"133 591 CURVE SMOOTH",
"125 591 OFFCURVE",
"116 591 OFFCURVE",
"108 592 CURVE"
);
}
);
width = 236;
}
);
},
{
glyphname = uni1B1C.conj;
layers = (
{
components = (
{
alignment = -1;
name = uni1B17.conj;
transform = "{1, 0, 0, 1, -322, 0}";
}
);
layerId = "86689E10-1D55-4C8D-99A2-294733391E9C";
paths = (
{
closed = 1;
nodes = (
"-382 -365 LINE",
"-382 -233 OFFCURVE",
"-310 -164 OFFCURVE",
"-234 -164 CURVE SMOOTH",
"-161 -164 OFFCURVE",
"-104 -225 OFFCURVE",
"-104 -331 CURVE SMOOTH",
"-104 -429 OFFCURVE",
"-153 -475 OFFCURVE",
"-216 -475 CURVE SMOOTH",
"-240 -475 OFFCURVE",
"-262 -468 OFFCURVE",
"-283 -455 CURVE",
"-323 -513 LINE",
"-291 -536 OFFCURVE",
"-255 -547 OFFCURVE",
"-213 -547 CURVE SMOOTH",
"-101 -547 OFFCURVE",
"-22 -460 OFFCURVE",
"-22 -329 CURVE SMOOTH",
"-22 -190 OFFCURVE",
"-108 -92 OFFCURVE",
"-226 -92 CURVE SMOOTH",
"-318 -92 OFFCURVE",
"-398 -150 OFFCURVE",
"-413 -259 CURVE"
);
}
);
width = 0;
},
{
components = (
{
alignment = -1;
name = uni1B17.conj;
transform = "{1.00205, 0, 0, 1.00205, -308, 1}";
}
);
layerId = "61CE545B-E6AD-45B5-B051-8D1B01C68A7F";
paths = (
{
closed = 1;
nodes = (
"-370 -394 LINE",
"-370 -265 OFFCURVE",
"-310 -213 OFFCURVE",
"-249 -213 CURVE SMOOTH",
"-193 -213 OFFCURVE",
"-149 -256 OFFCURVE",
"-149 -330 CURVE SMOOTH",
"-149 -393 OFFCURVE",
"-181 -425 OFFCURVE",
"-222 -425 CURVE SMOOTH",
"-241 -425 OFFCURVE",
"-259 -418 OFFCURVE",
"-279 -405 CURVE",
"-330 -504 LINE",
"-295 -534 OFFCURVE",
"-250 -547 OFFCURVE",
"-208 -547 CURVE SMOOTH",
"-97 -547 OFFCURVE",
"-18 -459 OFFCURVE",
"-18 -328 CURVE SMOOTH",
"-18 -190 OFFCURVE",
"-104 -92 OFFCURVE",
"-233 -92 CURVE SMOOTH",
"-308 -92 OFFCURVE",
"-384 -125 OFFCURVE",
"-411 -228 CURVE"
);
}
);
width = 0;
}
);
},
{
glyphname = uni1B1D.conj;
layers = (
{
layerId = "86689E10-1D55-4C8D-99A2-294733391E9C";
paths = (
{
closed = 1;
nodes = (
"-385 -604 OFFCURVE",
"-355 -667 OFFCURVE",
"-272 -667 CURVE SMOOTH",
"-206 -667 OFFCURVE",
"-117 -624 OFFCURVE",
"-60 -472 CURVE",
"-102 -449 LINE",
"-155 -546 OFFCURVE",
"-214 -597 OFFCURVE",
"-263 -597 CURVE SMOOTH",
"-291 -597 OFFCURVE",
"-318 -580 OFFCURVE",
"-318 -491 CURVE",
"-385 -510 LINE"
);
},
{
closed = 1;
nodes = (
"-676 -481 OFFCURVE",
"-565 -547 OFFCURVE",
"-429 -547 CURVE SMOOTH",
"-246 -547 OFFCURVE",
"-127 -420 OFFCURVE",
"-127 -326 CURVE SMOOTH",
"-127 -275 OFFCURVE",
"-162 -242 OFFCURVE",
"-211 -242 CURVE SMOOTH",
"-289 -242 OFFCURVE",
"-368 -321 OFFCURVE",
"-380 -482 CURVE",
"-312 -467 LINE",
"-306 -356 OFFCURVE",
"-261 -308 OFFCURVE",
"-222 -308 CURVE SMOOTH",
"-206 -308 OFFCURVE",
"-194 -316 OFFCURVE",
"-194 -338 CURVE SMOOTH",
"-194 -398 OFFCURVE",
"-280 -475 OFFCURVE",
"-413 -475 CURVE SMOOTH",
"-499 -475 OFFCURVE",
"-594 -443 OFFCURVE",
"-594 -341 CURVE SMOOTH",
"-594 -279 OFFCURVE",
"-561 -204 OFFCURVE",
"-465 -121 CURVE",
"-509 -73 LINE",
"-621 -151 OFFCURVE",
"-676 -244 OFFCURVE",
"-676 -343 CURVE SMOOTH"
);
}
);
width = 0;
},
{
layerId = "61CE545B-E6AD-45B5-B051-8D1B01C68A7F";
paths = (
{
closed = 1;
nodes = (
"-536 -637 OFFCURVE",
"-457 -687 OFFCURVE",
"-352 -687 CURVE SMOOTH",
"-235 -687 OFFCURVE",
"-141 -626 OFFCURVE",
"-60 -472 CURVE",
"-121 -438 LINE",
"-193 -528 OFFCURVE",
"-256 -574 OFFCURVE",
"-337 -574 CURVE SMOOTH",
"-400 -574 OFFCURVE",
"-419 -548 OFFCURVE",
"-419 -477 CURVE",
"-536 -490 LINE"
);
},
{
closed = 1;
nodes = (
"-770 -483 OFFCURVE",
"-666 -547 OFFCURVE",
"-502 -547 CURVE SMOOTH",
"-336 -547 OFFCURVE",
"-192 -483 OFFCURVE",
"-192 -341 CURVE SMOOTH",
"-192 -260 OFFCURVE",
"-240 -211 OFFCURVE",
"-319 -211 CURVE SMOOTH",
"-420 -211 OFFCURVE",
"-537 -293 OFFCURVE",
"-537 -481 CURVE",
"-418 -467 LINE",
"-417 -374 OFFCURVE",
"-376 -325 OFFCURVE",
"-328 -325 CURVE SMOOTH",
"-308 -325 OFFCURVE",
"-299 -334 OFFCURVE",
"-299 -349 CURVE SMOOTH",
"-299 -391 OFFCURVE",
"-368 -433 OFFCURVE",
"-487 -433 CURVE SMOOTH",
"-588 -433 OFFCURVE",
"-637 -400 OFFCURVE",
"-637 -323 CURVE SMOOTH",
"-637 -260 OFFCURVE",
"-605 -189 OFFCURVE",
"-544 -124 CURVE",
"-604 -67 LINE",
"-715 -148 OFFCURVE",
"-770 -245 OFFCURVE",
"-770 -347 CURVE SMOOTH"
);
}
);
width = 0;
}
);
},
{
glyphname = uni1B1E.conj;
layers = (
{
layerId = "86689E10-1D55-4C8D-99A2-294733391E9C";
paths = (
{
closed = 1;
nodes = (
"-676 -481 OFFCURVE",
"-565 -547 OFFCURVE",
"-429 -547 CURVE SMOOTH",
"-246 -547 OFFCURVE",
"-127 -420 OFFCURVE",
"-127 -326 CURVE SMOOTH",
"-127 -275 OFFCURVE",
"-162 -242 OFFCURVE",
"-211 -242 CURVE SMOOTH",
"-289 -242 OFFCURVE",
"-368 -321 OFFCURVE",
"-380 -482 CURVE",
"-312 -467 LINE",
"-306 -356 OFFCURVE",
"-261 -308 OFFCURVE",
"-222 -308 CURVE SMOOTH",
"-206 -308 OFFCURVE",
"-194 -316 OFFCURVE",
"-194 -338 CURVE SMOOTH",
"-194 -398 OFFCURVE",
"-280 -475 OFFCURVE",
"-413 -475 CURVE SMOOTH",
"-499 -475 OFFCURVE",
"-594 -443 OFFCURVE",
"-594 -341 CURVE SMOOTH",
"-594 -283 OFFCURVE",
"-563 -214 OFFCURVE",
"-473 -137 CURVE",
"-516 -88 LINE",
"-624 -162 OFFCURVE",
"-676 -250 OFFCURVE",
"-676 -343 CURVE SMOOTH"
);
}
);
width = 0;
},
{
layerId = "61CE545B-E6AD-45B5-B051-8D1B01C68A7F";
paths = (
{
closed = 1;
nodes = (
"-677 -483 OFFCURVE",
"-574 -547 OFFCURVE",
"-409 -547 CURVE SMOOTH",
"-243 -547 OFFCURVE",
"-99 -483 OFFCURVE",
"-99 -341 CURVE SMOOTH",
"-99 -261 OFFCURVE",
"-147 -213 OFFCURVE",
"-228 -213 CURVE SMOOTH",
"-327 -213 OFFCURVE",
"-444 -294 OFFCURVE",
"-444 -481 CURVE",
"-325 -467 LINE",
"-325 -374 OFFCURVE",
"-283 -325 OFFCURVE",
"-235 -325 CURVE SMOOTH",
"-215 -325 OFFCURVE",
"-206 -334 OFFCURVE",
"-206 -349 CURVE SMOOTH",
"-206 -391 OFFCURVE",
"-271 -433 OFFCURVE",
"-394 -433 CURVE SMOOTH",
"-495 -433 OFFCURVE",
"-544 -400 OFFCURVE",
"-544 -327 CURVE SMOOTH",
"-544 -266 OFFCURVE",
"-510 -201 OFFCURVE",
"-444 -142 CURVE",
"-505 -85 LINE",
"-620 -161 OFFCURVE",
"-677 -252 OFFCURVE",
"-677 -352 CURVE SMOOTH"
);
}
);
width = 0;
}
);
},
{
glyphname = uni1B1F.conj;
layers = (
{
layerId = "86689E10-1D55-4C8D-99A2-294733391E9C";
paths = (
{
closed = 1;
nodes = (
"-733 -475 OFFCURVE",
"-683 -547 OFFCURVE",
"-600 -547 CURVE SMOOTH",
"-542 -547 OFFCURVE",
"-499 -511 OFFCURVE",
"-453 -450 CURVE SMOOTH",
"-421 -407 LINE SMOOTH",
"-411 -394 OFFCURVE",
"-401 -386 OFFCURVE",
"-391 -386 CURVE SMOOTH",
"-381 -386 OFFCURVE",
"-372 -394 OFFCURVE",
"-363 -407 CURVE SMOOTH",
"-334 -451 LINE SMOOTH",
"-295 -511 OFFCURVE",
"-257 -547 OFFCURVE",
"-198 -547 CURVE SMOOTH",
"-116 -547 OFFCURVE",
"-60 -482 OFFCURVE",
"-60 -351 CURVE SMOOTH",
"-60 -102 LINE",
"-141 -102 LINE",
"-141 -343 LINE SMOOTH",
"-141 -431 OFFCURVE",
"-162 -475 OFFCURVE",
"-201 -475 CURVE SMOOTH",
"-230 -475 OFFCURVE",
"-247 -452 OFFCURVE",
"-272 -413 CURVE SMOOTH",
"-300 -369 LINE SMOOTH",
"-325 -330 OFFCURVE",
"-353 -314 OFFCURVE",
"-390 -314 CURVE SMOOTH",
"-427 -314 OFFCURVE",
"-454 -330 OFFCURVE",
"-479 -365 CURVE SMOOTH",
"-508 -405 LINE SMOOTH",
"-541 -451 OFFCURVE",
"-563 -474 OFFCURVE",
"-591 -474 CURVE SMOOTH",
"-625 -474 OFFCURVE",
"-651 -440 OFFCURVE",
"-651 -379 CURVE SMOOTH",
"-651 -263 OFFCURVE",
"-556 -177 OFFCURVE",
"-413 -157 CURVE",
"-424 -96 LINE",
"-586 -102 OFFCURVE",
"-733 -224 OFFCURVE",
"-733 -383 CURVE SMOOTH"
);
}
);
width = 0;
},
{
layerId = "61CE545B-E6AD-45B5-B051-8D1B01C68A7F";
paths = (
{
closed = 1;
nodes = (
"-785 -477 OFFCURVE",
"-716 -547 OFFCURVE",
"-621 -547 CURVE SMOOTH",
"-556 -547 OFFCURVE",
"-509 -515 OFFCURVE",
"-467 -460 CURVE SMOOTH",
"-442 -427 LINE SMOOTH",
"-429 -410 OFFCURVE",
"-418 -396 OFFCURVE",
"-408 -396 CURVE SMOOTH",
"-400 -396 OFFCURVE",
"-392 -405 OFFCURVE",
"-375 -431 CURVE SMOOTH",
"-354 -464 LINE SMOOTH",
"-316 -523 OFFCURVE",
"-268 -547 OFFCURVE",
"-207 -547 CURVE SMOOTH",
"-115 -547 OFFCURVE",
"-60 -493 OFFCURVE",
"-60 -385 CURVE SMOOTH",
"-60 -102 LINE",
"-197 -102 LINE",
"-197 -361 LINE SMOOTH",
"-197 -399 OFFCURVE",
"-202 -425 OFFCURVE",
"-221 -425 CURVE SMOOTH",
"-235 -425 OFFCURVE",
"-248 -411 OFFCURVE",
"-260 -391 CURVE SMOOTH",
"-293 -339 LINE SMOOTH",
"-318 -300 OFFCURVE",
"-350 -263 OFFCURVE",
"-400 -263 CURVE SMOOTH",
"-444 -263 OFFCURVE",
"-480 -292 OFFCURVE",
"-509 -328 CURVE SMOOTH",
"-561 -393 LINE SMOOTH",
"-577 -413 OFFCURVE",
"-594 -425 OFFCURVE",
"-610 -425 CURVE SMOOTH",
"-632 -425 OFFCURVE",
"-650 -402 OFFCURVE",
"-650 -361 CURVE SMOOTH",
"-650 -258 OFFCURVE",
"-535 -213 OFFCURVE",
"-410 -193 CURVE",
"-422 -92 LINE",
"-628 -116 OFFCURVE",
"-785 -217 OFFCURVE",
"-785 -372 CURVE SMOOTH"
);
}
);
width = 0;
}
);
},
{
glyphname = uni1B20.conj;
layers = (
{
layerId = "86689E10-1D55-4C8D-99A2-294733391E9C";
paths = (
{
closed = 1;
nodes = (
"-87 -547 OFFCURVE",
"-33 -472 OFFCURVE",
"-33 -383 CURVE SMOOTH",
"-33 -318 OFFCURVE",
"-63 -198 OFFCURVE",
"-227 -76 CURVE",
"-273 -133 LINE",
"-174 -197 OFFCURVE",
"-115 -292 OFFCURVE",
"-115 -379 CURVE SMOOTH",
"-115 -449 OFFCURVE",
"-150 -475 OFFCURVE",
"-190 -475 CURVE SMOOTH",
"-236 -475 OFFCURVE",
"-260 -445 OFFCURVE",
"-260 -380 CURVE SMOOTH",
"-260 -354 LINE",
"-341 -354 LINE",
"-341 -408 LINE SMOOTH",
"-341 -453 OFFCURVE",
"-362 -476 OFFCURVE",
"-400 -476 CURVE SMOOTH",
"-448 -476 OFFCURVE",
"-470 -436 OFFCURVE",
"-470 -373 CURVE SMOOTH",
"-470 -314 OFFCURVE",
"-450 -236 OFFCURVE",
"-410 -135 CURVE",
"-426 -118 OFFCURVE",
"-456 -92 OFFCURVE",
"-510 -92 CURVE SMOOTH",
"-601 -92 OFFCURVE",
"-655 -164 OFFCURVE",
"-655 -306 CURVE",
"-603 -311 LINE",
"-584 -207 OFFCURVE",
"-550 -155 OFFCURVE",
"-503 -155 CURVE SMOOTH",
"-488 -155 OFFCURVE",
"-472 -159 OFFCURVE",
"-462 -164 CURVE",
"-482 -137 LINE",
"-529 -230 OFFCURVE",
"-552 -306 OFFCURVE",
"-552 -375 CURVE SMOOTH",
"-552 -480 OFFCURVE",
"-502 -547 OFFCURVE",
"-410 -547 CURVE SMOOTH",
"-355 -547 OFFCURVE",
"-316 -523 OFFCURVE",
"-298 -474 CURVE",
"-281 -528 OFFCURVE",
"-235 -547 OFFCURVE",
"-186 -547 CURVE SMOOTH"
);
}
);
width = 0;
},
{
layerId = "61CE545B-E6AD-45B5-B051-8D1B01C68A7F";
paths = (
{
closed = 1;
nodes = (
"-94 -547 OFFCURVE",
"-31 -472 OFFCURVE",
"-31 -383 CURVE SMOOTH",
"-31 -318 OFFCURVE",
"-64 -200 OFFCURVE",
"-242 -76 CURVE",
"-325 -171 LINE",
"-225 -230 OFFCURVE",
"-166 -307 OFFCURVE",
"-166 -375 CURVE SMOOTH",
"-166 -410 OFFCURVE",
"-183 -425 OFFCURVE",
"-207 -425 CURVE SMOOTH",
"-231 -425 OFFCURVE",
"-245 -409 OFFCURVE",
"-245 -371 CURVE SMOOTH",
"-245 -334 LINE",
"-375 -334 LINE",
"-375 -379 LINE SMOOTH",
"-375 -415 OFFCURVE",
"-387 -425 OFFCURVE",
"-409 -425 CURVE SMOOTH",
"-440 -425 OFFCURVE",
"-457 -403 OFFCURVE",
"-457 -364 CURVE SMOOTH",
"-457 -317 OFFCURVE",
"-433 -247 OFFCURVE",
"-388 -143 CURVE",
"-421 -120 OFFCURVE",
"-475 -92 OFFCURVE",
"-540 -92 CURVE SMOOTH",
"-652 -92 OFFCURVE",
"-714 -173 OFFCURVE",
"-714 -331 CURVE",
"-620 -340 LINE",
"-602 -242 OFFCURVE",
"-579 -192 OFFCURVE",
"-540 -192 CURVE SMOOTH",
"-524 -192 OFFCURVE",
"-497 -202 OFFCURVE",
"-471 -213 CURVE",
"-490 -154 LINE",
"-541 -210 OFFCURVE",
"-584 -297 OFFCURVE",
"-584 -378 CURVE SMOOTH",
"-584 -477 OFFCURVE",
"-524 -547 OFFCURVE",
"-427 -547 CURVE SMOOTH",
"-374 -547 OFFCURVE",
"-330 -526 OFFCURVE",
"-310 -484 CURVE",
"-288 -528 OFFCURVE",
"-244 -547 OFFCURVE",
"-194 -547 CURVE SMOOTH"
);
}
);
width = 0;
}
);
},
{
glyphname = uni1B21.conj.1;
layers = (
{
layerId = "86689E10-1D55-4C8D-99A2-294733391E9C";
paths = (
{
closed = 1;
nodes = (
"-806 -346 OFFCURVE",
"-744 -412 OFFCURVE",
"-620 -426 CURVE",
"-577 -386 LINE",
"-594 -340 OFFCURVE",
"-602 -300 OFFCURVE",
"-602 -262 CURVE SMOOTH",
"-602 -201 OFFCURVE",
"-580 -164 OFFCURVE",
"-542 -164 CURVE SMOOTH",
"-501 -164 OFFCURVE",
"-482 -206 OFFCURVE",
"-477 -288 CURVE",
"-404 -288 LINE",
"-399 -206 OFFCURVE",
"-375 -164 OFFCURVE",
"-339 -164 CURVE SMOOTH",
"-308 -164 OFFCURVE",
"-285 -194 OFFCURVE",
"-285 -278 CURVE SMOOTH",
"-285 -423 LINE SMOOTH",
"-285 -505 OFFCURVE",
"-250 -547 OFFCURVE",
"-176 -547 CURVE SMOOTH",
"-99 -547 OFFCURVE",
"-60 -504 OFFCURVE",
"-60 -421 CURVE SMOOTH",
"-60 -102 LINE",
"-141 -102 LINE",
"-141 -425 LINE SMOOTH",
"-141 -457 OFFCURVE",
"-150 -475 OFFCURVE",
"-172 -475 CURVE SMOOTH",
"-194 -475 OFFCURVE",
"-204 -458 OFFCURVE",
"-204 -425 CURVE SMOOTH",
"-204 -277 LINE SMOOTH",
"-204 -152 OFFCURVE",
"-251 -92 OFFCURVE",
"-327 -92 CURVE SMOOTH",
"-387 -92 OFFCURVE",
"-432 -128 OFFCURVE",
"-441 -222 CURVE",
"-433 -222 LINE",
"-445 -130 OFFCURVE",
"-485 -92 OFFCURVE",
"-549 -92 CURVE SMOOTH",
"-627 -92 OFFCURVE",
"-670 -149 OFFCURVE",
"-670 -244 CURVE SMOOTH",
"-670 -294 OFFCURVE",
"-658 -343 OFFCURVE",
"-633 -377 CURVE",
"-609 -365 LINE",
"-696 -352 OFFCURVE",
"-735 -309 OFFCURVE",
"-735 -226 CURVE SMOOTH",
"-735 -192 OFFCURVE",
"-728 -148 OFFCURVE",
"-715 -97 CURVE",
"-781 -83 LINE",
"-797 -134 OFFCURVE",
"-806 -183 OFFCURVE",
"-806 -227 CURVE SMOOTH"
);
}
);
width = 0;
},
{
layerId = "61CE545B-E6AD-45B5-B051-8D1B01C68A7F";
paths = (
{
closed = 1;
nodes = (
"-900 -366 OFFCURVE",
"-829 -430 OFFCURVE",
"-684 -450 CURVE",
"-619 -393 LINE",
"-638 -342 OFFCURVE",
"-649 -306 OFFCURVE",
"-649 -270 CURVE SMOOTH",
"-649 -235 OFFCURVE",
"-638 -213 OFFCURVE",
"-618 -213 CURVE SMOOTH",
"-588 -213 OFFCURVE",
"-572 -249 OFFCURVE",
"-562 -325 CURVE",
"-461 -325 LINE",
"-453 -252 OFFCURVE",
"-443 -213 OFFCURVE",
"-416 -213 CURVE SMOOTH",
"-396 -213 OFFCURVE",
"-379 -231 OFFCURVE",
"-379 -291 CURVE SMOOTH",
"-379 -399 LINE SMOOTH",
"-379 -502 OFFCURVE",
"-318 -547 OFFCURVE",
"-214 -547 CURVE SMOOTH",
"-110 -547 OFFCURVE",
"-59 -502 OFFCURVE",
"-59 -398 CURVE SMOOTH",
"-59 -102 LINE",
"-196 -102 LINE",
"-196 -392 LINE SMOOTH",
"-196 -428 OFFCURVE",
"-203 -440 OFFCURVE",
"-220 -440 CURVE SMOOTH",
"-237 -440 OFFCURVE",
"-246 -429 OFFCURVE",
"-246 -394 CURVE SMOOTH",
"-246 -293 LINE SMOOTH",
"-246 -162 OFFCURVE",
"-300 -92 OFFCURVE",
"-390 -92 CURVE SMOOTH",
"-482 -92 OFFCURVE",
"-531 -166 OFFCURVE",
"-538 -267 CURVE",
"-485 -262 LINE",
"-496 -173 OFFCURVE",
"-544 -92 OFFCURVE",
"-631 -92 CURVE SMOOTH",
"-707 -92 OFFCURVE",
"-762 -154 OFFCURVE",
"-762 -235 CURVE SMOOTH",
"-762 -299 OFFCURVE",
"-728 -351 OFFCURVE",
"-682 -392 CURVE",
"-683 -356 LINE",
"-734 -344 OFFCURVE",
"-793 -311 OFFCURVE",
"-793 -246 CURVE SMOOTH",
"-793 -219 OFFCURVE",
"-783 -169 OFFCURVE",
"-766 -111 CURVE",
"-865 -86 LINE",
"-889 -148 OFFCURVE",
"-900 -201 OFFCURVE",
"-900 -247 CURVE SMOOTH"
);
}
);
width = 1;
}
);
},
{
glyphname = uni1B21.conj.2;
layers = (
{
layerId = "86689E10-1D55-4C8D-99A2-294733391E9C";
paths = (
{
closed = 1;
nodes = (
"-982 -346 OFFCURVE",
"-916 -412 OFFCURVE",
"-784 -426 CURVE",
"-742 -386 LINE",
"-758 -340 OFFCURVE",
"-766 -300 OFFCURVE",
"-766 -264 CURVE SMOOTH",
"-766 -200 OFFCURVE",
"-740 -164 OFFCURVE",
"-694 -164 CURVE SMOOTH",
"-644 -164 OFFCURVE",
"-617 -205 OFFCURVE",
"-611 -288 CURVE",
"-542 -288 LINE",
"-535 -206 OFFCURVE",
"-502 -164 OFFCURVE",
"-452 -164 CURVE SMOOTH",
"-383 -164 OFFCURVE",
"-342 -243 OFFCURVE",
"-342 -337 CURVE SMOOTH",
"-342 -537 LINE",
"-261 -537 LINE",
"-261 -171 LINE",
"-215 -171 LINE SMOOTH",
"-166 -171 OFFCURVE",
"-141 -197 OFFCURVE",
"-141 -250 CURVE SMOOTH",
"-141 -537 LINE",
"-60 -537 LINE",
"-60 -254 LINE SMOOTH",
"-60 -152 OFFCURVE",
"-110 -101 OFFCURVE",
"-212 -101 CURVE SMOOTH",
"-329 -101 LINE",
"-329 -237 LINE",
"-315 -218 LINE",
"-338 -125 OFFCURVE",
"-386 -92 OFFCURVE",
"-450 -92 CURVE SMOOTH",
"-515 -92 OFFCURVE",
"-557 -126 OFFCURVE",
"-571 -194 CURVE",
"-589 -126 OFFCURVE",
"-626 -92 OFFCURVE",
"-695 -92 CURVE SMOOTH",
"-783 -92 OFFCURVE",
"-834 -146 OFFCURVE",
"-834 -249 CURVE SMOOTH",
"-834 -302 OFFCURVE",
"-820 -347 OFFCURVE",
"-796 -382 CURVE",
"-768 -374 LINE",
"-866 -354 OFFCURVE",
"-912 -311 OFFCURVE",
"-912 -223 CURVE SMOOTH",
"-912 -192 OFFCURVE",
"-906 -148 OFFCURVE",
"-893 -97 CURVE",
"-957 -83 LINE",
"-973 -134 OFFCURVE",
"-982 -183 OFFCURVE",
"-982 -227 CURVE SMOOTH"
);
}
);
width = 0;
},
{
layerId = "61CE545B-E6AD-45B5-B051-8D1B01C68A7F";
paths = (
{
closed = 1;
nodes = (
"-998 -366 OFFCURVE",
"-925 -434 OFFCURVE",
"-776 -450 CURVE",
"-711 -393 LINE",
"-730 -342 OFFCURVE",
"-741 -306 OFFCURVE",
"-741 -275 CURVE SMOOTH",
"-741 -235 OFFCURVE",
"-728 -213 OFFCURVE",
"-703 -213 CURVE SMOOTH",
"-669 -213 OFFCURVE",
"-649 -249 OFFCURVE",
"-639 -325 CURVE",
"-537 -325 LINE",
"-529 -252 OFFCURVE",
"-511 -213 OFFCURVE",
"-469 -213 CURVE SMOOTH",
"-425 -213 OFFCURVE",
"-396 -252 OFFCURVE",
"-396 -362 CURVE SMOOTH",
"-396 -537 LINE",
"-262 -537 LINE",
"-262 -227 LINE",
"-245 -227 LINE SMOOTH",
"-214 -227 OFFCURVE",
"-197 -246 OFFCURVE",
"-197 -281 CURVE SMOOTH",
"-197 -537 LINE",
"-60 -537 LINE",
"-60 -255 LINE SMOOTH",
"-60 -153 OFFCURVE",
"-117 -102 OFFCURVE",
"-230 -102 CURVE SMOOTH",
"-353 -102 LINE",
"-353 -209 LINE",
"-339 -198 LINE",
"-364 -133 OFFCURVE",
"-407 -92 OFFCURVE",
"-471 -92 CURVE SMOOTH",
"-519 -92 OFFCURVE",
"-565 -116 OFFCURVE",
"-590 -170 CURVE",
"-618 -116 OFFCURVE",
"-659 -92 OFFCURVE",
"-713 -92 CURVE SMOOTH",
"-801 -92 OFFCURVE",
"-857 -154 OFFCURVE",
"-857 -237 CURVE SMOOTH",
"-857 -279 OFFCURVE",
"-843 -318 OFFCURVE",
"-823 -353 CURVE",
"-812 -342 LINE",
"-848 -325 OFFCURVE",
"-883 -292 OFFCURVE",
"-883 -241 CURVE SMOOTH",
"-883 -215 OFFCURVE",
"-874 -169 OFFCURVE",
"-857 -111 CURVE",
"-963 -86 LINE",
"-987 -148 OFFCURVE",
"-998 -201 OFFCURVE",
"-998 -247 CURVE SMOOTH"
);
}
);
width = 0;
}
);
},
